M48
; DRILL file KiCad 10.0.1 date 2026-05-09T17:30:18
; FORMAT={-:-/ absolute / metric / decimal}
; #@! TF.CreationDate,2026-05-09T17:30:18+05:30
; #@! TF.GenerationSoftware,Kicad,Pcbnew,10.0.1
; #@! TF.FileFunction,Plated,1,2,PTH
FMAT,2
METRIC
; #@! TA.AperFunction,Plated,PTH,ComponentDrill
T1C0.200
; #@! TA.AperFunction,Plated,PTH,ViaDrill
T2C0.300
; #@! TA.AperFunction,Plated,PTH,ComponentDrill
T3C0.400
; #@! TA.AperFunction,Plated,PTH,ComponentDrill
T4C0.500
; #@! TA.AperFunction,Plated,PTH,ComponentDrill
T5C0.600
; #@! TA.AperFunction,Plated,PTH,ComponentDrill
T6C0.800
; #@! TA.AperFunction,Plated,PTH,ComponentDrill
T7C0.900
; #@! TA.AperFunction,Plated,PTH,ComponentDrill
T8C1.000
; #@! TA.AperFunction,Plated,PTH,ComponentDrill
T9C1.500
%
G90
G05
T1
X494.989Y-221.665
X494.989Y-222.865
X494.989Y-224.065
X496.389Y-221.665
X496.389Y-222.865
X496.389Y-224.065
T2
X382.8Y-238.5
X383.375Y-235.5
X388.875Y-231.25
X389.5Y-230.5
X389.5Y-242.0
X389.75Y-237.0
X390.875Y-241.75
X391.425Y-243.25
X392.75Y-248.25
X393.0Y-230.75
X393.5Y-237.0
X393.75Y-234.2
X393.75Y-235.0
X395.0Y-231.75
X395.25Y-230.875
X407.25Y-215.75
X408.5Y-227.25
X408.5Y-228.05
X409.25Y-249.0
X411.5Y-215.75
X411.5Y-228.0
X412.25Y-227.25
X429.5Y-258.25
X429.5Y-265.75
X435.0Y-227.0
X435.25Y-229.75
X437.75Y-236.75
X440.25Y-229.25
X440.925Y-236.75
X444.5Y-236.75
X450.75Y-228.75
X451.0Y-225.75
X451.75Y-236.75
X452.75Y-227.75
X456.75Y-240.5
X457.0Y-230.25
X457.0Y-239.0
X457.25Y-228.25
X463.0Y-236.75
X468.5Y-257.0
X479.5Y-225.75
X479.5Y-229.0
X488.75Y-222.0
X489.25Y-267.5
X491.5Y-222.25
X498.0Y-213.25
X500.75Y-213.5
X501.75Y-209.5
X501.75Y-215.25
X504.0Y-240.75
X508.75Y-255.5
X508.75Y-256.3
X512.5Y-262.25
X513.25Y-229.5
X514.5Y-209.0
X515.0Y-255.5
X515.0Y-262.5
X515.0Y-263.3
X515.5Y-236.75
X517.75Y-209.0
X518.25Y-256.25
X518.5Y-200.0
X519.0Y-211.0
X521.0Y-265.75
X521.5Y-229.5
X522.25Y-215.5
X522.25Y-233.75
X523.5Y-216.0
X524.225Y-230.5
X525.0Y-210.0
X525.0Y-233.25
X528.75Y-217.5
X528.75Y-220.0
X529.0Y-243.25
X529.5Y-217.0
X529.55Y-220.0
X531.0Y-231.5
X531.5Y-212.0
X532.0Y-236.75
X532.5Y-233.75
X535.75Y-236.75
X538.75Y-212.0
X560.25Y-232.75
X560.5Y-231.75
X560.75Y-228.25
X561.723Y-226.0
T3
X491.85Y-198.51
X491.85Y-199.86
X492.7Y-198.51
X492.7Y-199.86
X493.55Y-198.51
X493.55Y-199.86
X494.4Y-198.51
X494.4Y-199.86
X495.25Y-198.51
X495.25Y-199.86
X496.1Y-198.51
X496.1Y-199.86
X496.95Y-198.51
X496.95Y-199.86
X497.8Y-198.51
X497.8Y-199.86
T4
X385.8Y-227.25
X385.8Y-228.25
X385.8Y-229.25
X385.8Y-230.25
X385.8Y-231.25
X385.8Y-232.25
X385.8Y-233.25
X385.8Y-234.25
X385.8Y-235.25
X385.8Y-236.25
X385.8Y-237.25
X385.8Y-238.25
X558.75Y-228.75
X558.75Y-229.75
X558.75Y-230.75
X558.75Y-231.75
X558.75Y-232.75
X558.75Y-233.75
X558.75Y-234.75
X558.75Y-235.75
X558.75Y-236.75
X558.75Y-237.75
X558.75Y-238.75
X558.75Y-239.75
T6
X492.0Y-257.0
X492.25Y-267.5
X494.5Y-257.0
X494.75Y-267.5
T7
X484.21Y-197.5
X486.75Y-197.5
X503.21Y-197.25
X505.75Y-197.25
X516.6Y-196.0
X518.6Y-196.0
X520.6Y-196.0
T8
X416.5Y-213.15
X416.5Y-215.69
X416.5Y-218.23
X416.5Y-220.77
X416.5Y-223.31
X416.5Y-225.85
X416.5Y-228.39
X416.5Y-230.93
X416.5Y-233.47
X416.5Y-236.01
X416.5Y-238.55
X416.5Y-241.09
X416.5Y-243.63
X416.5Y-246.17
X416.5Y-248.71
X416.5Y-251.25
X416.5Y-253.79
X416.5Y-256.33
X416.5Y-258.87
X416.5Y-261.41
X419.04Y-213.15
X419.04Y-215.69
X419.04Y-218.23
X419.04Y-220.77
X419.04Y-223.31
X419.04Y-225.85
X419.04Y-228.39
X419.04Y-230.93
X419.04Y-233.47
X419.04Y-236.01
X419.04Y-238.55
X419.04Y-241.09
X419.04Y-243.63
X419.04Y-246.17
X419.04Y-248.71
X419.04Y-251.25
X419.04Y-253.79
X419.04Y-256.33
X419.04Y-258.87
X419.04Y-261.41
X453.91Y-200.71
X453.91Y-203.25
X510.0Y-261.21
X510.0Y-263.75
X520.0Y-222.46
X520.0Y-225.0
T9
X514.5Y-196.0
X522.7Y-196.0
T5
G00X490.5Y-195.9
M15
G01X490.5Y-195.1
M16
G05
G00X490.5Y-199.63
M15
G01X490.5Y-198.13
M16
G05
G00X499.15Y-195.9
M15
G01X499.15Y-195.1
M16
G05
G00X499.15Y-199.63
M15
G01X499.15Y-198.13
M16
G05
M30
