%TF.GenerationSoftware,KiCad,Pcbnew,10.0.1*%
%TF.CreationDate,2026-05-09T17:30:17+05:30*%
%TF.ProjectId,Handheld Gaming device PCB,48616e64-6865-46c6-9420-47616d696e67,rev?*%
%TF.SameCoordinates,Original*%
%TF.FileFunction,Soldermask,Top*%
%TF.FilePolarity,Negative*%
%FSLAX46Y46*%
G04 Gerber Fmt 4.6, Leading zero omitted, Abs format (unit mm)*
G04 Created by KiCad (PCBNEW 10.0.1) date 2026-05-09 17:30:17*
%MOMM*%
%LPD*%
G01*
G04 APERTURE LIST*
G04 Aperture macros list*
%AMRoundRect*
0 Rectangle with rounded corners*
0 $1 Rounding radius*
0 $2 $3 $4 $5 $6 $7 $8 $9 X,Y pos of 4 corners*
0 Add a 4 corners polygon primitive as box body*
4,1,4,$2,$3,$4,$5,$6,$7,$8,$9,$2,$3,0*
0 Add four circle primitives for the rounded corners*
1,1,$1+$1,$2,$3*
1,1,$1+$1,$4,$5*
1,1,$1+$1,$6,$7*
1,1,$1+$1,$8,$9*
0 Add four rect primitives between the rounded corners*
20,1,$1+$1,$2,$3,$4,$5,0*
20,1,$1+$1,$4,$5,$6,$7,0*
20,1,$1+$1,$6,$7,$8,$9,0*
20,1,$1+$1,$8,$9,$2,$3,0*%
G04 Aperture macros list end*
%ADD10R,1.700000X1.700000*%
%ADD11C,1.700000*%
%ADD12R,1.800000X1.800000*%
%ADD13C,1.800000*%
%ADD14C,0.700000*%
%ADD15O,0.900000X2.400000*%
%ADD16O,0.900000X1.700000*%
%ADD17R,2.800000X2.200000*%
%ADD18R,2.800000X2.800000*%
%ADD19R,0.850000X0.850000*%
%ADD20C,0.850000*%
%ADD21RoundRect,0.250000X0.550000X0.550000X-0.550000X0.550000X-0.550000X-0.550000X0.550000X-0.550000X0*%
%ADD22C,1.600000*%
%ADD23O,2.200000X3.500000*%
%ADD24R,1.500000X2.500000*%
%ADD25O,1.500000X2.500000*%
G04 APERTURE END LIST*
D10*
%TO.C,J5*%
X453910000Y-200710000D03*
D11*
X453910000Y-203250000D03*
%TD*%
D12*
%TO.C,D2*%
X486750000Y-197500000D03*
D13*
X484210000Y-197500000D03*
%TD*%
D10*
%TO.C,Battery_3.7V1*%
X520000000Y-222460000D03*
D11*
X520000000Y-225000000D03*
%TD*%
D14*
%TO.C,J2*%
X497800000Y-199860000D03*
X496950000Y-199860000D03*
X496100000Y-199860000D03*
X495250000Y-199860000D03*
X494400000Y-199860000D03*
X493550000Y-199860000D03*
X492700000Y-199860000D03*
X491850000Y-199860000D03*
X491850000Y-198510000D03*
X492700000Y-198510000D03*
X493550000Y-198510000D03*
X494400000Y-198510000D03*
X495250000Y-198510000D03*
X496100000Y-198510000D03*
X496950000Y-198510000D03*
X497800000Y-198510000D03*
D15*
X499150000Y-198880000D03*
D16*
X499150000Y-195500000D03*
D15*
X490500000Y-198880000D03*
D16*
X490500000Y-195500000D03*
%TD*%
D11*
%TO.C,J7*%
X477050000Y-272150000D03*
X477050000Y-265150000D03*
D17*
X473350000Y-271250000D03*
X480750000Y-273250000D03*
D18*
X480750000Y-263850000D03*
%TD*%
D10*
%TO.C,J6*%
X510000000Y-263750000D03*
D11*
X510000000Y-261210000D03*
%TD*%
D12*
%TO.C,D1*%
X505750000Y-197250000D03*
D13*
X503210000Y-197250000D03*
%TD*%
D19*
%TO.C,J13*%
X385800000Y-227250000D03*
D20*
X385800000Y-228250000D03*
X385800000Y-229250000D03*
X385800000Y-230250000D03*
X385800000Y-231250000D03*
X385800000Y-232250000D03*
X385800000Y-233250000D03*
X385800000Y-234250000D03*
X385800000Y-235250000D03*
X385800000Y-236250000D03*
X385800000Y-237250000D03*
X385800000Y-238250000D03*
%TD*%
D21*
%TO.C,C8*%
X494500000Y-257000000D03*
D22*
X492000000Y-257000000D03*
%TD*%
D10*
%TO.C,J1*%
X416500000Y-213150000D03*
D11*
X419040000Y-213150000D03*
X416500000Y-215690000D03*
X419040000Y-215690000D03*
X416500000Y-218230000D03*
X419040000Y-218230000D03*
X416500000Y-220770000D03*
X419040000Y-220770000D03*
X416500000Y-223310000D03*
X419040000Y-223310000D03*
X416500000Y-225850000D03*
X419040000Y-225850000D03*
X416500000Y-228390000D03*
X419040000Y-228390000D03*
X416500000Y-230930000D03*
X419040000Y-230930000D03*
X416500000Y-233470000D03*
X419040000Y-233470000D03*
X416500000Y-236010000D03*
X419040000Y-236010000D03*
X416500000Y-238550000D03*
X419040000Y-238550000D03*
X416500000Y-241090000D03*
X419040000Y-241090000D03*
X416500000Y-243630000D03*
X419040000Y-243630000D03*
X416500000Y-246170000D03*
X419040000Y-246170000D03*
X416500000Y-248710000D03*
X419040000Y-248710000D03*
X416500000Y-251250000D03*
X419040000Y-251250000D03*
X416500000Y-253790000D03*
X419040000Y-253790000D03*
X416500000Y-256330000D03*
X419040000Y-256330000D03*
X416500000Y-258870000D03*
X419040000Y-258870000D03*
X416500000Y-261410000D03*
X419040000Y-261410000D03*
%TD*%
D23*
%TO.C,SW1*%
X522700000Y-196000000D03*
X514500000Y-196000000D03*
D24*
X520600000Y-196000000D03*
D25*
X518600000Y-196000000D03*
X516600000Y-196000000D03*
%TD*%
D21*
%TO.C,C7*%
X494750000Y-267500000D03*
D22*
X492250000Y-267500000D03*
%TD*%
D19*
%TO.C,J12*%
X558750000Y-228750000D03*
D20*
X558750000Y-229750000D03*
X558750000Y-230750000D03*
X558750000Y-231750000D03*
X558750000Y-232750000D03*
X558750000Y-233750000D03*
X558750000Y-234750000D03*
X558750000Y-235750000D03*
X558750000Y-236750000D03*
X558750000Y-237750000D03*
X558750000Y-238750000D03*
X558750000Y-239750000D03*
%TD*%
M02*
