%TF.GenerationSoftware,KiCad,Pcbnew,10.0.1*%
%TF.CreationDate,2026-05-09T17:30:17+05:30*%
%TF.ProjectId,Handheld Gaming device PCB,48616e64-6865-46c6-9420-47616d696e67,rev?*%
%TF.SameCoordinates,Original*%
%TF.FileFunction,Soldermask,Bot*%
%TF.FilePolarity,Negative*%
%FSLAX46Y46*%
G04 Gerber Fmt 4.6, Leading zero omitted, Abs format (unit mm)*
G04 Created by KiCad (PCBNEW 10.0.1) date 2026-05-09 17:30:17*
%MOMM*%
%LPD*%
G01*
G04 APERTURE LIST*
G04 Aperture macros list*
%AMRoundRect*
0 Rectangle with rounded corners*
0 $1 Rounding radius*
0 $2 $3 $4 $5 $6 $7 $8 $9 X,Y pos of 4 corners*
0 Add a 4 corners polygon primitive as box body*
4,1,4,$2,$3,$4,$5,$6,$7,$8,$9,$2,$3,0*
0 Add four circle primitives for the rounded corners*
1,1,$1+$1,$2,$3*
1,1,$1+$1,$4,$5*
1,1,$1+$1,$6,$7*
1,1,$1+$1,$8,$9*
0 Add four rect primitives between the rounded corners*
20,1,$1+$1,$2,$3,$4,$5,0*
20,1,$1+$1,$4,$5,$6,$7,0*
20,1,$1+$1,$6,$7,$8,$9,0*
20,1,$1+$1,$8,$9,$2,$3,0*%
G04 Aperture macros list end*
%ADD10R,1.700000X1.700000*%
%ADD11C,1.700000*%
%ADD12R,1.800000X1.800000*%
%ADD13C,1.800000*%
%ADD14C,0.700000*%
%ADD15O,0.900000X2.400000*%
%ADD16O,0.900000X1.700000*%
%ADD17R,0.850000X0.850000*%
%ADD18C,0.850000*%
%ADD19RoundRect,0.250000X0.550000X0.550000X-0.550000X0.550000X-0.550000X-0.550000X0.550000X-0.550000X0*%
%ADD20C,1.600000*%
%ADD21O,2.200000X3.500000*%
%ADD22R,1.500000X2.500000*%
%ADD23O,1.500000X2.500000*%
%ADD24RoundRect,0.225000X0.225000X0.375000X-0.225000X0.375000X-0.225000X-0.375000X0.225000X-0.375000X0*%
%ADD25RoundRect,0.135000X0.135000X0.185000X-0.135000X0.185000X-0.135000X-0.185000X0.135000X-0.185000X0*%
%ADD26R,2.900000X5.400000*%
%ADD27RoundRect,0.250000X0.250000X0.475000X-0.250000X0.475000X-0.250000X-0.475000X0.250000X-0.475000X0*%
%ADD28RoundRect,0.135000X-0.135000X-0.185000X0.135000X-0.185000X0.135000X0.185000X-0.135000X0.185000X0*%
%ADD29RoundRect,0.140000X-0.140000X-0.170000X0.140000X-0.170000X0.140000X0.170000X-0.140000X0.170000X0*%
%ADD30RoundRect,0.062500X0.350000X0.062500X-0.350000X0.062500X-0.350000X-0.062500X0.350000X-0.062500X0*%
%ADD31RoundRect,0.062500X0.062500X0.350000X-0.062500X0.350000X-0.062500X-0.350000X0.062500X-0.350000X0*%
%ADD32R,1.230000X1.230000*%
%ADD33RoundRect,0.150000X0.825000X0.150000X-0.825000X0.150000X-0.825000X-0.150000X0.825000X-0.150000X0*%
%ADD34R,2.410000X3.300000*%
%ADD35RoundRect,0.250000X-0.250000X-0.475000X0.250000X-0.475000X0.250000X0.475000X-0.250000X0.475000X0*%
%ADD36RoundRect,0.075000X0.650000X0.075000X-0.650000X0.075000X-0.650000X-0.075000X0.650000X-0.075000X0*%
%ADD37RoundRect,0.150000X0.512500X0.150000X-0.512500X0.150000X-0.512500X-0.150000X0.512500X-0.150000X0*%
G04 APERTURE END LIST*
D10*
%TO.C,J5*%
X453910000Y-200710000D03*
D11*
X453910000Y-203250000D03*
%TD*%
D12*
%TO.C,D2*%
X486750000Y-197500000D03*
D13*
X484210000Y-197500000D03*
%TD*%
D10*
%TO.C,Battery_3.7V1*%
X520000000Y-222460000D03*
D11*
X520000000Y-225000000D03*
%TD*%
D14*
%TO.C,J2*%
X497800000Y-199860000D03*
X496950000Y-199860000D03*
X496100000Y-199860000D03*
X495250000Y-199860000D03*
X494400000Y-199860000D03*
X493550000Y-199860000D03*
X492700000Y-199860000D03*
X491850000Y-199860000D03*
X491850000Y-198510000D03*
X492700000Y-198510000D03*
X493550000Y-198510000D03*
X494400000Y-198510000D03*
X495250000Y-198510000D03*
X496100000Y-198510000D03*
X496950000Y-198510000D03*
X497800000Y-198510000D03*
D15*
X499150000Y-198880000D03*
D16*
X499150000Y-195500000D03*
D15*
X490500000Y-198880000D03*
D16*
X490500000Y-195500000D03*
%TD*%
D11*
%TO.C,J7*%
X477050000Y-272150000D03*
X477050000Y-265150000D03*
%TD*%
D10*
%TO.C,J6*%
X510000000Y-263750000D03*
D11*
X510000000Y-261210000D03*
%TD*%
D12*
%TO.C,D1*%
X505750000Y-197250000D03*
D13*
X503210000Y-197250000D03*
%TD*%
D17*
%TO.C,J13*%
X385800000Y-227250000D03*
D18*
X385800000Y-228250000D03*
X385800000Y-229250000D03*
X385800000Y-230250000D03*
X385800000Y-231250000D03*
X385800000Y-232250000D03*
X385800000Y-233250000D03*
X385800000Y-234250000D03*
X385800000Y-235250000D03*
X385800000Y-236250000D03*
X385800000Y-237250000D03*
X385800000Y-238250000D03*
%TD*%
D19*
%TO.C,C8*%
X494500000Y-257000000D03*
D20*
X492000000Y-257000000D03*
%TD*%
D10*
%TO.C,J1*%
X416500000Y-213150000D03*
D11*
X419040000Y-213150000D03*
X416500000Y-215690000D03*
X419040000Y-215690000D03*
X416500000Y-218230000D03*
X419040000Y-218230000D03*
X416500000Y-220770000D03*
X419040000Y-220770000D03*
X416500000Y-223310000D03*
X419040000Y-223310000D03*
X416500000Y-225850000D03*
X419040000Y-225850000D03*
X416500000Y-228390000D03*
X419040000Y-228390000D03*
X416500000Y-230930000D03*
X419040000Y-230930000D03*
X416500000Y-233470000D03*
X419040000Y-233470000D03*
X416500000Y-236010000D03*
X419040000Y-236010000D03*
X416500000Y-238550000D03*
X419040000Y-238550000D03*
X416500000Y-241090000D03*
X419040000Y-241090000D03*
X416500000Y-243630000D03*
X419040000Y-243630000D03*
X416500000Y-246170000D03*
X419040000Y-246170000D03*
X416500000Y-248710000D03*
X419040000Y-248710000D03*
X416500000Y-251250000D03*
X419040000Y-251250000D03*
X416500000Y-253790000D03*
X419040000Y-253790000D03*
X416500000Y-256330000D03*
X419040000Y-256330000D03*
X416500000Y-258870000D03*
X419040000Y-258870000D03*
X416500000Y-261410000D03*
X419040000Y-261410000D03*
%TD*%
D21*
%TO.C,SW1*%
X522700000Y-196000000D03*
X514500000Y-196000000D03*
D22*
X520600000Y-196000000D03*
D23*
X518600000Y-196000000D03*
X516600000Y-196000000D03*
%TD*%
D19*
%TO.C,C7*%
X494750000Y-267500000D03*
D20*
X492250000Y-267500000D03*
%TD*%
D17*
%TO.C,J12*%
X558750000Y-228750000D03*
D18*
X558750000Y-229750000D03*
X558750000Y-230750000D03*
X558750000Y-231750000D03*
X558750000Y-232750000D03*
X558750000Y-233750000D03*
X558750000Y-234750000D03*
X558750000Y-235750000D03*
X558750000Y-236750000D03*
X558750000Y-237750000D03*
X558750000Y-238750000D03*
X558750000Y-239750000D03*
%TD*%
D24*
%TO.C,D3*%
X545000000Y-203250000D03*
X541700000Y-203250000D03*
%TD*%
D25*
%TO.C,R2*%
X493664315Y-217585685D03*
X492644315Y-217585685D03*
%TD*%
D26*
%TO.C,L1*%
X537450000Y-203250000D03*
X527750000Y-203250000D03*
%TD*%
D25*
%TO.C,R18*%
X397750000Y-225750000D03*
X396730000Y-225750000D03*
%TD*%
D27*
%TO.C,C2*%
X489664315Y-224835685D03*
X487764315Y-224835685D03*
%TD*%
D28*
%TO.C,R17*%
X497230000Y-203250000D03*
X498250000Y-203250000D03*
%TD*%
D25*
%TO.C,R21*%
X504500000Y-261250000D03*
X503480000Y-261250000D03*
%TD*%
D27*
%TO.C,C1*%
X509450000Y-223000000D03*
X507550000Y-223000000D03*
%TD*%
D25*
%TO.C,R5*%
X527000000Y-216250000D03*
X525980000Y-216250000D03*
%TD*%
D29*
%TO.C,C6*%
X425580000Y-216160000D03*
X426540000Y-216160000D03*
%TD*%
D27*
%TO.C,C5*%
X427040000Y-211910000D03*
X425140000Y-211910000D03*
%TD*%
D25*
%TO.C,R20*%
X504500000Y-263750000D03*
X503480000Y-263750000D03*
%TD*%
D30*
%TO.C,U4*%
X519937500Y-261562500D03*
X519937500Y-262062500D03*
X519937500Y-262562500D03*
X519937500Y-263062500D03*
D31*
X519250000Y-263750000D03*
X518750000Y-263750000D03*
X518250000Y-263750000D03*
X517750000Y-263750000D03*
D30*
X517062500Y-263062500D03*
X517062500Y-262562500D03*
X517062500Y-262062500D03*
X517062500Y-261562500D03*
D31*
X517750000Y-260875000D03*
X518250000Y-260875000D03*
X518750000Y-260875000D03*
X519250000Y-260875000D03*
D32*
X518500000Y-262312500D03*
%TD*%
D33*
%TO.C,U1*%
X498164315Y-220960000D03*
X498164315Y-222230000D03*
X498164315Y-223500000D03*
X498164315Y-224770000D03*
X493214315Y-224770000D03*
X493214315Y-223500000D03*
X493214315Y-222230000D03*
X493214315Y-220960000D03*
D34*
X495689315Y-222865000D03*
%TD*%
D25*
%TO.C,R19*%
X393750000Y-225750000D03*
X392730000Y-225750000D03*
%TD*%
%TO.C,R1*%
X502664315Y-221270000D03*
X501644315Y-221270000D03*
%TD*%
D27*
%TO.C,C3*%
X516200000Y-211250000D03*
X514300000Y-211250000D03*
%TD*%
D35*
%TO.C,C4*%
X549100000Y-203250000D03*
X551000000Y-203250000D03*
%TD*%
D36*
%TO.C,U3*%
X402000000Y-229250000D03*
X402000000Y-229750000D03*
X402000000Y-230250000D03*
X402000000Y-230750000D03*
X402000000Y-231250000D03*
X397700000Y-231250000D03*
X397700000Y-230750000D03*
X397700000Y-230250000D03*
X397700000Y-229750000D03*
X397700000Y-229250000D03*
%TD*%
D37*
%TO.C,U2*%
X522650000Y-210100000D03*
X522650000Y-211050000D03*
X522650000Y-212000000D03*
X520375000Y-212000000D03*
X520375000Y-211050000D03*
X520375000Y-210100000D03*
%TD*%
D25*
%TO.C,R3*%
X498684315Y-217585685D03*
X497664315Y-217585685D03*
%TD*%
%TO.C,R4*%
X528000000Y-212000000D03*
X526980000Y-212000000D03*
%TD*%
%TO.C,R16*%
X492660000Y-203455000D03*
X491640000Y-203455000D03*
%TD*%
M02*
