%TF.GenerationSoftware,KiCad,Pcbnew,10.0.1*%
%TF.CreationDate,2026-05-09T17:32:53+05:30*%
%TF.ProjectId,Handheld Gaming device PCB,48616e64-6865-46c6-9420-47616d696e67,rev?*%
%TF.SameCoordinates,Original*%
%TF.FileFunction,Legend,Top*%
%TF.FilePolarity,Positive*%
%FSLAX46Y46*%
G04 Gerber Fmt 4.6, Leading zero omitted, Abs format (unit mm)*
G04 Created by KiCad (PCBNEW 10.0.1) date 2026-05-09 17:32:53*
%MOMM*%
%LPD*%
G01*
G04 APERTURE LIST*
%ADD10C,0.150000*%
%ADD11C,0.100000*%
%ADD12C,0.120000*%
G04 APERTURE END LIST*
D10*
X170497476Y-248502200D02*
X170640333Y-248549819D01*
X170640333Y-248549819D02*
X170878428Y-248549819D01*
X170878428Y-248549819D02*
X170973666Y-248502200D01*
X170973666Y-248502200D02*
X171021285Y-248454580D01*
X171021285Y-248454580D02*
X171068904Y-248359342D01*
X171068904Y-248359342D02*
X171068904Y-248264104D01*
X171068904Y-248264104D02*
X171021285Y-248168866D01*
X171021285Y-248168866D02*
X170973666Y-248121247D01*
X170973666Y-248121247D02*
X170878428Y-248073628D01*
X170878428Y-248073628D02*
X170687952Y-248026009D01*
X170687952Y-248026009D02*
X170592714Y-247978390D01*
X170592714Y-247978390D02*
X170545095Y-247930771D01*
X170545095Y-247930771D02*
X170497476Y-247835533D01*
X170497476Y-247835533D02*
X170497476Y-247740295D01*
X170497476Y-247740295D02*
X170545095Y-247645057D01*
X170545095Y-247645057D02*
X170592714Y-247597438D01*
X170592714Y-247597438D02*
X170687952Y-247549819D01*
X170687952Y-247549819D02*
X170926047Y-247549819D01*
X170926047Y-247549819D02*
X171068904Y-247597438D01*
X171402238Y-247549819D02*
X171640333Y-248549819D01*
X171640333Y-248549819D02*
X171830809Y-247835533D01*
X171830809Y-247835533D02*
X172021285Y-248549819D01*
X172021285Y-248549819D02*
X172259381Y-247549819D01*
X173164142Y-248549819D02*
X172592714Y-248549819D01*
X172878428Y-248549819D02*
X172878428Y-247549819D01*
X172878428Y-247549819D02*
X172783190Y-247692676D01*
X172783190Y-247692676D02*
X172687952Y-247787914D01*
X172687952Y-247787914D02*
X172592714Y-247835533D01*
X173545095Y-247645057D02*
X173592714Y-247597438D01*
X173592714Y-247597438D02*
X173687952Y-247549819D01*
X173687952Y-247549819D02*
X173926047Y-247549819D01*
X173926047Y-247549819D02*
X174021285Y-247597438D01*
X174021285Y-247597438D02*
X174068904Y-247645057D01*
X174068904Y-247645057D02*
X174116523Y-247740295D01*
X174116523Y-247740295D02*
X174116523Y-247835533D01*
X174116523Y-247835533D02*
X174068904Y-247978390D01*
X174068904Y-247978390D02*
X173497476Y-248549819D01*
X173497476Y-248549819D02*
X174116523Y-248549819D01*
D11*
X169674726Y-197840722D02*
X169674726Y-198555007D01*
X169674726Y-198555007D02*
X169627107Y-198697864D01*
X169627107Y-198697864D02*
X169531869Y-198793103D01*
X169531869Y-198793103D02*
X169389012Y-198840722D01*
X169389012Y-198840722D02*
X169293774Y-198840722D01*
X170150917Y-198840722D02*
X170150917Y-197840722D01*
X170150917Y-197840722D02*
X170484250Y-198555007D01*
X170484250Y-198555007D02*
X170817583Y-197840722D01*
X170817583Y-197840722D02*
X170817583Y-198840722D01*
X171246155Y-197935960D02*
X171293774Y-197888341D01*
X171293774Y-197888341D02*
X171389012Y-197840722D01*
X171389012Y-197840722D02*
X171627107Y-197840722D01*
X171627107Y-197840722D02*
X171722345Y-197888341D01*
X171722345Y-197888341D02*
X171769964Y-197935960D01*
X171769964Y-197935960D02*
X171817583Y-198031198D01*
X171817583Y-198031198D02*
X171817583Y-198126436D01*
X171817583Y-198126436D02*
X171769964Y-198269293D01*
X171769964Y-198269293D02*
X171198536Y-198840722D01*
X171198536Y-198840722D02*
X171817583Y-198840722D01*
D10*
X199343666Y-188929819D02*
X199343666Y-189644104D01*
X199343666Y-189644104D02*
X199296047Y-189786961D01*
X199296047Y-189786961D02*
X199200809Y-189882200D01*
X199200809Y-189882200D02*
X199057952Y-189929819D01*
X199057952Y-189929819D02*
X198962714Y-189929819D01*
X199724619Y-188929819D02*
X200343666Y-188929819D01*
X200343666Y-188929819D02*
X200010333Y-189310771D01*
X200010333Y-189310771D02*
X200153190Y-189310771D01*
X200153190Y-189310771D02*
X200248428Y-189358390D01*
X200248428Y-189358390D02*
X200296047Y-189406009D01*
X200296047Y-189406009D02*
X200343666Y-189501247D01*
X200343666Y-189501247D02*
X200343666Y-189739342D01*
X200343666Y-189739342D02*
X200296047Y-189834580D01*
X200296047Y-189834580D02*
X200248428Y-189882200D01*
X200248428Y-189882200D02*
X200153190Y-189929819D01*
X200153190Y-189929819D02*
X199867476Y-189929819D01*
X199867476Y-189929819D02*
X199772238Y-189882200D01*
X199772238Y-189882200D02*
X199724619Y-189834580D01*
X182473667Y-217022200D02*
X182616524Y-217069819D01*
X182616524Y-217069819D02*
X182854619Y-217069819D01*
X182854619Y-217069819D02*
X182949857Y-217022200D01*
X182949857Y-217022200D02*
X182997476Y-216974580D01*
X182997476Y-216974580D02*
X183045095Y-216879342D01*
X183045095Y-216879342D02*
X183045095Y-216784104D01*
X183045095Y-216784104D02*
X182997476Y-216688866D01*
X182997476Y-216688866D02*
X182949857Y-216641247D01*
X182949857Y-216641247D02*
X182854619Y-216593628D01*
X182854619Y-216593628D02*
X182664143Y-216546009D01*
X182664143Y-216546009D02*
X182568905Y-216498390D01*
X182568905Y-216498390D02*
X182521286Y-216450771D01*
X182521286Y-216450771D02*
X182473667Y-216355533D01*
X182473667Y-216355533D02*
X182473667Y-216260295D01*
X182473667Y-216260295D02*
X182521286Y-216165057D01*
X182521286Y-216165057D02*
X182568905Y-216117438D01*
X182568905Y-216117438D02*
X182664143Y-216069819D01*
X182664143Y-216069819D02*
X182902238Y-216069819D01*
X182902238Y-216069819D02*
X183045095Y-216117438D01*
X183378429Y-216069819D02*
X183616524Y-217069819D01*
X183616524Y-217069819D02*
X183807000Y-216355533D01*
X183807000Y-216355533D02*
X183997476Y-217069819D01*
X183997476Y-217069819D02*
X184235572Y-216069819D01*
X185045095Y-216069819D02*
X184854619Y-216069819D01*
X184854619Y-216069819D02*
X184759381Y-216117438D01*
X184759381Y-216117438D02*
X184711762Y-216165057D01*
X184711762Y-216165057D02*
X184616524Y-216307914D01*
X184616524Y-216307914D02*
X184568905Y-216498390D01*
X184568905Y-216498390D02*
X184568905Y-216879342D01*
X184568905Y-216879342D02*
X184616524Y-216974580D01*
X184616524Y-216974580D02*
X184664143Y-217022200D01*
X184664143Y-217022200D02*
X184759381Y-217069819D01*
X184759381Y-217069819D02*
X184949857Y-217069819D01*
X184949857Y-217069819D02*
X185045095Y-217022200D01*
X185045095Y-217022200D02*
X185092714Y-216974580D01*
X185092714Y-216974580D02*
X185140333Y-216879342D01*
X185140333Y-216879342D02*
X185140333Y-216641247D01*
X185140333Y-216641247D02*
X185092714Y-216546009D01*
X185092714Y-216546009D02*
X185045095Y-216498390D01*
X185045095Y-216498390D02*
X184949857Y-216450771D01*
X184949857Y-216450771D02*
X184759381Y-216450771D01*
X184759381Y-216450771D02*
X184664143Y-216498390D01*
X184664143Y-216498390D02*
X184616524Y-216546009D01*
X184616524Y-216546009D02*
X184568905Y-216641247D01*
X193747476Y-248752200D02*
X193890333Y-248799819D01*
X193890333Y-248799819D02*
X194128428Y-248799819D01*
X194128428Y-248799819D02*
X194223666Y-248752200D01*
X194223666Y-248752200D02*
X194271285Y-248704580D01*
X194271285Y-248704580D02*
X194318904Y-248609342D01*
X194318904Y-248609342D02*
X194318904Y-248514104D01*
X194318904Y-248514104D02*
X194271285Y-248418866D01*
X194271285Y-248418866D02*
X194223666Y-248371247D01*
X194223666Y-248371247D02*
X194128428Y-248323628D01*
X194128428Y-248323628D02*
X193937952Y-248276009D01*
X193937952Y-248276009D02*
X193842714Y-248228390D01*
X193842714Y-248228390D02*
X193795095Y-248180771D01*
X193795095Y-248180771D02*
X193747476Y-248085533D01*
X193747476Y-248085533D02*
X193747476Y-247990295D01*
X193747476Y-247990295D02*
X193795095Y-247895057D01*
X193795095Y-247895057D02*
X193842714Y-247847438D01*
X193842714Y-247847438D02*
X193937952Y-247799819D01*
X193937952Y-247799819D02*
X194176047Y-247799819D01*
X194176047Y-247799819D02*
X194318904Y-247847438D01*
X194652238Y-247799819D02*
X194890333Y-248799819D01*
X194890333Y-248799819D02*
X195080809Y-248085533D01*
X195080809Y-248085533D02*
X195271285Y-248799819D01*
X195271285Y-248799819D02*
X195509381Y-247799819D01*
X196414142Y-248799819D02*
X195842714Y-248799819D01*
X196128428Y-248799819D02*
X196128428Y-247799819D01*
X196128428Y-247799819D02*
X196033190Y-247942676D01*
X196033190Y-247942676D02*
X195937952Y-248037914D01*
X195937952Y-248037914D02*
X195842714Y-248085533D01*
X196747476Y-247799819D02*
X197366523Y-247799819D01*
X197366523Y-247799819D02*
X197033190Y-248180771D01*
X197033190Y-248180771D02*
X197176047Y-248180771D01*
X197176047Y-248180771D02*
X197271285Y-248228390D01*
X197271285Y-248228390D02*
X197318904Y-248276009D01*
X197318904Y-248276009D02*
X197366523Y-248371247D01*
X197366523Y-248371247D02*
X197366523Y-248609342D01*
X197366523Y-248609342D02*
X197318904Y-248704580D01*
X197318904Y-248704580D02*
X197271285Y-248752200D01*
X197271285Y-248752200D02*
X197176047Y-248799819D01*
X197176047Y-248799819D02*
X196890333Y-248799819D01*
X196890333Y-248799819D02*
X196795095Y-248752200D01*
X196795095Y-248752200D02*
X196747476Y-248704580D01*
X172473667Y-225772200D02*
X172616524Y-225819819D01*
X172616524Y-225819819D02*
X172854619Y-225819819D01*
X172854619Y-225819819D02*
X172949857Y-225772200D01*
X172949857Y-225772200D02*
X172997476Y-225724580D01*
X172997476Y-225724580D02*
X173045095Y-225629342D01*
X173045095Y-225629342D02*
X173045095Y-225534104D01*
X173045095Y-225534104D02*
X172997476Y-225438866D01*
X172997476Y-225438866D02*
X172949857Y-225391247D01*
X172949857Y-225391247D02*
X172854619Y-225343628D01*
X172854619Y-225343628D02*
X172664143Y-225296009D01*
X172664143Y-225296009D02*
X172568905Y-225248390D01*
X172568905Y-225248390D02*
X172521286Y-225200771D01*
X172521286Y-225200771D02*
X172473667Y-225105533D01*
X172473667Y-225105533D02*
X172473667Y-225010295D01*
X172473667Y-225010295D02*
X172521286Y-224915057D01*
X172521286Y-224915057D02*
X172568905Y-224867438D01*
X172568905Y-224867438D02*
X172664143Y-224819819D01*
X172664143Y-224819819D02*
X172902238Y-224819819D01*
X172902238Y-224819819D02*
X173045095Y-224867438D01*
X173378429Y-224819819D02*
X173616524Y-225819819D01*
X173616524Y-225819819D02*
X173807000Y-225105533D01*
X173807000Y-225105533D02*
X173997476Y-225819819D01*
X173997476Y-225819819D02*
X174235572Y-224819819D01*
X174759381Y-225248390D02*
X174664143Y-225200771D01*
X174664143Y-225200771D02*
X174616524Y-225153152D01*
X174616524Y-225153152D02*
X174568905Y-225057914D01*
X174568905Y-225057914D02*
X174568905Y-225010295D01*
X174568905Y-225010295D02*
X174616524Y-224915057D01*
X174616524Y-224915057D02*
X174664143Y-224867438D01*
X174664143Y-224867438D02*
X174759381Y-224819819D01*
X174759381Y-224819819D02*
X174949857Y-224819819D01*
X174949857Y-224819819D02*
X175045095Y-224867438D01*
X175045095Y-224867438D02*
X175092714Y-224915057D01*
X175092714Y-224915057D02*
X175140333Y-225010295D01*
X175140333Y-225010295D02*
X175140333Y-225057914D01*
X175140333Y-225057914D02*
X175092714Y-225153152D01*
X175092714Y-225153152D02*
X175045095Y-225200771D01*
X175045095Y-225200771D02*
X174949857Y-225248390D01*
X174949857Y-225248390D02*
X174759381Y-225248390D01*
X174759381Y-225248390D02*
X174664143Y-225296009D01*
X174664143Y-225296009D02*
X174616524Y-225343628D01*
X174616524Y-225343628D02*
X174568905Y-225438866D01*
X174568905Y-225438866D02*
X174568905Y-225629342D01*
X174568905Y-225629342D02*
X174616524Y-225724580D01*
X174616524Y-225724580D02*
X174664143Y-225772200D01*
X174664143Y-225772200D02*
X174759381Y-225819819D01*
X174759381Y-225819819D02*
X174949857Y-225819819D01*
X174949857Y-225819819D02*
X175045095Y-225772200D01*
X175045095Y-225772200D02*
X175092714Y-225724580D01*
X175092714Y-225724580D02*
X175140333Y-225629342D01*
X175140333Y-225629342D02*
X175140333Y-225438866D01*
X175140333Y-225438866D02*
X175092714Y-225343628D01*
X175092714Y-225343628D02*
X175045095Y-225296009D01*
X175045095Y-225296009D02*
X174949857Y-225248390D01*
X182473667Y-235022200D02*
X182616524Y-235069819D01*
X182616524Y-235069819D02*
X182854619Y-235069819D01*
X182854619Y-235069819D02*
X182949857Y-235022200D01*
X182949857Y-235022200D02*
X182997476Y-234974580D01*
X182997476Y-234974580D02*
X183045095Y-234879342D01*
X183045095Y-234879342D02*
X183045095Y-234784104D01*
X183045095Y-234784104D02*
X182997476Y-234688866D01*
X182997476Y-234688866D02*
X182949857Y-234641247D01*
X182949857Y-234641247D02*
X182854619Y-234593628D01*
X182854619Y-234593628D02*
X182664143Y-234546009D01*
X182664143Y-234546009D02*
X182568905Y-234498390D01*
X182568905Y-234498390D02*
X182521286Y-234450771D01*
X182521286Y-234450771D02*
X182473667Y-234355533D01*
X182473667Y-234355533D02*
X182473667Y-234260295D01*
X182473667Y-234260295D02*
X182521286Y-234165057D01*
X182521286Y-234165057D02*
X182568905Y-234117438D01*
X182568905Y-234117438D02*
X182664143Y-234069819D01*
X182664143Y-234069819D02*
X182902238Y-234069819D01*
X182902238Y-234069819D02*
X183045095Y-234117438D01*
X183378429Y-234069819D02*
X183616524Y-235069819D01*
X183616524Y-235069819D02*
X183807000Y-234355533D01*
X183807000Y-234355533D02*
X183997476Y-235069819D01*
X183997476Y-235069819D02*
X184235572Y-234069819D01*
X184521286Y-234069819D02*
X185187952Y-234069819D01*
X185187952Y-234069819D02*
X184759381Y-235069819D01*
X192223667Y-225772200D02*
X192366524Y-225819819D01*
X192366524Y-225819819D02*
X192604619Y-225819819D01*
X192604619Y-225819819D02*
X192699857Y-225772200D01*
X192699857Y-225772200D02*
X192747476Y-225724580D01*
X192747476Y-225724580D02*
X192795095Y-225629342D01*
X192795095Y-225629342D02*
X192795095Y-225534104D01*
X192795095Y-225534104D02*
X192747476Y-225438866D01*
X192747476Y-225438866D02*
X192699857Y-225391247D01*
X192699857Y-225391247D02*
X192604619Y-225343628D01*
X192604619Y-225343628D02*
X192414143Y-225296009D01*
X192414143Y-225296009D02*
X192318905Y-225248390D01*
X192318905Y-225248390D02*
X192271286Y-225200771D01*
X192271286Y-225200771D02*
X192223667Y-225105533D01*
X192223667Y-225105533D02*
X192223667Y-225010295D01*
X192223667Y-225010295D02*
X192271286Y-224915057D01*
X192271286Y-224915057D02*
X192318905Y-224867438D01*
X192318905Y-224867438D02*
X192414143Y-224819819D01*
X192414143Y-224819819D02*
X192652238Y-224819819D01*
X192652238Y-224819819D02*
X192795095Y-224867438D01*
X193128429Y-224819819D02*
X193366524Y-225819819D01*
X193366524Y-225819819D02*
X193557000Y-225105533D01*
X193557000Y-225105533D02*
X193747476Y-225819819D01*
X193747476Y-225819819D02*
X193985572Y-224819819D01*
X194414143Y-225819819D02*
X194604619Y-225819819D01*
X194604619Y-225819819D02*
X194699857Y-225772200D01*
X194699857Y-225772200D02*
X194747476Y-225724580D01*
X194747476Y-225724580D02*
X194842714Y-225581723D01*
X194842714Y-225581723D02*
X194890333Y-225391247D01*
X194890333Y-225391247D02*
X194890333Y-225010295D01*
X194890333Y-225010295D02*
X194842714Y-224915057D01*
X194842714Y-224915057D02*
X194795095Y-224867438D01*
X194795095Y-224867438D02*
X194699857Y-224819819D01*
X194699857Y-224819819D02*
X194509381Y-224819819D01*
X194509381Y-224819819D02*
X194414143Y-224867438D01*
X194414143Y-224867438D02*
X194366524Y-224915057D01*
X194366524Y-224915057D02*
X194318905Y-225010295D01*
X194318905Y-225010295D02*
X194318905Y-225248390D01*
X194318905Y-225248390D02*
X194366524Y-225343628D01*
X194366524Y-225343628D02*
X194414143Y-225391247D01*
X194414143Y-225391247D02*
X194509381Y-225438866D01*
X194509381Y-225438866D02*
X194699857Y-225438866D01*
X194699857Y-225438866D02*
X194795095Y-225391247D01*
X194795095Y-225391247D02*
X194842714Y-225343628D01*
X194842714Y-225343628D02*
X194890333Y-225248390D01*
X212247476Y-212959819D02*
X212247476Y-213674104D01*
X212247476Y-213674104D02*
X212199857Y-213816961D01*
X212199857Y-213816961D02*
X212104619Y-213912200D01*
X212104619Y-213912200D02*
X211961762Y-213959819D01*
X211961762Y-213959819D02*
X211866524Y-213959819D01*
X213247476Y-213959819D02*
X212676048Y-213959819D01*
X212961762Y-213959819D02*
X212961762Y-212959819D01*
X212961762Y-212959819D02*
X212866524Y-213102676D01*
X212866524Y-213102676D02*
X212771286Y-213197914D01*
X212771286Y-213197914D02*
X212676048Y-213245533D01*
X213866524Y-212959819D02*
X213961762Y-212959819D01*
X213961762Y-212959819D02*
X214057000Y-213007438D01*
X214057000Y-213007438D02*
X214104619Y-213055057D01*
X214104619Y-213055057D02*
X214152238Y-213150295D01*
X214152238Y-213150295D02*
X214199857Y-213340771D01*
X214199857Y-213340771D02*
X214199857Y-213578866D01*
X214199857Y-213578866D02*
X214152238Y-213769342D01*
X214152238Y-213769342D02*
X214104619Y-213864580D01*
X214104619Y-213864580D02*
X214057000Y-213912200D01*
X214057000Y-213912200D02*
X213961762Y-213959819D01*
X213961762Y-213959819D02*
X213866524Y-213959819D01*
X213866524Y-213959819D02*
X213771286Y-213912200D01*
X213771286Y-213912200D02*
X213723667Y-213864580D01*
X213723667Y-213864580D02*
X213676048Y-213769342D01*
X213676048Y-213769342D02*
X213628429Y-213578866D01*
X213628429Y-213578866D02*
X213628429Y-213340771D01*
X213628429Y-213340771D02*
X213676048Y-213150295D01*
X213676048Y-213150295D02*
X213723667Y-213055057D01*
X213723667Y-213055057D02*
X213771286Y-213007438D01*
X213771286Y-213007438D02*
X213866524Y-212959819D01*
%TO.C,SW12*%
D12*
X168807000Y-251595000D02*
X168807000Y-253095000D01*
X170057000Y-255595000D02*
X174557000Y-255595000D01*
X174557000Y-249095000D02*
X170057000Y-249095000D01*
X175807000Y-253095000D02*
X175807000Y-251595000D01*
%TO.C,JM2*%
D11*
X150746254Y-185301221D02*
X190746254Y-185301221D01*
X150746254Y-212301221D02*
X150746254Y-185301221D01*
X190746254Y-185301221D02*
X190746254Y-212301221D01*
X190746254Y-212301221D02*
X150746254Y-212301221D01*
%TO.C,J3*%
D12*
X193967000Y-190915000D02*
X193967000Y-203735000D01*
X193967000Y-190915000D02*
X202597000Y-190915000D01*
X193967000Y-191035000D02*
X202597000Y-191035000D01*
X193967000Y-191153095D02*
X202597000Y-191153095D01*
X193967000Y-191271190D02*
X202597000Y-191271190D01*
X193967000Y-191389286D02*
X202597000Y-191389286D01*
X193967000Y-191507381D02*
X202597000Y-191507381D01*
X193967000Y-191625476D02*
X202597000Y-191625476D01*
X193967000Y-191743571D02*
X202597000Y-191743571D01*
X193967000Y-191861667D02*
X202597000Y-191861667D01*
X193967000Y-191979762D02*
X202597000Y-191979762D01*
X193967000Y-192097857D02*
X202597000Y-192097857D01*
X193967000Y-192215952D02*
X202597000Y-192215952D01*
X193967000Y-192334048D02*
X202597000Y-192334048D01*
X193967000Y-192452143D02*
X202597000Y-192452143D01*
X193967000Y-192570238D02*
X202597000Y-192570238D01*
X193967000Y-192688333D02*
X202597000Y-192688333D01*
X193967000Y-192806429D02*
X202597000Y-192806429D01*
X193967000Y-192924524D02*
X202597000Y-192924524D01*
X193967000Y-193042619D02*
X202597000Y-193042619D01*
X193967000Y-193160714D02*
X202597000Y-193160714D01*
X193967000Y-193278810D02*
X202597000Y-193278810D01*
X193967000Y-193396905D02*
X202597000Y-193396905D01*
X193967000Y-193515000D02*
X202597000Y-193515000D01*
X193967000Y-196055000D02*
X202597000Y-196055000D01*
X193967000Y-198595000D02*
X202597000Y-198595000D01*
X193967000Y-201135000D02*
X202597000Y-201135000D01*
X193967000Y-203735000D02*
X202597000Y-203735000D01*
X202597000Y-190915000D02*
X202597000Y-203735000D01*
X202597000Y-191885000D02*
X202947000Y-191885000D01*
X202597000Y-192605000D02*
X202947000Y-192605000D01*
X202597000Y-194425000D02*
X203007000Y-194425000D01*
X202597000Y-195145000D02*
X203007000Y-195145000D01*
X202597000Y-196965000D02*
X203007000Y-196965000D01*
X202597000Y-197685000D02*
X203007000Y-197685000D01*
X202597000Y-199505000D02*
X203007000Y-199505000D01*
X202597000Y-200225000D02*
X203007000Y-200225000D01*
X202597000Y-202045000D02*
X203007000Y-202045000D01*
X202597000Y-202765000D02*
X203007000Y-202765000D01*
X204057000Y-190915000D02*
X205167000Y-190915000D01*
X205167000Y-190915000D02*
X205167000Y-192245000D01*
%TO.C,SW6*%
X180307000Y-220115000D02*
X180307000Y-221615000D01*
X181557000Y-224115000D02*
X186057000Y-224115000D01*
X186057000Y-217615000D02*
X181557000Y-217615000D01*
X187307000Y-221615000D02*
X187307000Y-220115000D01*
%TO.C,SW13*%
X192057000Y-251845000D02*
X192057000Y-253345000D01*
X193307000Y-255845000D02*
X197807000Y-255845000D01*
X197807000Y-249345000D02*
X193307000Y-249345000D01*
X199057000Y-253345000D02*
X199057000Y-251845000D01*
%TO.C,SW8*%
X170307000Y-228865000D02*
X170307000Y-230365000D01*
X171557000Y-232865000D02*
X176057000Y-232865000D01*
X176057000Y-226365000D02*
X171557000Y-226365000D01*
X177307000Y-230365000D02*
X177307000Y-228865000D01*
%TO.C,SW7*%
X180307000Y-238115000D02*
X180307000Y-239615000D01*
X181557000Y-242115000D02*
X186057000Y-242115000D01*
X186057000Y-235615000D02*
X181557000Y-235615000D01*
X187307000Y-239615000D02*
X187307000Y-238115000D01*
%TO.C,SW9*%
X190057000Y-228865000D02*
X190057000Y-230365000D01*
X191307000Y-232865000D02*
X195807000Y-232865000D01*
X195807000Y-226365000D02*
X191307000Y-226365000D01*
X197057000Y-230365000D02*
X197057000Y-228865000D01*
%TO.C,J10*%
X212312000Y-214380000D02*
X213057000Y-214380000D01*
X212312000Y-215115000D02*
X212312000Y-214380000D01*
X212312000Y-215850000D02*
X212312000Y-226725000D01*
X212312000Y-215850000D02*
X212371435Y-215850000D01*
X212312000Y-226725000D02*
X212646970Y-226725000D01*
X213467030Y-226725000D02*
X213802000Y-226725000D01*
X213742565Y-215850000D02*
X213802000Y-215850000D01*
X213802000Y-215850000D02*
X213802000Y-226725000D01*
%TD*%
M02*
