M48
; DRILL file KiCad 10.0.1 date 2026-05-09T17:32:56
; FORMAT={-:-/ absolute / metric / decimal}
; #@! TF.CreationDate,2026-05-09T17:32:56+05:30
; #@! TF.GenerationSoftware,Kicad,Pcbnew,10.0.1
; #@! TF.FileFunction,Plated,1,2,PTH
FMAT,2
METRIC
; #@! TA.AperFunction,Plated,PTH,ViaDrill
T1C0.300
; #@! TA.AperFunction,Plated,PTH,ComponentDrill
T2C0.500
; #@! TA.AperFunction,Plated,PTH,ComponentDrill
T3C1.000
; #@! TA.AperFunction,Plated,PTH,ComponentDrill
T4C1.100
%
G90
G05
T1
X163.557Y-228.865
X190.807Y-236.865
X194.057Y-221.365
X198.557Y-245.365
X200.432Y-250.365
X203.807Y-221.115
X204.057Y-236.865
X204.057Y-250.365
X205.807Y-242.365
X209.307Y-213.615
X209.307Y-245.365
X213.807Y-207.365
X214.807Y-209.615
T2
X213.057Y-215.115
X213.057Y-216.115
X213.057Y-217.115
X213.057Y-218.115
X213.057Y-219.115
X213.057Y-220.115
X213.057Y-221.115
X213.057Y-222.115
X213.057Y-223.115
X213.057Y-224.115
X213.057Y-225.115
X213.057Y-226.115
T3
X204.057Y-192.245
X204.057Y-194.785
X204.057Y-197.325
X204.057Y-199.865
X204.057Y-202.405
T4
X169.057Y-250.095
X169.057Y-254.595
X170.557Y-227.365
X170.557Y-231.865
X175.557Y-250.095
X175.557Y-254.595
X177.057Y-227.365
X177.057Y-231.865
X180.557Y-218.615
X180.557Y-223.115
X180.557Y-236.615
X180.557Y-241.115
X187.057Y-218.615
X187.057Y-223.115
X187.057Y-236.615
X187.057Y-241.115
X190.307Y-227.365
X190.307Y-231.865
X192.307Y-250.345
X192.307Y-254.845
X196.807Y-227.365
X196.807Y-231.865
X198.807Y-250.345
X198.807Y-254.845
M30
