%TF.GenerationSoftware,KiCad,Pcbnew,10.0.1*%
%TF.CreationDate,2026-05-09T17:32:53+05:30*%
%TF.ProjectId,Handheld Gaming device PCB,48616e64-6865-46c6-9420-47616d696e67,rev?*%
%TF.SameCoordinates,Original*%
%TF.FileFunction,Soldermask,Top*%
%TF.FilePolarity,Negative*%
%FSLAX46Y46*%
G04 Gerber Fmt 4.6, Leading zero omitted, Abs format (unit mm)*
G04 Created by KiCad (PCBNEW 10.0.1) date 2026-05-09 17:32:53*
%MOMM*%
%LPD*%
G01*
G04 APERTURE LIST*
%ADD10C,2.000000*%
%ADD11R,1.700000X1.700000*%
%ADD12C,1.700000*%
%ADD13R,0.850000X0.850000*%
%ADD14C,0.850000*%
G04 APERTURE END LIST*
D10*
%TO.C,SW12*%
X169057000Y-250095000D03*
X175557000Y-250095000D03*
X169057000Y-254595000D03*
X175557000Y-254595000D03*
%TD*%
D11*
%TO.C,J3*%
X204057000Y-192245000D03*
D12*
X204057000Y-194785000D03*
X204057000Y-197325000D03*
X204057000Y-199865000D03*
X204057000Y-202405000D03*
%TD*%
D10*
%TO.C,SW6*%
X180557000Y-218615000D03*
X187057000Y-218615000D03*
X180557000Y-223115000D03*
X187057000Y-223115000D03*
%TD*%
%TO.C,SW13*%
X192307000Y-250345000D03*
X198807000Y-250345000D03*
X192307000Y-254845000D03*
X198807000Y-254845000D03*
%TD*%
%TO.C,SW8*%
X170557000Y-227365000D03*
X177057000Y-227365000D03*
X170557000Y-231865000D03*
X177057000Y-231865000D03*
%TD*%
%TO.C,SW7*%
X180557000Y-236615000D03*
X187057000Y-236615000D03*
X180557000Y-241115000D03*
X187057000Y-241115000D03*
%TD*%
%TO.C,SW9*%
X190307000Y-227365000D03*
X196807000Y-227365000D03*
X190307000Y-231865000D03*
X196807000Y-231865000D03*
%TD*%
D13*
%TO.C,J10*%
X213057000Y-215115000D03*
D14*
X213057000Y-216115000D03*
X213057000Y-217115000D03*
X213057000Y-218115000D03*
X213057000Y-219115000D03*
X213057000Y-220115000D03*
X213057000Y-221115000D03*
X213057000Y-222115000D03*
X213057000Y-223115000D03*
X213057000Y-224115000D03*
X213057000Y-225115000D03*
X213057000Y-226115000D03*
%TD*%
M02*
