M48
; DRILL file KiCad 10.0.1 date 2026-05-09T17:34:39
; FORMAT={-:-/ absolute / metric / decimal}
; #@! TF.CreationDate,2026-05-09T17:34:39+05:30
; #@! TF.GenerationSoftware,Kicad,Pcbnew,10.0.1
; #@! TF.FileFunction,Plated,1,2,PTH
FMAT,2
METRIC
; #@! TA.AperFunction,Plated,PTH,ViaDrill
T1C0.300
; #@! TA.AperFunction,Plated,PTH,ComponentDrill
T2C0.500
; #@! TA.AperFunction,Plated,PTH,ComponentDrill
T3C1.000
; #@! TA.AperFunction,Plated,PTH,ComponentDrill
T4C1.100
%
G90
G05
T1
X646.482Y-301.942
X646.732Y-293.692
X646.732Y-302.942
X646.982Y-303.942
X647.732Y-315.192
X653.732Y-303.942
X655.732Y-302.942
X658.232Y-315.192
T2
X641.982Y-294.942
X641.982Y-295.942
X641.982Y-296.942
X641.982Y-297.942
X641.982Y-298.942
X641.982Y-299.942
X641.982Y-300.942
X641.982Y-301.942
X641.982Y-302.942
X641.982Y-303.942
X641.982Y-304.942
X641.982Y-305.942
T3
X653.482Y-273.282
X653.482Y-275.822
X653.482Y-278.362
X653.482Y-280.902
X653.482Y-283.442
T4
X659.732Y-304.942
X659.732Y-309.442
X666.232Y-304.942
X666.232Y-309.442
X669.232Y-296.192
X669.232Y-300.692
X669.482Y-313.442
X669.482Y-317.942
X675.732Y-296.192
X675.732Y-300.692
X675.982Y-313.442
X675.982Y-317.942
X678.732Y-304.692
X678.732Y-309.192
X685.232Y-304.692
X685.232Y-309.192
M30
