%TF.GenerationSoftware,KiCad,Pcbnew,10.0.1*%
%TF.CreationDate,2026-05-09T17:34:37+05:30*%
%TF.ProjectId,Handheld Gaming device PCB,48616e64-6865-46c6-9420-47616d696e67,rev?*%
%TF.SameCoordinates,Original*%
%TF.FileFunction,Soldermask,Bot*%
%TF.FilePolarity,Negative*%
%FSLAX46Y46*%
G04 Gerber Fmt 4.6, Leading zero omitted, Abs format (unit mm)*
G04 Created by KiCad (PCBNEW 10.0.1) date 2026-05-09 17:34:37*
%MOMM*%
%LPD*%
G01*
G04 APERTURE LIST*
G04 Aperture macros list*
%AMRoundRect*
0 Rectangle with rounded corners*
0 $1 Rounding radius*
0 $2 $3 $4 $5 $6 $7 $8 $9 X,Y pos of 4 corners*
0 Add a 4 corners polygon primitive as box body*
4,1,4,$2,$3,$4,$5,$6,$7,$8,$9,$2,$3,0*
0 Add four circle primitives for the rounded corners*
1,1,$1+$1,$2,$3*
1,1,$1+$1,$4,$5*
1,1,$1+$1,$6,$7*
1,1,$1+$1,$8,$9*
0 Add four rect primitives between the rounded corners*
20,1,$1+$1,$2,$3,$4,$5,0*
20,1,$1+$1,$4,$5,$6,$7,0*
20,1,$1+$1,$6,$7,$8,$9,0*
20,1,$1+$1,$8,$9,$2,$3,0*%
G04 Aperture macros list end*
%ADD10RoundRect,0.135000X-0.185000X0.135000X-0.185000X-0.135000X0.185000X-0.135000X0.185000X0.135000X0*%
%ADD11C,2.000000*%
%ADD12R,0.850000X0.850000*%
%ADD13C,0.850000*%
%ADD14RoundRect,0.135000X-0.135000X-0.185000X0.135000X-0.185000X0.135000X0.185000X-0.135000X0.185000X0*%
%ADD15RoundRect,0.135000X0.135000X0.185000X-0.135000X0.185000X-0.135000X-0.185000X0.135000X-0.185000X0*%
%ADD16R,1.700000X1.700000*%
%ADD17C,1.700000*%
%ADD18RoundRect,0.135000X0.185000X-0.135000X0.185000X0.135000X-0.185000X0.135000X-0.185000X-0.135000X0*%
G04 APERTURE END LIST*
D10*
%TO.C,R8*%
X655982000Y-306922000D03*
X655982000Y-307942000D03*
%TD*%
D11*
%TO.C,SW4*%
X659732000Y-304942000D03*
X666232000Y-304942000D03*
X659732000Y-309442000D03*
X666232000Y-309442000D03*
%TD*%
D12*
%TO.C,J11*%
X641982000Y-294942000D03*
D13*
X641982000Y-295942000D03*
X641982000Y-296942000D03*
X641982000Y-297942000D03*
X641982000Y-298942000D03*
X641982000Y-299942000D03*
X641982000Y-300942000D03*
X641982000Y-301942000D03*
X641982000Y-302942000D03*
X641982000Y-303942000D03*
X641982000Y-304942000D03*
X641982000Y-305942000D03*
%TD*%
D11*
%TO.C,SW5*%
X669232000Y-296192000D03*
X675732000Y-296192000D03*
X669232000Y-300692000D03*
X675732000Y-300692000D03*
%TD*%
%TO.C,SW2*%
X669482000Y-313442000D03*
X675982000Y-313442000D03*
X669482000Y-317942000D03*
X675982000Y-317942000D03*
%TD*%
D14*
%TO.C,R27*%
X642732000Y-274442000D03*
X643752000Y-274442000D03*
%TD*%
D15*
%TO.C,R29*%
X648732000Y-274442000D03*
X647712000Y-274442000D03*
%TD*%
D10*
%TO.C,R6*%
X665732000Y-315672000D03*
X665732000Y-316692000D03*
%TD*%
D16*
%TO.C,J4*%
X653482000Y-283442000D03*
D17*
X653482000Y-280902000D03*
X653482000Y-278362000D03*
X653482000Y-275822000D03*
X653482000Y-273282000D03*
%TD*%
D14*
%TO.C,R28*%
X647712000Y-278442000D03*
X648732000Y-278442000D03*
%TD*%
D15*
%TO.C,R26*%
X643732000Y-278442000D03*
X642712000Y-278442000D03*
%TD*%
D11*
%TO.C,SW3*%
X678732000Y-304692000D03*
X685232000Y-304692000D03*
X678732000Y-309192000D03*
X685232000Y-309192000D03*
%TD*%
D18*
%TO.C,R7*%
X688732000Y-307442000D03*
X688732000Y-306422000D03*
%TD*%
D10*
%TO.C,R9*%
X665482000Y-297922000D03*
X665482000Y-298942000D03*
%TD*%
M02*
