%TF.GenerationSoftware,KiCad,Pcbnew,10.0.1*%
%TF.CreationDate,2026-05-09T17:34:37+05:30*%
%TF.ProjectId,Handheld Gaming device PCB,48616e64-6865-46c6-9420-47616d696e67,rev?*%
%TF.SameCoordinates,Original*%
%TF.FileFunction,Legend,Top*%
%TF.FilePolarity,Positive*%
%FSLAX46Y46*%
G04 Gerber Fmt 4.6, Leading zero omitted, Abs format (unit mm)*
G04 Created by KiCad (PCBNEW 10.0.1) date 2026-05-09 17:34:37*
%MOMM*%
%LPD*%
G01*
G04 APERTURE LIST*
%ADD10C,0.150000*%
%ADD11C,0.100000*%
%ADD12C,0.120000*%
G04 APERTURE END LIST*
D10*
X661648667Y-303349200D02*
X661791524Y-303396819D01*
X661791524Y-303396819D02*
X662029619Y-303396819D01*
X662029619Y-303396819D02*
X662124857Y-303349200D01*
X662124857Y-303349200D02*
X662172476Y-303301580D01*
X662172476Y-303301580D02*
X662220095Y-303206342D01*
X662220095Y-303206342D02*
X662220095Y-303111104D01*
X662220095Y-303111104D02*
X662172476Y-303015866D01*
X662172476Y-303015866D02*
X662124857Y-302968247D01*
X662124857Y-302968247D02*
X662029619Y-302920628D01*
X662029619Y-302920628D02*
X661839143Y-302873009D01*
X661839143Y-302873009D02*
X661743905Y-302825390D01*
X661743905Y-302825390D02*
X661696286Y-302777771D01*
X661696286Y-302777771D02*
X661648667Y-302682533D01*
X661648667Y-302682533D02*
X661648667Y-302587295D01*
X661648667Y-302587295D02*
X661696286Y-302492057D01*
X661696286Y-302492057D02*
X661743905Y-302444438D01*
X661743905Y-302444438D02*
X661839143Y-302396819D01*
X661839143Y-302396819D02*
X662077238Y-302396819D01*
X662077238Y-302396819D02*
X662220095Y-302444438D01*
X662553429Y-302396819D02*
X662791524Y-303396819D01*
X662791524Y-303396819D02*
X662982000Y-302682533D01*
X662982000Y-302682533D02*
X663172476Y-303396819D01*
X663172476Y-303396819D02*
X663410572Y-302396819D01*
X664220095Y-302730152D02*
X664220095Y-303396819D01*
X663982000Y-302349200D02*
X663743905Y-303063485D01*
X663743905Y-303063485D02*
X664362952Y-303063485D01*
X640922476Y-292396819D02*
X640922476Y-293111104D01*
X640922476Y-293111104D02*
X640874857Y-293253961D01*
X640874857Y-293253961D02*
X640779619Y-293349200D01*
X640779619Y-293349200D02*
X640636762Y-293396819D01*
X640636762Y-293396819D02*
X640541524Y-293396819D01*
X641922476Y-293396819D02*
X641351048Y-293396819D01*
X641636762Y-293396819D02*
X641636762Y-292396819D01*
X641636762Y-292396819D02*
X641541524Y-292539676D01*
X641541524Y-292539676D02*
X641446286Y-292634914D01*
X641446286Y-292634914D02*
X641351048Y-292682533D01*
X642874857Y-293396819D02*
X642303429Y-293396819D01*
X642589143Y-293396819D02*
X642589143Y-292396819D01*
X642589143Y-292396819D02*
X642493905Y-292539676D01*
X642493905Y-292539676D02*
X642398667Y-292634914D01*
X642398667Y-292634914D02*
X642303429Y-292682533D01*
X671148667Y-294599200D02*
X671291524Y-294646819D01*
X671291524Y-294646819D02*
X671529619Y-294646819D01*
X671529619Y-294646819D02*
X671624857Y-294599200D01*
X671624857Y-294599200D02*
X671672476Y-294551580D01*
X671672476Y-294551580D02*
X671720095Y-294456342D01*
X671720095Y-294456342D02*
X671720095Y-294361104D01*
X671720095Y-294361104D02*
X671672476Y-294265866D01*
X671672476Y-294265866D02*
X671624857Y-294218247D01*
X671624857Y-294218247D02*
X671529619Y-294170628D01*
X671529619Y-294170628D02*
X671339143Y-294123009D01*
X671339143Y-294123009D02*
X671243905Y-294075390D01*
X671243905Y-294075390D02*
X671196286Y-294027771D01*
X671196286Y-294027771D02*
X671148667Y-293932533D01*
X671148667Y-293932533D02*
X671148667Y-293837295D01*
X671148667Y-293837295D02*
X671196286Y-293742057D01*
X671196286Y-293742057D02*
X671243905Y-293694438D01*
X671243905Y-293694438D02*
X671339143Y-293646819D01*
X671339143Y-293646819D02*
X671577238Y-293646819D01*
X671577238Y-293646819D02*
X671720095Y-293694438D01*
X672053429Y-293646819D02*
X672291524Y-294646819D01*
X672291524Y-294646819D02*
X672482000Y-293932533D01*
X672482000Y-293932533D02*
X672672476Y-294646819D01*
X672672476Y-294646819D02*
X672910572Y-293646819D01*
X673767714Y-293646819D02*
X673291524Y-293646819D01*
X673291524Y-293646819D02*
X673243905Y-294123009D01*
X673243905Y-294123009D02*
X673291524Y-294075390D01*
X673291524Y-294075390D02*
X673386762Y-294027771D01*
X673386762Y-294027771D02*
X673624857Y-294027771D01*
X673624857Y-294027771D02*
X673720095Y-294075390D01*
X673720095Y-294075390D02*
X673767714Y-294123009D01*
X673767714Y-294123009D02*
X673815333Y-294218247D01*
X673815333Y-294218247D02*
X673815333Y-294456342D01*
X673815333Y-294456342D02*
X673767714Y-294551580D01*
X673767714Y-294551580D02*
X673720095Y-294599200D01*
X673720095Y-294599200D02*
X673624857Y-294646819D01*
X673624857Y-294646819D02*
X673386762Y-294646819D01*
X673386762Y-294646819D02*
X673291524Y-294599200D01*
X673291524Y-294599200D02*
X673243905Y-294551580D01*
X671398667Y-311849200D02*
X671541524Y-311896819D01*
X671541524Y-311896819D02*
X671779619Y-311896819D01*
X671779619Y-311896819D02*
X671874857Y-311849200D01*
X671874857Y-311849200D02*
X671922476Y-311801580D01*
X671922476Y-311801580D02*
X671970095Y-311706342D01*
X671970095Y-311706342D02*
X671970095Y-311611104D01*
X671970095Y-311611104D02*
X671922476Y-311515866D01*
X671922476Y-311515866D02*
X671874857Y-311468247D01*
X671874857Y-311468247D02*
X671779619Y-311420628D01*
X671779619Y-311420628D02*
X671589143Y-311373009D01*
X671589143Y-311373009D02*
X671493905Y-311325390D01*
X671493905Y-311325390D02*
X671446286Y-311277771D01*
X671446286Y-311277771D02*
X671398667Y-311182533D01*
X671398667Y-311182533D02*
X671398667Y-311087295D01*
X671398667Y-311087295D02*
X671446286Y-310992057D01*
X671446286Y-310992057D02*
X671493905Y-310944438D01*
X671493905Y-310944438D02*
X671589143Y-310896819D01*
X671589143Y-310896819D02*
X671827238Y-310896819D01*
X671827238Y-310896819D02*
X671970095Y-310944438D01*
X672303429Y-310896819D02*
X672541524Y-311896819D01*
X672541524Y-311896819D02*
X672732000Y-311182533D01*
X672732000Y-311182533D02*
X672922476Y-311896819D01*
X672922476Y-311896819D02*
X673160572Y-310896819D01*
X673493905Y-310992057D02*
X673541524Y-310944438D01*
X673541524Y-310944438D02*
X673636762Y-310896819D01*
X673636762Y-310896819D02*
X673874857Y-310896819D01*
X673874857Y-310896819D02*
X673970095Y-310944438D01*
X673970095Y-310944438D02*
X674017714Y-310992057D01*
X674017714Y-310992057D02*
X674065333Y-311087295D01*
X674065333Y-311087295D02*
X674065333Y-311182533D01*
X674065333Y-311182533D02*
X674017714Y-311325390D01*
X674017714Y-311325390D02*
X673446286Y-311896819D01*
X673446286Y-311896819D02*
X674065333Y-311896819D01*
X658148666Y-285646819D02*
X658148666Y-286361104D01*
X658148666Y-286361104D02*
X658101047Y-286503961D01*
X658101047Y-286503961D02*
X658005809Y-286599200D01*
X658005809Y-286599200D02*
X657862952Y-286646819D01*
X657862952Y-286646819D02*
X657767714Y-286646819D01*
X659053428Y-285980152D02*
X659053428Y-286646819D01*
X658815333Y-285599200D02*
X658577238Y-286313485D01*
X658577238Y-286313485D02*
X659196285Y-286313485D01*
D11*
X683577238Y-275649419D02*
X683577238Y-276363704D01*
X683577238Y-276363704D02*
X683529619Y-276506561D01*
X683529619Y-276506561D02*
X683434381Y-276601800D01*
X683434381Y-276601800D02*
X683291524Y-276649419D01*
X683291524Y-276649419D02*
X683196286Y-276649419D01*
X684053429Y-276649419D02*
X684053429Y-275649419D01*
X684053429Y-275649419D02*
X684386762Y-276363704D01*
X684386762Y-276363704D02*
X684720095Y-275649419D01*
X684720095Y-275649419D02*
X684720095Y-276649419D01*
X685720095Y-276649419D02*
X685148667Y-276649419D01*
X685434381Y-276649419D02*
X685434381Y-275649419D01*
X685434381Y-275649419D02*
X685339143Y-275792276D01*
X685339143Y-275792276D02*
X685243905Y-275887514D01*
X685243905Y-275887514D02*
X685148667Y-275935133D01*
D10*
X680648667Y-303099200D02*
X680791524Y-303146819D01*
X680791524Y-303146819D02*
X681029619Y-303146819D01*
X681029619Y-303146819D02*
X681124857Y-303099200D01*
X681124857Y-303099200D02*
X681172476Y-303051580D01*
X681172476Y-303051580D02*
X681220095Y-302956342D01*
X681220095Y-302956342D02*
X681220095Y-302861104D01*
X681220095Y-302861104D02*
X681172476Y-302765866D01*
X681172476Y-302765866D02*
X681124857Y-302718247D01*
X681124857Y-302718247D02*
X681029619Y-302670628D01*
X681029619Y-302670628D02*
X680839143Y-302623009D01*
X680839143Y-302623009D02*
X680743905Y-302575390D01*
X680743905Y-302575390D02*
X680696286Y-302527771D01*
X680696286Y-302527771D02*
X680648667Y-302432533D01*
X680648667Y-302432533D02*
X680648667Y-302337295D01*
X680648667Y-302337295D02*
X680696286Y-302242057D01*
X680696286Y-302242057D02*
X680743905Y-302194438D01*
X680743905Y-302194438D02*
X680839143Y-302146819D01*
X680839143Y-302146819D02*
X681077238Y-302146819D01*
X681077238Y-302146819D02*
X681220095Y-302194438D01*
X681553429Y-302146819D02*
X681791524Y-303146819D01*
X681791524Y-303146819D02*
X681982000Y-302432533D01*
X681982000Y-302432533D02*
X682172476Y-303146819D01*
X682172476Y-303146819D02*
X682410572Y-302146819D01*
X682696286Y-302146819D02*
X683315333Y-302146819D01*
X683315333Y-302146819D02*
X682982000Y-302527771D01*
X682982000Y-302527771D02*
X683124857Y-302527771D01*
X683124857Y-302527771D02*
X683220095Y-302575390D01*
X683220095Y-302575390D02*
X683267714Y-302623009D01*
X683267714Y-302623009D02*
X683315333Y-302718247D01*
X683315333Y-302718247D02*
X683315333Y-302956342D01*
X683315333Y-302956342D02*
X683267714Y-303051580D01*
X683267714Y-303051580D02*
X683220095Y-303099200D01*
X683220095Y-303099200D02*
X683124857Y-303146819D01*
X683124857Y-303146819D02*
X682839143Y-303146819D01*
X682839143Y-303146819D02*
X682743905Y-303099200D01*
X682743905Y-303099200D02*
X682696286Y-303051580D01*
%TO.C,SW4*%
D12*
X659482000Y-306442000D02*
X659482000Y-307942000D01*
X660732000Y-310442000D02*
X665232000Y-310442000D01*
X665232000Y-303942000D02*
X660732000Y-303942000D01*
X666482000Y-307942000D02*
X666482000Y-306442000D01*
%TO.C,J11*%
X641237000Y-294207000D02*
X641982000Y-294207000D01*
X641237000Y-294942000D02*
X641237000Y-294207000D01*
X641237000Y-295677000D02*
X641237000Y-306552000D01*
X641237000Y-295677000D02*
X641296435Y-295677000D01*
X641237000Y-306552000D02*
X641571970Y-306552000D01*
X642392030Y-306552000D02*
X642727000Y-306552000D01*
X642667565Y-295677000D02*
X642727000Y-295677000D01*
X642727000Y-295677000D02*
X642727000Y-306552000D01*
%TO.C,SW5*%
X668982000Y-297692000D02*
X668982000Y-299192000D01*
X670232000Y-301692000D02*
X674732000Y-301692000D01*
X674732000Y-295192000D02*
X670232000Y-295192000D01*
X675982000Y-299192000D02*
X675982000Y-297692000D01*
%TO.C,SW2*%
X669232000Y-314942000D02*
X669232000Y-316442000D01*
X670482000Y-318942000D02*
X674982000Y-318942000D01*
X674982000Y-312442000D02*
X670482000Y-312442000D01*
X676232000Y-316442000D02*
X676232000Y-314942000D01*
%TO.C,J4*%
X652372000Y-284772000D02*
X652372000Y-283442000D01*
X653482000Y-284772000D02*
X652372000Y-284772000D01*
X654942000Y-272922000D02*
X654532000Y-272922000D01*
X654942000Y-273642000D02*
X654532000Y-273642000D01*
X654942000Y-275462000D02*
X654532000Y-275462000D01*
X654942000Y-276182000D02*
X654532000Y-276182000D01*
X654942000Y-278002000D02*
X654532000Y-278002000D01*
X654942000Y-278722000D02*
X654532000Y-278722000D01*
X654942000Y-280542000D02*
X654532000Y-280542000D01*
X654942000Y-281262000D02*
X654532000Y-281262000D01*
X654942000Y-283082000D02*
X654592000Y-283082000D01*
X654942000Y-283802000D02*
X654592000Y-283802000D01*
X654942000Y-284772000D02*
X654942000Y-271952000D01*
X663572000Y-271952000D02*
X654942000Y-271952000D01*
X663572000Y-274552000D02*
X654942000Y-274552000D01*
X663572000Y-277092000D02*
X654942000Y-277092000D01*
X663572000Y-279632000D02*
X654942000Y-279632000D01*
X663572000Y-282172000D02*
X654942000Y-282172000D01*
X663572000Y-282290095D02*
X654942000Y-282290095D01*
X663572000Y-282408190D02*
X654942000Y-282408190D01*
X663572000Y-282526286D02*
X654942000Y-282526286D01*
X663572000Y-282644381D02*
X654942000Y-282644381D01*
X663572000Y-282762476D02*
X654942000Y-282762476D01*
X663572000Y-282880571D02*
X654942000Y-282880571D01*
X663572000Y-282998667D02*
X654942000Y-282998667D01*
X663572000Y-283116762D02*
X654942000Y-283116762D01*
X663572000Y-283234857D02*
X654942000Y-283234857D01*
X663572000Y-283352952D02*
X654942000Y-283352952D01*
X663572000Y-283471048D02*
X654942000Y-283471048D01*
X663572000Y-283589143D02*
X654942000Y-283589143D01*
X663572000Y-283707238D02*
X654942000Y-283707238D01*
X663572000Y-283825333D02*
X654942000Y-283825333D01*
X663572000Y-283943429D02*
X654942000Y-283943429D01*
X663572000Y-284061524D02*
X654942000Y-284061524D01*
X663572000Y-284179619D02*
X654942000Y-284179619D01*
X663572000Y-284297714D02*
X654942000Y-284297714D01*
X663572000Y-284415810D02*
X654942000Y-284415810D01*
X663572000Y-284533905D02*
X654942000Y-284533905D01*
X663572000Y-284652000D02*
X654942000Y-284652000D01*
X663572000Y-284772000D02*
X654942000Y-284772000D01*
X663572000Y-284772000D02*
X663572000Y-271952000D01*
%TO.C,JM1*%
D11*
X664648766Y-263109918D02*
X704648766Y-263109918D01*
X664648766Y-290109918D02*
X664648766Y-263109918D01*
X704648766Y-263109918D02*
X704648766Y-290109918D01*
X704648766Y-290109918D02*
X664648766Y-290109918D01*
%TO.C,SW3*%
D12*
X678482000Y-306192000D02*
X678482000Y-307692000D01*
X679732000Y-310192000D02*
X684232000Y-310192000D01*
X684232000Y-303692000D02*
X679732000Y-303692000D01*
X685482000Y-307692000D02*
X685482000Y-306192000D01*
%TD*%
M02*
