%TF.GenerationSoftware,KiCad,Pcbnew,10.0.1*%
%TF.CreationDate,2026-05-09T17:34:37+05:30*%
%TF.ProjectId,Handheld Gaming device PCB,48616e64-6865-46c6-9420-47616d696e67,rev?*%
%TF.SameCoordinates,Original*%
%TF.FileFunction,Legend,Bot*%
%TF.FilePolarity,Positive*%
%FSLAX46Y46*%
G04 Gerber Fmt 4.6, Leading zero omitted, Abs format (unit mm)*
G04 Created by KiCad (PCBNEW 10.0.1) date 2026-05-09 17:34:37*
%MOMM*%
%LPD*%
G01*
G04 APERTURE LIST*
%ADD10C,0.150000*%
%ADD11C,0.120000*%
G04 APERTURE END LIST*
D10*
X655266819Y-307265333D02*
X654790628Y-306932000D01*
X655266819Y-306693905D02*
X654266819Y-306693905D01*
X654266819Y-306693905D02*
X654266819Y-307074857D01*
X654266819Y-307074857D02*
X654314438Y-307170095D01*
X654314438Y-307170095D02*
X654362057Y-307217714D01*
X654362057Y-307217714D02*
X654457295Y-307265333D01*
X654457295Y-307265333D02*
X654600152Y-307265333D01*
X654600152Y-307265333D02*
X654695390Y-307217714D01*
X654695390Y-307217714D02*
X654743009Y-307170095D01*
X654743009Y-307170095D02*
X654790628Y-307074857D01*
X654790628Y-307074857D02*
X654790628Y-306693905D01*
X654695390Y-307836762D02*
X654647771Y-307741524D01*
X654647771Y-307741524D02*
X654600152Y-307693905D01*
X654600152Y-307693905D02*
X654504914Y-307646286D01*
X654504914Y-307646286D02*
X654457295Y-307646286D01*
X654457295Y-307646286D02*
X654362057Y-307693905D01*
X654362057Y-307693905D02*
X654314438Y-307741524D01*
X654314438Y-307741524D02*
X654266819Y-307836762D01*
X654266819Y-307836762D02*
X654266819Y-308027238D01*
X654266819Y-308027238D02*
X654314438Y-308122476D01*
X654314438Y-308122476D02*
X654362057Y-308170095D01*
X654362057Y-308170095D02*
X654457295Y-308217714D01*
X654457295Y-308217714D02*
X654504914Y-308217714D01*
X654504914Y-308217714D02*
X654600152Y-308170095D01*
X654600152Y-308170095D02*
X654647771Y-308122476D01*
X654647771Y-308122476D02*
X654695390Y-308027238D01*
X654695390Y-308027238D02*
X654695390Y-307836762D01*
X654695390Y-307836762D02*
X654743009Y-307741524D01*
X654743009Y-307741524D02*
X654790628Y-307693905D01*
X654790628Y-307693905D02*
X654885866Y-307646286D01*
X654885866Y-307646286D02*
X655076342Y-307646286D01*
X655076342Y-307646286D02*
X655171580Y-307693905D01*
X655171580Y-307693905D02*
X655219200Y-307741524D01*
X655219200Y-307741524D02*
X655266819Y-307836762D01*
X655266819Y-307836762D02*
X655266819Y-308027238D01*
X655266819Y-308027238D02*
X655219200Y-308122476D01*
X655219200Y-308122476D02*
X655171580Y-308170095D01*
X655171580Y-308170095D02*
X655076342Y-308217714D01*
X655076342Y-308217714D02*
X654885866Y-308217714D01*
X654885866Y-308217714D02*
X654790628Y-308170095D01*
X654790628Y-308170095D02*
X654743009Y-308122476D01*
X654743009Y-308122476D02*
X654695390Y-308027238D01*
X643884857Y-276066819D02*
X644218190Y-275590628D01*
X644456285Y-276066819D02*
X644456285Y-275066819D01*
X644456285Y-275066819D02*
X644075333Y-275066819D01*
X644075333Y-275066819D02*
X643980095Y-275114438D01*
X643980095Y-275114438D02*
X643932476Y-275162057D01*
X643932476Y-275162057D02*
X643884857Y-275257295D01*
X643884857Y-275257295D02*
X643884857Y-275400152D01*
X643884857Y-275400152D02*
X643932476Y-275495390D01*
X643932476Y-275495390D02*
X643980095Y-275543009D01*
X643980095Y-275543009D02*
X644075333Y-275590628D01*
X644075333Y-275590628D02*
X644456285Y-275590628D01*
X643503904Y-275162057D02*
X643456285Y-275114438D01*
X643456285Y-275114438D02*
X643361047Y-275066819D01*
X643361047Y-275066819D02*
X643122952Y-275066819D01*
X643122952Y-275066819D02*
X643027714Y-275114438D01*
X643027714Y-275114438D02*
X642980095Y-275162057D01*
X642980095Y-275162057D02*
X642932476Y-275257295D01*
X642932476Y-275257295D02*
X642932476Y-275352533D01*
X642932476Y-275352533D02*
X642980095Y-275495390D01*
X642980095Y-275495390D02*
X643551523Y-276066819D01*
X643551523Y-276066819D02*
X642932476Y-276066819D01*
X642599142Y-275066819D02*
X641932476Y-275066819D01*
X641932476Y-275066819D02*
X642361047Y-276066819D01*
X648864857Y-273726819D02*
X649198190Y-273250628D01*
X649436285Y-273726819D02*
X649436285Y-272726819D01*
X649436285Y-272726819D02*
X649055333Y-272726819D01*
X649055333Y-272726819D02*
X648960095Y-272774438D01*
X648960095Y-272774438D02*
X648912476Y-272822057D01*
X648912476Y-272822057D02*
X648864857Y-272917295D01*
X648864857Y-272917295D02*
X648864857Y-273060152D01*
X648864857Y-273060152D02*
X648912476Y-273155390D01*
X648912476Y-273155390D02*
X648960095Y-273203009D01*
X648960095Y-273203009D02*
X649055333Y-273250628D01*
X649055333Y-273250628D02*
X649436285Y-273250628D01*
X648483904Y-272822057D02*
X648436285Y-272774438D01*
X648436285Y-272774438D02*
X648341047Y-272726819D01*
X648341047Y-272726819D02*
X648102952Y-272726819D01*
X648102952Y-272726819D02*
X648007714Y-272774438D01*
X648007714Y-272774438D02*
X647960095Y-272822057D01*
X647960095Y-272822057D02*
X647912476Y-272917295D01*
X647912476Y-272917295D02*
X647912476Y-273012533D01*
X647912476Y-273012533D02*
X647960095Y-273155390D01*
X647960095Y-273155390D02*
X648531523Y-273726819D01*
X648531523Y-273726819D02*
X647912476Y-273726819D01*
X647436285Y-273726819D02*
X647245809Y-273726819D01*
X647245809Y-273726819D02*
X647150571Y-273679200D01*
X647150571Y-273679200D02*
X647102952Y-273631580D01*
X647102952Y-273631580D02*
X647007714Y-273488723D01*
X647007714Y-273488723D02*
X646960095Y-273298247D01*
X646960095Y-273298247D02*
X646960095Y-272917295D01*
X646960095Y-272917295D02*
X647007714Y-272822057D01*
X647007714Y-272822057D02*
X647055333Y-272774438D01*
X647055333Y-272774438D02*
X647150571Y-272726819D01*
X647150571Y-272726819D02*
X647341047Y-272726819D01*
X647341047Y-272726819D02*
X647436285Y-272774438D01*
X647436285Y-272774438D02*
X647483904Y-272822057D01*
X647483904Y-272822057D02*
X647531523Y-272917295D01*
X647531523Y-272917295D02*
X647531523Y-273155390D01*
X647531523Y-273155390D02*
X647483904Y-273250628D01*
X647483904Y-273250628D02*
X647436285Y-273298247D01*
X647436285Y-273298247D02*
X647341047Y-273345866D01*
X647341047Y-273345866D02*
X647150571Y-273345866D01*
X647150571Y-273345866D02*
X647055333Y-273298247D01*
X647055333Y-273298247D02*
X647007714Y-273250628D01*
X647007714Y-273250628D02*
X646960095Y-273155390D01*
X665016819Y-316015333D02*
X664540628Y-315682000D01*
X665016819Y-315443905D02*
X664016819Y-315443905D01*
X664016819Y-315443905D02*
X664016819Y-315824857D01*
X664016819Y-315824857D02*
X664064438Y-315920095D01*
X664064438Y-315920095D02*
X664112057Y-315967714D01*
X664112057Y-315967714D02*
X664207295Y-316015333D01*
X664207295Y-316015333D02*
X664350152Y-316015333D01*
X664350152Y-316015333D02*
X664445390Y-315967714D01*
X664445390Y-315967714D02*
X664493009Y-315920095D01*
X664493009Y-315920095D02*
X664540628Y-315824857D01*
X664540628Y-315824857D02*
X664540628Y-315443905D01*
X664016819Y-316872476D02*
X664016819Y-316682000D01*
X664016819Y-316682000D02*
X664064438Y-316586762D01*
X664064438Y-316586762D02*
X664112057Y-316539143D01*
X664112057Y-316539143D02*
X664254914Y-316443905D01*
X664254914Y-316443905D02*
X664445390Y-316396286D01*
X664445390Y-316396286D02*
X664826342Y-316396286D01*
X664826342Y-316396286D02*
X664921580Y-316443905D01*
X664921580Y-316443905D02*
X664969200Y-316491524D01*
X664969200Y-316491524D02*
X665016819Y-316586762D01*
X665016819Y-316586762D02*
X665016819Y-316777238D01*
X665016819Y-316777238D02*
X664969200Y-316872476D01*
X664969200Y-316872476D02*
X664921580Y-316920095D01*
X664921580Y-316920095D02*
X664826342Y-316967714D01*
X664826342Y-316967714D02*
X664588247Y-316967714D01*
X664588247Y-316967714D02*
X664493009Y-316920095D01*
X664493009Y-316920095D02*
X664445390Y-316872476D01*
X664445390Y-316872476D02*
X664397771Y-316777238D01*
X664397771Y-316777238D02*
X664397771Y-316586762D01*
X664397771Y-316586762D02*
X664445390Y-316491524D01*
X664445390Y-316491524D02*
X664493009Y-316443905D01*
X664493009Y-316443905D02*
X664588247Y-316396286D01*
X648864857Y-280066819D02*
X649198190Y-279590628D01*
X649436285Y-280066819D02*
X649436285Y-279066819D01*
X649436285Y-279066819D02*
X649055333Y-279066819D01*
X649055333Y-279066819D02*
X648960095Y-279114438D01*
X648960095Y-279114438D02*
X648912476Y-279162057D01*
X648912476Y-279162057D02*
X648864857Y-279257295D01*
X648864857Y-279257295D02*
X648864857Y-279400152D01*
X648864857Y-279400152D02*
X648912476Y-279495390D01*
X648912476Y-279495390D02*
X648960095Y-279543009D01*
X648960095Y-279543009D02*
X649055333Y-279590628D01*
X649055333Y-279590628D02*
X649436285Y-279590628D01*
X648483904Y-279162057D02*
X648436285Y-279114438D01*
X648436285Y-279114438D02*
X648341047Y-279066819D01*
X648341047Y-279066819D02*
X648102952Y-279066819D01*
X648102952Y-279066819D02*
X648007714Y-279114438D01*
X648007714Y-279114438D02*
X647960095Y-279162057D01*
X647960095Y-279162057D02*
X647912476Y-279257295D01*
X647912476Y-279257295D02*
X647912476Y-279352533D01*
X647912476Y-279352533D02*
X647960095Y-279495390D01*
X647960095Y-279495390D02*
X648531523Y-280066819D01*
X648531523Y-280066819D02*
X647912476Y-280066819D01*
X647341047Y-279495390D02*
X647436285Y-279447771D01*
X647436285Y-279447771D02*
X647483904Y-279400152D01*
X647483904Y-279400152D02*
X647531523Y-279304914D01*
X647531523Y-279304914D02*
X647531523Y-279257295D01*
X647531523Y-279257295D02*
X647483904Y-279162057D01*
X647483904Y-279162057D02*
X647436285Y-279114438D01*
X647436285Y-279114438D02*
X647341047Y-279066819D01*
X647341047Y-279066819D02*
X647150571Y-279066819D01*
X647150571Y-279066819D02*
X647055333Y-279114438D01*
X647055333Y-279114438D02*
X647007714Y-279162057D01*
X647007714Y-279162057D02*
X646960095Y-279257295D01*
X646960095Y-279257295D02*
X646960095Y-279304914D01*
X646960095Y-279304914D02*
X647007714Y-279400152D01*
X647007714Y-279400152D02*
X647055333Y-279447771D01*
X647055333Y-279447771D02*
X647150571Y-279495390D01*
X647150571Y-279495390D02*
X647341047Y-279495390D01*
X647341047Y-279495390D02*
X647436285Y-279543009D01*
X647436285Y-279543009D02*
X647483904Y-279590628D01*
X647483904Y-279590628D02*
X647531523Y-279685866D01*
X647531523Y-279685866D02*
X647531523Y-279876342D01*
X647531523Y-279876342D02*
X647483904Y-279971580D01*
X647483904Y-279971580D02*
X647436285Y-280019200D01*
X647436285Y-280019200D02*
X647341047Y-280066819D01*
X647341047Y-280066819D02*
X647150571Y-280066819D01*
X647150571Y-280066819D02*
X647055333Y-280019200D01*
X647055333Y-280019200D02*
X647007714Y-279971580D01*
X647007714Y-279971580D02*
X646960095Y-279876342D01*
X646960095Y-279876342D02*
X646960095Y-279685866D01*
X646960095Y-279685866D02*
X647007714Y-279590628D01*
X647007714Y-279590628D02*
X647055333Y-279543009D01*
X647055333Y-279543009D02*
X647150571Y-279495390D01*
X643864857Y-277726819D02*
X644198190Y-277250628D01*
X644436285Y-277726819D02*
X644436285Y-276726819D01*
X644436285Y-276726819D02*
X644055333Y-276726819D01*
X644055333Y-276726819D02*
X643960095Y-276774438D01*
X643960095Y-276774438D02*
X643912476Y-276822057D01*
X643912476Y-276822057D02*
X643864857Y-276917295D01*
X643864857Y-276917295D02*
X643864857Y-277060152D01*
X643864857Y-277060152D02*
X643912476Y-277155390D01*
X643912476Y-277155390D02*
X643960095Y-277203009D01*
X643960095Y-277203009D02*
X644055333Y-277250628D01*
X644055333Y-277250628D02*
X644436285Y-277250628D01*
X643483904Y-276822057D02*
X643436285Y-276774438D01*
X643436285Y-276774438D02*
X643341047Y-276726819D01*
X643341047Y-276726819D02*
X643102952Y-276726819D01*
X643102952Y-276726819D02*
X643007714Y-276774438D01*
X643007714Y-276774438D02*
X642960095Y-276822057D01*
X642960095Y-276822057D02*
X642912476Y-276917295D01*
X642912476Y-276917295D02*
X642912476Y-277012533D01*
X642912476Y-277012533D02*
X642960095Y-277155390D01*
X642960095Y-277155390D02*
X643531523Y-277726819D01*
X643531523Y-277726819D02*
X642912476Y-277726819D01*
X642055333Y-276726819D02*
X642245809Y-276726819D01*
X642245809Y-276726819D02*
X642341047Y-276774438D01*
X642341047Y-276774438D02*
X642388666Y-276822057D01*
X642388666Y-276822057D02*
X642483904Y-276964914D01*
X642483904Y-276964914D02*
X642531523Y-277155390D01*
X642531523Y-277155390D02*
X642531523Y-277536342D01*
X642531523Y-277536342D02*
X642483904Y-277631580D01*
X642483904Y-277631580D02*
X642436285Y-277679200D01*
X642436285Y-277679200D02*
X642341047Y-277726819D01*
X642341047Y-277726819D02*
X642150571Y-277726819D01*
X642150571Y-277726819D02*
X642055333Y-277679200D01*
X642055333Y-277679200D02*
X642007714Y-277631580D01*
X642007714Y-277631580D02*
X641960095Y-277536342D01*
X641960095Y-277536342D02*
X641960095Y-277298247D01*
X641960095Y-277298247D02*
X642007714Y-277203009D01*
X642007714Y-277203009D02*
X642055333Y-277155390D01*
X642055333Y-277155390D02*
X642150571Y-277107771D01*
X642150571Y-277107771D02*
X642341047Y-277107771D01*
X642341047Y-277107771D02*
X642436285Y-277155390D01*
X642436285Y-277155390D02*
X642483904Y-277203009D01*
X642483904Y-277203009D02*
X642531523Y-277298247D01*
X690356819Y-306765333D02*
X689880628Y-306432000D01*
X690356819Y-306193905D02*
X689356819Y-306193905D01*
X689356819Y-306193905D02*
X689356819Y-306574857D01*
X689356819Y-306574857D02*
X689404438Y-306670095D01*
X689404438Y-306670095D02*
X689452057Y-306717714D01*
X689452057Y-306717714D02*
X689547295Y-306765333D01*
X689547295Y-306765333D02*
X689690152Y-306765333D01*
X689690152Y-306765333D02*
X689785390Y-306717714D01*
X689785390Y-306717714D02*
X689833009Y-306670095D01*
X689833009Y-306670095D02*
X689880628Y-306574857D01*
X689880628Y-306574857D02*
X689880628Y-306193905D01*
X689356819Y-307098667D02*
X689356819Y-307765333D01*
X689356819Y-307765333D02*
X690356819Y-307336762D01*
X664766819Y-298265333D02*
X664290628Y-297932000D01*
X664766819Y-297693905D02*
X663766819Y-297693905D01*
X663766819Y-297693905D02*
X663766819Y-298074857D01*
X663766819Y-298074857D02*
X663814438Y-298170095D01*
X663814438Y-298170095D02*
X663862057Y-298217714D01*
X663862057Y-298217714D02*
X663957295Y-298265333D01*
X663957295Y-298265333D02*
X664100152Y-298265333D01*
X664100152Y-298265333D02*
X664195390Y-298217714D01*
X664195390Y-298217714D02*
X664243009Y-298170095D01*
X664243009Y-298170095D02*
X664290628Y-298074857D01*
X664290628Y-298074857D02*
X664290628Y-297693905D01*
X664766819Y-298741524D02*
X664766819Y-298932000D01*
X664766819Y-298932000D02*
X664719200Y-299027238D01*
X664719200Y-299027238D02*
X664671580Y-299074857D01*
X664671580Y-299074857D02*
X664528723Y-299170095D01*
X664528723Y-299170095D02*
X664338247Y-299217714D01*
X664338247Y-299217714D02*
X663957295Y-299217714D01*
X663957295Y-299217714D02*
X663862057Y-299170095D01*
X663862057Y-299170095D02*
X663814438Y-299122476D01*
X663814438Y-299122476D02*
X663766819Y-299027238D01*
X663766819Y-299027238D02*
X663766819Y-298836762D01*
X663766819Y-298836762D02*
X663814438Y-298741524D01*
X663814438Y-298741524D02*
X663862057Y-298693905D01*
X663862057Y-298693905D02*
X663957295Y-298646286D01*
X663957295Y-298646286D02*
X664195390Y-298646286D01*
X664195390Y-298646286D02*
X664290628Y-298693905D01*
X664290628Y-298693905D02*
X664338247Y-298741524D01*
X664338247Y-298741524D02*
X664385866Y-298836762D01*
X664385866Y-298836762D02*
X664385866Y-299027238D01*
X664385866Y-299027238D02*
X664338247Y-299122476D01*
X664338247Y-299122476D02*
X664290628Y-299170095D01*
X664290628Y-299170095D02*
X664195390Y-299217714D01*
%TO.C,R8*%
D11*
X655602000Y-307278359D02*
X655602000Y-307585641D01*
X656362000Y-307278359D02*
X656362000Y-307585641D01*
%TO.C,R27*%
X643088359Y-274062000D02*
X643395641Y-274062000D01*
X643088359Y-274822000D02*
X643395641Y-274822000D01*
%TO.C,R29*%
X648375641Y-274062000D02*
X648068359Y-274062000D01*
X648375641Y-274822000D02*
X648068359Y-274822000D01*
%TO.C,R6*%
X665352000Y-316028359D02*
X665352000Y-316335641D01*
X666112000Y-316028359D02*
X666112000Y-316335641D01*
%TO.C,R28*%
X648068359Y-278062000D02*
X648375641Y-278062000D01*
X648068359Y-278822000D02*
X648375641Y-278822000D01*
%TO.C,R26*%
X643375641Y-278062000D02*
X643068359Y-278062000D01*
X643375641Y-278822000D02*
X643068359Y-278822000D01*
%TO.C,R7*%
X688352000Y-307085641D02*
X688352000Y-306778359D01*
X689112000Y-307085641D02*
X689112000Y-306778359D01*
%TO.C,R9*%
X665102000Y-298278359D02*
X665102000Y-298585641D01*
X665862000Y-298278359D02*
X665862000Y-298585641D01*
%TD*%
M02*
