%TF.GenerationSoftware,KiCad,Pcbnew,10.0.1*%
%TF.CreationDate,2026-05-09T17:34:37+05:30*%
%TF.ProjectId,Handheld Gaming device PCB,48616e64-6865-46c6-9420-47616d696e67,rev?*%
%TF.SameCoordinates,Original*%
%TF.FileFunction,Copper,L1,Top*%
%TF.FilePolarity,Positive*%
%FSLAX46Y46*%
G04 Gerber Fmt 4.6, Leading zero omitted, Abs format (unit mm)*
G04 Created by KiCad (PCBNEW 10.0.1) date 2026-05-09 17:34:37*
%MOMM*%
%LPD*%
G01*
G04 APERTURE LIST*
%TA.AperFunction,ComponentPad*%
%ADD10C,2.000000*%
%TD*%
%TA.AperFunction,ComponentPad*%
%ADD11R,0.850000X0.850000*%
%TD*%
%TA.AperFunction,ComponentPad*%
%ADD12C,0.850000*%
%TD*%
%TA.AperFunction,ComponentPad*%
%ADD13R,1.700000X1.700000*%
%TD*%
%TA.AperFunction,ComponentPad*%
%ADD14C,1.700000*%
%TD*%
%TA.AperFunction,ViaPad*%
%ADD15C,0.600000*%
%TD*%
%TA.AperFunction,Conductor*%
%ADD16C,0.250000*%
%TD*%
G04 APERTURE END LIST*
D10*
%TO.P,SW4,1,1_1*%
%TO.N,/Right_Daughter_Board/GPIO22*%
X659732000Y-304942000D03*
X666232000Y-304942000D03*
%TO.P,SW4,2,2_2*%
%TO.N,GND*%
X659732000Y-309442000D03*
X666232000Y-309442000D03*
%TD*%
D11*
%TO.P,J11,1,Pin_1_1*%
%TO.N,+5V*%
X641982000Y-294942000D03*
D12*
%TO.P,J11,2,Pin_2_2*%
%TO.N,+3.3V*%
X641982000Y-295942000D03*
%TO.P,J11,3,Pin_3_3*%
%TO.N,GND*%
X641982000Y-296942000D03*
%TO.P,J11,4,Pin_4_4*%
%TO.N,/Right_Daughter_Board/JOY_R_X*%
X641982000Y-297942000D03*
%TO.P,J11,5,Pin_5_5*%
%TO.N,/Right_Daughter_Board/JOY_R_Y*%
X641982000Y-298942000D03*
%TO.P,J11,6,Pin_6_6*%
%TO.N,/Right_Daughter_Board/GPIO16*%
X641982000Y-299942000D03*
%TO.P,J11,7,Pin_7_7*%
%TO.N,/Right_Daughter_Board/GPIO17*%
X641982000Y-300942000D03*
%TO.P,J11,8,Pin_8_8*%
%TO.N,/Right_Daughter_Board/GPIO27*%
X641982000Y-301942000D03*
%TO.P,J11,9,Pin_9_9*%
%TO.N,/Right_Daughter_Board/GPIO22*%
X641982000Y-302942000D03*
%TO.P,J11,10,Pin_10_10*%
%TO.N,/Right_Daughter_Board/GPIO23*%
X641982000Y-303942000D03*
%TO.P,J11,11,Pin_11_11*%
%TO.N,GND*%
X641982000Y-304942000D03*
%TO.P,J11,12,Pin_12_12*%
X641982000Y-305942000D03*
%TD*%
D10*
%TO.P,SW5,1,1_1*%
%TO.N,/Right_Daughter_Board/GPIO23*%
X669232000Y-296192000D03*
X675732000Y-296192000D03*
%TO.P,SW5,2,2_2*%
%TO.N,GND*%
X669232000Y-300692000D03*
X675732000Y-300692000D03*
%TD*%
%TO.P,SW2,1,1_1*%
%TO.N,/Right_Daughter_Board/GPIO17*%
X669482000Y-313442000D03*
X675982000Y-313442000D03*
%TO.P,SW2,2,2_2*%
%TO.N,GND*%
X669482000Y-317942000D03*
X675982000Y-317942000D03*
%TD*%
D13*
%TO.P,J4,1,Pin_1_1*%
%TO.N,GND*%
X653482000Y-283442000D03*
D14*
%TO.P,J4,2,Pin_2_2*%
%TO.N,+5V*%
X653482000Y-280902000D03*
%TO.P,J4,3,Pin_3_3*%
%TO.N,Net-(J4-Pin_3)*%
X653482000Y-278362000D03*
%TO.P,J4,4,Pin_4_4*%
%TO.N,Net-(J4-Pin_4)*%
X653482000Y-275822000D03*
%TO.P,J4,5,Pin_5_5*%
%TO.N,/Right_Daughter_Board/GPIO16*%
X653482000Y-273282000D03*
%TD*%
D10*
%TO.P,SW3,1,1_1*%
%TO.N,/Right_Daughter_Board/GPIO27*%
X678732000Y-304692000D03*
X685232000Y-304692000D03*
%TO.P,SW3,2,2_2*%
%TO.N,GND*%
X678732000Y-309192000D03*
X685232000Y-309192000D03*
%TD*%
D15*
%TO.N,/Right_Daughter_Board/GPIO27*%
X646482000Y-301942000D03*
%TO.N,/Right_Daughter_Board/GPIO17*%
X647732000Y-315192000D03*
%TO.N,/Right_Daughter_Board/GPIO23*%
X646982000Y-303942000D03*
%TO.N,/Right_Daughter_Board/GPIO27*%
X646732000Y-293692000D03*
%TO.N,/Right_Daughter_Board/GPIO22*%
X646732000Y-302942000D03*
X655732000Y-302942000D03*
%TO.N,/Right_Daughter_Board/GPIO17*%
X658232000Y-315192000D03*
%TO.N,/Right_Daughter_Board/GPIO23*%
X653732000Y-303942000D03*
%TD*%
%TO.N,/Right_Daughter_Board/GPIO22*%
D16*
X646732000Y-302942000D02*
X655732000Y-302942000D01*
%TO.N,/Right_Daughter_Board/GPIO23*%
X646982000Y-303942000D02*
X653732000Y-303942000D01*
%TO.N,/Right_Daughter_Board/GPIO17*%
X647732000Y-315192000D02*
X658232000Y-315192000D01*
%TO.N,/Right_Daughter_Board/GPIO27*%
X646482000Y-293942000D02*
X646732000Y-293692000D01*
X646482000Y-301942000D02*
X646482000Y-293942000D01*
%TD*%
%TA.AperFunction,Conductor*%
%TO.N,GND*%
G36*
X707024539Y-260862185D02*
G01*
X707070294Y-260914989D01*
X707081500Y-260966500D01*
X707081500Y-340417500D01*
X707061815Y-340484539D01*
X707009011Y-340530294D01*
X706957500Y-340541500D01*
X637506500Y-340541500D01*
X637439461Y-340521815D01*
X637393706Y-340469011D01*
X637382500Y-340417500D01*
X637382500Y-315113153D01*
X646931500Y-315113153D01*
X646931500Y-315270846D01*
X646962261Y-315425489D01*
X646962264Y-315425501D01*
X647022602Y-315571172D01*
X647022609Y-315571185D01*
X647110210Y-315702288D01*
X647110213Y-315702292D01*
X647221707Y-315813786D01*
X647221711Y-315813789D01*
X647352814Y-315901390D01*
X647352827Y-315901397D01*
X647498498Y-315961735D01*
X647498503Y-315961737D01*
X647653153Y-315992499D01*
X647653156Y-315992500D01*
X647653158Y-315992500D01*
X647810844Y-315992500D01*
X647810845Y-315992499D01*
X647965497Y-315961737D01*
X648111179Y-315901394D01*
X648205459Y-315838398D01*
X648272136Y-315817520D01*
X648274350Y-315817500D01*
X657689650Y-315817500D01*
X657756689Y-315837185D01*
X657758541Y-315838398D01*
X657852821Y-315901394D01*
X657852823Y-315901395D01*
X657852827Y-315901397D01*
X657998498Y-315961735D01*
X657998503Y-315961737D01*
X658153153Y-315992499D01*
X658153156Y-315992500D01*
X658153158Y-315992500D01*
X658310844Y-315992500D01*
X658310845Y-315992499D01*
X658465497Y-315961737D01*
X658611179Y-315901394D01*
X658742289Y-315813789D01*
X658853789Y-315702289D01*
X658941394Y-315571179D01*
X659001737Y-315425497D01*
X659032500Y-315270842D01*
X659032500Y-315113158D01*
X659032500Y-315113155D01*
X659032499Y-315113153D01*
X659001738Y-314958510D01*
X659001737Y-314958503D01*
X659001735Y-314958498D01*
X658941397Y-314812827D01*
X658941390Y-314812814D01*
X658853789Y-314681711D01*
X658853786Y-314681707D01*
X658742292Y-314570213D01*
X658742288Y-314570210D01*
X658611185Y-314482609D01*
X658611172Y-314482602D01*
X658465501Y-314422264D01*
X658465489Y-314422261D01*
X658310845Y-314391500D01*
X658310842Y-314391500D01*
X658153158Y-314391500D01*
X658153155Y-314391500D01*
X657998510Y-314422261D01*
X657998498Y-314422264D01*
X657852827Y-314482602D01*
X657852815Y-314482609D01*
X657758541Y-314545602D01*
X657691864Y-314566480D01*
X657689650Y-314566500D01*
X648274350Y-314566500D01*
X648207311Y-314546815D01*
X648205459Y-314545602D01*
X648111184Y-314482609D01*
X648111172Y-314482602D01*
X647965501Y-314422264D01*
X647965489Y-314422261D01*
X647810845Y-314391500D01*
X647810842Y-314391500D01*
X647653158Y-314391500D01*
X647653155Y-314391500D01*
X647498510Y-314422261D01*
X647498498Y-314422264D01*
X647352827Y-314482602D01*
X647352814Y-314482609D01*
X647221711Y-314570210D01*
X647221707Y-314570213D01*
X647110213Y-314681707D01*
X647110210Y-314681711D01*
X647022609Y-314812814D01*
X647022602Y-314812827D01*
X646962264Y-314958498D01*
X646962261Y-314958510D01*
X646931500Y-315113153D01*
X637382500Y-315113153D01*
X637382500Y-313323902D01*
X667981500Y-313323902D01*
X667981500Y-313560097D01*
X668018446Y-313793368D01*
X668091433Y-314017996D01*
X668198657Y-314228433D01*
X668337483Y-314419510D01*
X668504490Y-314586517D01*
X668695567Y-314725343D01*
X668794991Y-314776002D01*
X668906003Y-314832566D01*
X668906005Y-314832566D01*
X668906008Y-314832568D01*
X669026412Y-314871689D01*
X669130631Y-314905553D01*
X669363903Y-314942500D01*
X669363908Y-314942500D01*
X669600097Y-314942500D01*
X669833368Y-314905553D01*
X670057992Y-314832568D01*
X670268433Y-314725343D01*
X670459510Y-314586517D01*
X670626517Y-314419510D01*
X670765343Y-314228433D01*
X670872568Y-314017992D01*
X670945553Y-313793368D01*
X670982500Y-313560097D01*
X670982500Y-313323902D01*
X674481500Y-313323902D01*
X674481500Y-313560097D01*
X674518446Y-313793368D01*
X674591433Y-314017996D01*
X674698657Y-314228433D01*
X674837483Y-314419510D01*
X675004490Y-314586517D01*
X675195567Y-314725343D01*
X675294991Y-314776002D01*
X675406003Y-314832566D01*
X675406005Y-314832566D01*
X675406008Y-314832568D01*
X675526412Y-314871689D01*
X675630631Y-314905553D01*
X675863903Y-314942500D01*
X675863908Y-314942500D01*
X676100097Y-314942500D01*
X676333368Y-314905553D01*
X676557992Y-314832568D01*
X676768433Y-314725343D01*
X676959510Y-314586517D01*
X677126517Y-314419510D01*
X677265343Y-314228433D01*
X677372568Y-314017992D01*
X677445553Y-313793368D01*
X677482500Y-313560097D01*
X677482500Y-313323902D01*
X677445553Y-313090631D01*
X677372566Y-312866003D01*
X677265342Y-312655566D01*
X677126517Y-312464490D01*
X676959510Y-312297483D01*
X676768433Y-312158657D01*
X676557996Y-312051433D01*
X676333368Y-311978446D01*
X676100097Y-311941500D01*
X676100092Y-311941500D01*
X675863908Y-311941500D01*
X675863903Y-311941500D01*
X675630631Y-311978446D01*
X675406003Y-312051433D01*
X675195566Y-312158657D01*
X675086550Y-312237862D01*
X675004490Y-312297483D01*
X675004488Y-312297485D01*
X675004487Y-312297485D01*
X674837485Y-312464487D01*
X674837485Y-312464488D01*
X674837483Y-312464490D01*
X674777862Y-312546550D01*
X674698657Y-312655566D01*
X674591433Y-312866003D01*
X674518446Y-313090631D01*
X674481500Y-313323902D01*
X670982500Y-313323902D01*
X670945553Y-313090631D01*
X670872566Y-312866003D01*
X670765342Y-312655566D01*
X670626517Y-312464490D01*
X670459510Y-312297483D01*
X670268433Y-312158657D01*
X670057996Y-312051433D01*
X669833368Y-311978446D01*
X669600097Y-311941500D01*
X669600092Y-311941500D01*
X669363908Y-311941500D01*
X669363903Y-311941500D01*
X669130631Y-311978446D01*
X668906003Y-312051433D01*
X668695566Y-312158657D01*
X668586550Y-312237862D01*
X668504490Y-312297483D01*
X668504488Y-312297485D01*
X668504487Y-312297485D01*
X668337485Y-312464487D01*
X668337485Y-312464488D01*
X668337483Y-312464490D01*
X668277862Y-312546550D01*
X668198657Y-312655566D01*
X668091433Y-312866003D01*
X668018446Y-313090631D01*
X667981500Y-313323902D01*
X637382500Y-313323902D01*
X637382500Y-296033156D01*
X641056499Y-296033156D01*
X641092065Y-296211952D01*
X641092068Y-296211962D01*
X641161831Y-296380387D01*
X641161833Y-296380391D01*
X641263113Y-296531967D01*
X641263119Y-296531975D01*
X641392024Y-296660880D01*
X641392032Y-296660886D01*
X641543608Y-296762166D01*
X641701192Y-296827439D01*
X641755595Y-296871280D01*
X641777660Y-296937574D01*
X641760381Y-297005273D01*
X641709244Y-297052884D01*
X641701192Y-297056561D01*
X641543608Y-297121833D01*
X641392032Y-297223113D01*
X641392024Y-297223119D01*
X641263119Y-297352024D01*
X641263113Y-297352032D01*
X641161833Y-297503608D01*
X641161831Y-297503612D01*
X641092068Y-297672037D01*
X641092065Y-297672047D01*
X641056500Y-297850843D01*
X641056500Y-297850846D01*
X641056500Y-298033154D01*
X641056500Y-298033156D01*
X641056499Y-298033156D01*
X641092065Y-298211952D01*
X641092067Y-298211958D01*
X641161835Y-298380394D01*
X641163525Y-298383556D01*
X641163908Y-298385399D01*
X641164164Y-298386016D01*
X641164047Y-298386064D01*
X641177761Y-298451960D01*
X641163525Y-298500444D01*
X641161835Y-298503605D01*
X641092067Y-298672041D01*
X641092065Y-298672047D01*
X641056500Y-298850843D01*
X641056500Y-298850846D01*
X641056500Y-299033154D01*
X641056500Y-299033156D01*
X641056499Y-299033156D01*
X641092065Y-299211952D01*
X641092067Y-299211958D01*
X641161835Y-299380394D01*
X641163525Y-299383556D01*
X641163908Y-299385399D01*
X641164164Y-299386016D01*
X641164047Y-299386064D01*
X641177761Y-299451960D01*
X641163525Y-299500444D01*
X641161835Y-299503605D01*
X641092067Y-299672041D01*
X641092065Y-299672047D01*
X641056500Y-299850843D01*
X641056500Y-299850846D01*
X641056500Y-300033154D01*
X641056500Y-300033156D01*
X641056499Y-300033156D01*
X641092065Y-300211952D01*
X641092067Y-300211958D01*
X641161835Y-300380394D01*
X641163525Y-300383556D01*
X641163908Y-300385399D01*
X641164164Y-300386016D01*
X641164047Y-300386064D01*
X641177761Y-300451960D01*
X641163525Y-300500444D01*
X641161835Y-300503605D01*
X641092067Y-300672041D01*
X641092065Y-300672047D01*
X641056500Y-300850843D01*
X641056500Y-300850846D01*
X641056500Y-301033154D01*
X641056500Y-301033156D01*
X641056499Y-301033156D01*
X641092065Y-301211952D01*
X641092067Y-301211958D01*
X641161835Y-301380394D01*
X641163525Y-301383556D01*
X641163908Y-301385399D01*
X641164164Y-301386016D01*
X641164047Y-301386064D01*
X641177761Y-301451960D01*
X641163525Y-301500444D01*
X641161835Y-301503605D01*
X641092067Y-301672041D01*
X641092065Y-301672047D01*
X641056500Y-301850843D01*
X641056500Y-301850846D01*
X641056500Y-302033154D01*
X641056500Y-302033156D01*
X641056499Y-302033156D01*
X641092065Y-302211952D01*
X641092067Y-302211958D01*
X641161835Y-302380394D01*
X641163525Y-302383556D01*
X641163908Y-302385399D01*
X641164164Y-302386016D01*
X641164047Y-302386064D01*
X641177761Y-302451960D01*
X641163525Y-302500444D01*
X641161835Y-302503605D01*
X641092067Y-302672041D01*
X641092065Y-302672047D01*
X641056500Y-302850843D01*
X641056500Y-302850846D01*
X641056500Y-303033154D01*
X641056500Y-303033156D01*
X641056499Y-303033156D01*
X641092065Y-303211952D01*
X641092067Y-303211958D01*
X641161835Y-303380394D01*
X641163525Y-303383556D01*
X641163908Y-303385399D01*
X641164164Y-303386016D01*
X641164047Y-303386064D01*
X641177761Y-303451960D01*
X641163525Y-303500444D01*
X641161835Y-303503605D01*
X641092067Y-303672041D01*
X641092065Y-303672047D01*
X641056500Y-303850843D01*
X641056500Y-303850846D01*
X641056500Y-304033154D01*
X641056500Y-304033156D01*
X641056499Y-304033156D01*
X641092065Y-304211952D01*
X641092068Y-304211962D01*
X641161831Y-304380387D01*
X641161833Y-304380391D01*
X641263113Y-304531967D01*
X641263119Y-304531975D01*
X641392024Y-304660880D01*
X641392032Y-304660886D01*
X641543608Y-304762166D01*
X641543612Y-304762168D01*
X641692653Y-304823902D01*
X641712042Y-304831933D01*
X641712046Y-304831933D01*
X641712047Y-304831934D01*
X641890843Y-304867500D01*
X641890846Y-304867500D01*
X642073156Y-304867500D01*
X642193445Y-304843572D01*
X642251958Y-304831933D01*
X642271347Y-304823902D01*
X658231500Y-304823902D01*
X658231500Y-305060097D01*
X658268446Y-305293368D01*
X658341433Y-305517996D01*
X658418635Y-305669512D01*
X658448657Y-305728433D01*
X658587483Y-305919510D01*
X658754490Y-306086517D01*
X658945567Y-306225343D01*
X659044991Y-306276002D01*
X659156003Y-306332566D01*
X659156005Y-306332566D01*
X659156008Y-306332568D01*
X659276412Y-306371689D01*
X659380631Y-306405553D01*
X659613903Y-306442500D01*
X659613908Y-306442500D01*
X659850097Y-306442500D01*
X660083368Y-306405553D01*
X660307992Y-306332568D01*
X660518433Y-306225343D01*
X660709510Y-306086517D01*
X660876517Y-305919510D01*
X661015343Y-305728433D01*
X661122568Y-305517992D01*
X661195553Y-305293368D01*
X661232500Y-305060097D01*
X661232500Y-304823902D01*
X664731500Y-304823902D01*
X664731500Y-305060097D01*
X664768446Y-305293368D01*
X664841433Y-305517996D01*
X664918635Y-305669512D01*
X664948657Y-305728433D01*
X665087483Y-305919510D01*
X665254490Y-306086517D01*
X665445567Y-306225343D01*
X665544991Y-306276002D01*
X665656003Y-306332566D01*
X665656005Y-306332566D01*
X665656008Y-306332568D01*
X665776412Y-306371689D01*
X665880631Y-306405553D01*
X666113903Y-306442500D01*
X666113908Y-306442500D01*
X666350097Y-306442500D01*
X666583368Y-306405553D01*
X666807992Y-306332568D01*
X667018433Y-306225343D01*
X667209510Y-306086517D01*
X667376517Y-305919510D01*
X667515343Y-305728433D01*
X667622568Y-305517992D01*
X667695553Y-305293368D01*
X667732500Y-305060097D01*
X667732500Y-304823902D01*
X667706680Y-304660886D01*
X667695553Y-304590632D01*
X667690117Y-304573902D01*
X677231500Y-304573902D01*
X677231500Y-304810097D01*
X677268446Y-305043368D01*
X677341433Y-305267996D01*
X677448657Y-305478433D01*
X677587483Y-305669510D01*
X677754490Y-305836517D01*
X677945567Y-305975343D01*
X678044991Y-306026002D01*
X678156003Y-306082566D01*
X678156005Y-306082566D01*
X678156008Y-306082568D01*
X678276412Y-306121689D01*
X678380631Y-306155553D01*
X678613903Y-306192500D01*
X678613908Y-306192500D01*
X678850097Y-306192500D01*
X679083368Y-306155553D01*
X679307992Y-306082568D01*
X679518433Y-305975343D01*
X679709510Y-305836517D01*
X679876517Y-305669510D01*
X680015343Y-305478433D01*
X680122568Y-305267992D01*
X680195553Y-305043368D01*
X680229041Y-304831933D01*
X680232500Y-304810097D01*
X680232500Y-304573902D01*
X683731500Y-304573902D01*
X683731500Y-304810097D01*
X683768446Y-305043368D01*
X683841433Y-305267996D01*
X683948657Y-305478433D01*
X684087483Y-305669510D01*
X684254490Y-305836517D01*
X684445567Y-305975343D01*
X684544991Y-306026002D01*
X684656003Y-306082566D01*
X684656005Y-306082566D01*
X684656008Y-306082568D01*
X684776412Y-306121689D01*
X684880631Y-306155553D01*
X685113903Y-306192500D01*
X685113908Y-306192500D01*
X685350097Y-306192500D01*
X685583368Y-306155553D01*
X685807992Y-306082568D01*
X686018433Y-305975343D01*
X686209510Y-305836517D01*
X686376517Y-305669510D01*
X686515343Y-305478433D01*
X686622568Y-305267992D01*
X686695553Y-305043368D01*
X686729041Y-304831933D01*
X686732500Y-304810097D01*
X686732500Y-304573902D01*
X686695553Y-304340631D01*
X686653742Y-304211952D01*
X686622568Y-304116008D01*
X686622566Y-304116005D01*
X686622566Y-304116003D01*
X686515342Y-303905566D01*
X686376517Y-303714490D01*
X686209510Y-303547483D01*
X686018433Y-303408657D01*
X685972787Y-303385399D01*
X685807996Y-303301433D01*
X685583368Y-303228446D01*
X685350097Y-303191500D01*
X685350092Y-303191500D01*
X685113908Y-303191500D01*
X685113903Y-303191500D01*
X684880631Y-303228446D01*
X684656003Y-303301433D01*
X684445566Y-303408657D01*
X684336550Y-303487862D01*
X684254490Y-303547483D01*
X684254488Y-303547485D01*
X684254487Y-303547485D01*
X684087485Y-303714487D01*
X684087485Y-303714488D01*
X684087483Y-303714490D01*
X684027862Y-303796550D01*
X683948657Y-303905566D01*
X683841433Y-304116003D01*
X683768446Y-304340631D01*
X683731500Y-304573902D01*
X680232500Y-304573902D01*
X680195553Y-304340631D01*
X680153742Y-304211952D01*
X680122568Y-304116008D01*
X680122566Y-304116005D01*
X680122566Y-304116003D01*
X680015342Y-303905566D01*
X679876517Y-303714490D01*
X679709510Y-303547483D01*
X679518433Y-303408657D01*
X679472787Y-303385399D01*
X679307996Y-303301433D01*
X679083368Y-303228446D01*
X678850097Y-303191500D01*
X678850092Y-303191500D01*
X678613908Y-303191500D01*
X678613903Y-303191500D01*
X678380631Y-303228446D01*
X678156003Y-303301433D01*
X677945566Y-303408657D01*
X677836550Y-303487862D01*
X677754490Y-303547483D01*
X677754488Y-303547485D01*
X677754487Y-303547485D01*
X677587485Y-303714487D01*
X677587485Y-303714488D01*
X677587483Y-303714490D01*
X677527862Y-303796550D01*
X677448657Y-303905566D01*
X677341433Y-304116003D01*
X677268446Y-304340631D01*
X677231500Y-304573902D01*
X667690117Y-304573902D01*
X667622568Y-304366008D01*
X667622566Y-304366005D01*
X667622566Y-304366003D01*
X667566002Y-304254991D01*
X667515343Y-304155567D01*
X667376517Y-303964490D01*
X667209510Y-303797483D01*
X667018433Y-303658657D01*
X666807996Y-303551433D01*
X666583368Y-303478446D01*
X666350097Y-303441500D01*
X666350092Y-303441500D01*
X666113908Y-303441500D01*
X666113903Y-303441500D01*
X665880631Y-303478446D01*
X665656003Y-303551433D01*
X665445566Y-303658657D01*
X665367065Y-303715692D01*
X665254490Y-303797483D01*
X665254488Y-303797485D01*
X665254487Y-303797485D01*
X665087485Y-303964487D01*
X665087485Y-303964488D01*
X665087483Y-303964490D01*
X665046541Y-304020842D01*
X664948657Y-304155566D01*
X664841433Y-304366003D01*
X664768446Y-304590631D01*
X664731500Y-304823902D01*
X661232500Y-304823902D01*
X661195553Y-304590631D01*
X661127241Y-304380391D01*
X661122568Y-304366008D01*
X661122566Y-304366005D01*
X661122566Y-304366003D01*
X661066002Y-304254991D01*
X661015343Y-304155567D01*
X660876517Y-303964490D01*
X660709510Y-303797483D01*
X660518433Y-303658657D01*
X660307996Y-303551433D01*
X660083368Y-303478446D01*
X659850097Y-303441500D01*
X659850092Y-303441500D01*
X659613908Y-303441500D01*
X659613903Y-303441500D01*
X659380631Y-303478446D01*
X659156003Y-303551433D01*
X658945566Y-303658657D01*
X658867065Y-303715692D01*
X658754490Y-303797483D01*
X658754488Y-303797485D01*
X658754487Y-303797485D01*
X658587485Y-303964487D01*
X658587485Y-303964488D01*
X658587483Y-303964490D01*
X658546541Y-304020842D01*
X658448657Y-304155566D01*
X658341433Y-304366003D01*
X658268446Y-304590631D01*
X658231500Y-304823902D01*
X642271347Y-304823902D01*
X642420389Y-304762167D01*
X642420391Y-304762166D01*
X642506732Y-304704475D01*
X642571972Y-304660883D01*
X642700883Y-304531972D01*
X642802167Y-304380389D01*
X642871933Y-304211958D01*
X642907500Y-304033154D01*
X642907500Y-303850846D01*
X642907500Y-303850843D01*
X642871934Y-303672047D01*
X642871933Y-303672046D01*
X642871933Y-303672042D01*
X642836784Y-303587185D01*
X642802169Y-303503615D01*
X642800482Y-303500459D01*
X642800097Y-303498613D01*
X642799836Y-303497982D01*
X642799955Y-303497932D01*
X642786236Y-303432057D01*
X642800482Y-303383541D01*
X642802163Y-303380394D01*
X642802167Y-303380389D01*
X642871933Y-303211958D01*
X642907500Y-303033154D01*
X642907500Y-302850846D01*
X642907500Y-302850843D01*
X642871934Y-302672047D01*
X642871933Y-302672046D01*
X642871933Y-302672042D01*
X642838039Y-302590214D01*
X642802169Y-302503615D01*
X642800482Y-302500459D01*
X642800097Y-302498613D01*
X642799836Y-302497982D01*
X642799955Y-302497932D01*
X642786236Y-302432057D01*
X642800482Y-302383541D01*
X642802163Y-302380394D01*
X642802167Y-302380389D01*
X642871933Y-302211958D01*
X642907500Y-302033154D01*
X642907500Y-301863153D01*
X645681500Y-301863153D01*
X645681500Y-302020846D01*
X645712261Y-302175489D01*
X645712264Y-302175501D01*
X645772602Y-302321172D01*
X645772609Y-302321185D01*
X645860210Y-302452288D01*
X645860213Y-302452292D01*
X645948829Y-302540908D01*
X645982314Y-302602231D01*
X645977330Y-302671923D01*
X645975709Y-302676041D01*
X645962263Y-302708501D01*
X645962260Y-302708511D01*
X645931500Y-302863153D01*
X645931500Y-303020846D01*
X645962261Y-303175489D01*
X645962264Y-303175501D01*
X646022602Y-303321172D01*
X646022609Y-303321185D01*
X646110210Y-303452288D01*
X646110213Y-303452292D01*
X646198829Y-303540908D01*
X646232314Y-303602231D01*
X646227330Y-303671923D01*
X646225709Y-303676041D01*
X646212263Y-303708501D01*
X646212260Y-303708511D01*
X646181500Y-303863153D01*
X646181500Y-304020846D01*
X646212261Y-304175489D01*
X646212264Y-304175501D01*
X646272602Y-304321172D01*
X646272609Y-304321185D01*
X646360210Y-304452288D01*
X646360213Y-304452292D01*
X646471707Y-304563786D01*
X646471711Y-304563789D01*
X646602814Y-304651390D01*
X646602827Y-304651397D01*
X646730971Y-304704475D01*
X646748503Y-304711737D01*
X646903153Y-304742499D01*
X646903156Y-304742500D01*
X646903158Y-304742500D01*
X647060844Y-304742500D01*
X647060845Y-304742499D01*
X647215497Y-304711737D01*
X647361179Y-304651394D01*
X647455459Y-304588398D01*
X647522136Y-304567520D01*
X647524350Y-304567500D01*
X653189650Y-304567500D01*
X653256689Y-304587185D01*
X653258541Y-304588398D01*
X653352821Y-304651394D01*
X653352823Y-304651395D01*
X653352827Y-304651397D01*
X653480971Y-304704475D01*
X653498503Y-304711737D01*
X653653153Y-304742499D01*
X653653156Y-304742500D01*
X653653158Y-304742500D01*
X653810844Y-304742500D01*
X653810845Y-304742499D01*
X653965497Y-304711737D01*
X653974166Y-304708146D01*
X653983030Y-304704475D01*
X654111172Y-304651397D01*
X654111172Y-304651396D01*
X654111179Y-304651394D01*
X654242289Y-304563789D01*
X654353789Y-304452289D01*
X654441394Y-304321179D01*
X654501737Y-304175497D01*
X654532500Y-304020842D01*
X654532500Y-303863158D01*
X654532500Y-303863155D01*
X654503167Y-303715692D01*
X654509394Y-303646100D01*
X654552257Y-303590923D01*
X654618146Y-303567678D01*
X654624784Y-303567500D01*
X655189650Y-303567500D01*
X655256689Y-303587185D01*
X655258541Y-303588398D01*
X655352821Y-303651394D01*
X655352823Y-303651395D01*
X655352827Y-303651397D01*
X655498498Y-303711735D01*
X655498503Y-303711737D01*
X655653153Y-303742499D01*
X655653156Y-303742500D01*
X655653158Y-303742500D01*
X655810844Y-303742500D01*
X655810845Y-303742499D01*
X655965497Y-303711737D01*
X656078166Y-303665067D01*
X656111172Y-303651397D01*
X656111172Y-303651396D01*
X656111179Y-303651394D01*
X656242289Y-303563789D01*
X656353789Y-303452289D01*
X656441394Y-303321179D01*
X656501737Y-303175497D01*
X656532500Y-303020842D01*
X656532500Y-302863158D01*
X656532500Y-302863155D01*
X656532499Y-302863153D01*
X656530050Y-302850843D01*
X656501737Y-302708503D01*
X656486637Y-302672047D01*
X656441397Y-302562827D01*
X656441390Y-302562814D01*
X656353789Y-302431711D01*
X656353786Y-302431707D01*
X656242292Y-302320213D01*
X656242288Y-302320210D01*
X656111185Y-302232609D01*
X656111172Y-302232602D01*
X655965501Y-302172264D01*
X655965489Y-302172261D01*
X655810845Y-302141500D01*
X655810842Y-302141500D01*
X655653158Y-302141500D01*
X655653155Y-302141500D01*
X655498510Y-302172261D01*
X655498498Y-302172264D01*
X655352827Y-302232602D01*
X655352815Y-302232609D01*
X655258541Y-302295602D01*
X655191864Y-302316480D01*
X655189650Y-302316500D01*
X647374784Y-302316500D01*
X647307745Y-302296815D01*
X647261990Y-302244011D01*
X647252046Y-302174853D01*
X647253167Y-302168308D01*
X647282500Y-302020844D01*
X647282500Y-301863155D01*
X647282499Y-301863153D01*
X647251738Y-301708510D01*
X647251737Y-301708503D01*
X647236637Y-301672047D01*
X647191397Y-301562828D01*
X647191396Y-301562827D01*
X647191394Y-301562821D01*
X647128397Y-301468539D01*
X647107520Y-301401863D01*
X647107500Y-301399650D01*
X647107500Y-296073902D01*
X667731500Y-296073902D01*
X667731500Y-296310097D01*
X667768446Y-296543368D01*
X667841433Y-296767996D01*
X667948657Y-296978433D01*
X668087483Y-297169510D01*
X668254490Y-297336517D01*
X668445567Y-297475343D01*
X668501048Y-297503612D01*
X668656003Y-297582566D01*
X668656005Y-297582566D01*
X668656008Y-297582568D01*
X668776412Y-297621689D01*
X668880631Y-297655553D01*
X669113903Y-297692500D01*
X669113908Y-297692500D01*
X669350097Y-297692500D01*
X669583368Y-297655553D01*
X669807992Y-297582568D01*
X670018433Y-297475343D01*
X670209510Y-297336517D01*
X670376517Y-297169510D01*
X670515343Y-296978433D01*
X670622568Y-296767992D01*
X670695553Y-296543368D01*
X670721366Y-296380391D01*
X670732500Y-296310097D01*
X670732500Y-296073902D01*
X674231500Y-296073902D01*
X674231500Y-296310097D01*
X674268446Y-296543368D01*
X674341433Y-296767996D01*
X674448657Y-296978433D01*
X674587483Y-297169510D01*
X674754490Y-297336517D01*
X674945567Y-297475343D01*
X675001048Y-297503612D01*
X675156003Y-297582566D01*
X675156005Y-297582566D01*
X675156008Y-297582568D01*
X675276412Y-297621689D01*
X675380631Y-297655553D01*
X675613903Y-297692500D01*
X675613908Y-297692500D01*
X675850097Y-297692500D01*
X676083368Y-297655553D01*
X676307992Y-297582568D01*
X676518433Y-297475343D01*
X676709510Y-297336517D01*
X676876517Y-297169510D01*
X677015343Y-296978433D01*
X677122568Y-296767992D01*
X677195553Y-296543368D01*
X677221366Y-296380391D01*
X677232500Y-296310097D01*
X677232500Y-296073902D01*
X677195553Y-295840631D01*
X677140775Y-295672043D01*
X677122568Y-295616008D01*
X677122566Y-295616005D01*
X677122566Y-295616003D01*
X677050456Y-295474481D01*
X677015343Y-295405567D01*
X676876517Y-295214490D01*
X676709510Y-295047483D01*
X676518433Y-294908657D01*
X676307996Y-294801433D01*
X676083368Y-294728446D01*
X675850097Y-294691500D01*
X675850092Y-294691500D01*
X675613908Y-294691500D01*
X675613903Y-294691500D01*
X675380631Y-294728446D01*
X675156003Y-294801433D01*
X674945566Y-294908657D01*
X674836550Y-294987862D01*
X674754490Y-295047483D01*
X674754488Y-295047485D01*
X674754487Y-295047485D01*
X674587485Y-295214487D01*
X674587485Y-295214488D01*
X674587483Y-295214490D01*
X674527862Y-295296550D01*
X674448657Y-295405566D01*
X674341433Y-295616003D01*
X674268446Y-295840631D01*
X674231500Y-296073902D01*
X670732500Y-296073902D01*
X670695553Y-295840631D01*
X670640775Y-295672043D01*
X670622568Y-295616008D01*
X670622566Y-295616005D01*
X670622566Y-295616003D01*
X670550456Y-295474481D01*
X670515343Y-295405567D01*
X670376517Y-295214490D01*
X670209510Y-295047483D01*
X670018433Y-294908657D01*
X669807996Y-294801433D01*
X669583368Y-294728446D01*
X669350097Y-294691500D01*
X669350092Y-294691500D01*
X669113908Y-294691500D01*
X669113903Y-294691500D01*
X668880631Y-294728446D01*
X668656003Y-294801433D01*
X668445566Y-294908657D01*
X668336550Y-294987862D01*
X668254490Y-295047483D01*
X668254488Y-295047485D01*
X668254487Y-295047485D01*
X668087485Y-295214487D01*
X668087485Y-295214488D01*
X668087483Y-295214490D01*
X668027862Y-295296550D01*
X667948657Y-295405566D01*
X667841433Y-295616003D01*
X667768446Y-295840631D01*
X667731500Y-296073902D01*
X647107500Y-296073902D01*
X647107500Y-294470131D01*
X647127185Y-294403092D01*
X647162607Y-294367030D01*
X647242289Y-294313789D01*
X647353789Y-294202289D01*
X647441394Y-294071179D01*
X647501737Y-293925497D01*
X647532500Y-293770842D01*
X647532500Y-293613158D01*
X647532500Y-293613155D01*
X647532499Y-293613153D01*
X647501738Y-293458510D01*
X647501737Y-293458503D01*
X647501735Y-293458498D01*
X647441397Y-293312827D01*
X647441390Y-293312814D01*
X647353789Y-293181711D01*
X647353786Y-293181707D01*
X647242292Y-293070213D01*
X647242288Y-293070210D01*
X647111185Y-292982609D01*
X647111172Y-292982602D01*
X646965501Y-292922264D01*
X646965489Y-292922261D01*
X646810845Y-292891500D01*
X646810842Y-292891500D01*
X646653158Y-292891500D01*
X646653155Y-292891500D01*
X646498510Y-292922261D01*
X646498498Y-292922264D01*
X646352827Y-292982602D01*
X646352814Y-292982609D01*
X646221711Y-293070210D01*
X646221707Y-293070213D01*
X646110213Y-293181707D01*
X646110210Y-293181711D01*
X646022609Y-293312814D01*
X646022602Y-293312827D01*
X645962264Y-293458498D01*
X645962261Y-293458510D01*
X645931500Y-293613153D01*
X645930903Y-293619218D01*
X645930050Y-293619134D01*
X645929873Y-293620020D01*
X645930790Y-293625098D01*
X645922062Y-293659296D01*
X645894347Y-293726207D01*
X645888823Y-293739543D01*
X645880537Y-293759545D01*
X645880535Y-293759553D01*
X645856500Y-293880389D01*
X645856500Y-301399650D01*
X645836815Y-301466689D01*
X645835602Y-301468541D01*
X645772609Y-301562815D01*
X645772602Y-301562828D01*
X645712264Y-301708498D01*
X645712261Y-301708510D01*
X645681500Y-301863153D01*
X642907500Y-301863153D01*
X642907500Y-301850846D01*
X642907500Y-301850843D01*
X642871934Y-301672047D01*
X642871933Y-301672046D01*
X642871933Y-301672042D01*
X642871931Y-301672037D01*
X642802169Y-301503615D01*
X642800482Y-301500459D01*
X642800097Y-301498613D01*
X642799836Y-301497982D01*
X642799955Y-301497932D01*
X642786236Y-301432057D01*
X642800482Y-301383541D01*
X642802163Y-301380394D01*
X642802167Y-301380389D01*
X642871933Y-301211958D01*
X642907500Y-301033154D01*
X642907500Y-300850846D01*
X642907500Y-300850843D01*
X642871934Y-300672047D01*
X642871933Y-300672046D01*
X642871933Y-300672042D01*
X642802167Y-300503611D01*
X642802166Y-300503609D01*
X642800482Y-300500459D01*
X642800097Y-300498613D01*
X642799836Y-300497982D01*
X642799955Y-300497932D01*
X642786236Y-300432057D01*
X642800482Y-300383541D01*
X642802163Y-300380394D01*
X642802167Y-300380389D01*
X642871933Y-300211958D01*
X642907500Y-300033154D01*
X642907500Y-299850846D01*
X642907500Y-299850843D01*
X642871934Y-299672047D01*
X642871933Y-299672046D01*
X642871933Y-299672042D01*
X642802167Y-299503611D01*
X642802166Y-299503609D01*
X642800482Y-299500459D01*
X642800097Y-299498613D01*
X642799836Y-299497982D01*
X642799955Y-299497932D01*
X642786236Y-299432057D01*
X642800482Y-299383541D01*
X642802163Y-299380394D01*
X642802167Y-299380389D01*
X642871933Y-299211958D01*
X642907500Y-299033154D01*
X642907500Y-298850846D01*
X642907500Y-298850843D01*
X642871934Y-298672047D01*
X642871933Y-298672046D01*
X642871933Y-298672042D01*
X642802167Y-298503611D01*
X642802166Y-298503609D01*
X642800482Y-298500459D01*
X642800097Y-298498613D01*
X642799836Y-298497982D01*
X642799955Y-298497932D01*
X642786236Y-298432057D01*
X642800482Y-298383541D01*
X642802163Y-298380394D01*
X642802167Y-298380389D01*
X642871933Y-298211958D01*
X642907500Y-298033154D01*
X642907500Y-297850846D01*
X642907500Y-297850843D01*
X642871934Y-297672047D01*
X642871933Y-297672046D01*
X642871933Y-297672042D01*
X642834871Y-297582566D01*
X642802168Y-297503612D01*
X642802166Y-297503608D01*
X642700886Y-297352032D01*
X642700880Y-297352024D01*
X642571975Y-297223119D01*
X642571967Y-297223113D01*
X642420391Y-297121833D01*
X642420387Y-297121831D01*
X642262808Y-297056561D01*
X642208404Y-297012720D01*
X642186339Y-296946426D01*
X642203618Y-296878727D01*
X642254755Y-296831116D01*
X642262808Y-296827439D01*
X642420387Y-296762168D01*
X642420391Y-296762166D01*
X642495672Y-296711864D01*
X642571972Y-296660883D01*
X642700883Y-296531972D01*
X642802167Y-296380389D01*
X642871933Y-296211958D01*
X642883572Y-296153445D01*
X642907500Y-296033156D01*
X642907500Y-295850843D01*
X642871934Y-295672046D01*
X642871933Y-295672043D01*
X642871933Y-295672042D01*
X642867174Y-295660555D01*
X642859703Y-295591088D01*
X642865548Y-295569776D01*
X642901091Y-295474483D01*
X642907500Y-295414873D01*
X642907499Y-294469128D01*
X642901091Y-294409517D01*
X642898629Y-294402917D01*
X642850797Y-294274671D01*
X642850793Y-294274664D01*
X642764547Y-294159455D01*
X642764544Y-294159452D01*
X642649335Y-294073206D01*
X642649328Y-294073202D01*
X642514482Y-294022908D01*
X642514483Y-294022908D01*
X642454883Y-294016501D01*
X642454881Y-294016500D01*
X642454873Y-294016500D01*
X642454864Y-294016500D01*
X641509129Y-294016500D01*
X641509123Y-294016501D01*
X641449516Y-294022908D01*
X641314671Y-294073202D01*
X641314664Y-294073206D01*
X641199455Y-294159452D01*
X641199452Y-294159455D01*
X641113206Y-294274664D01*
X641113202Y-294274671D01*
X641062908Y-294409517D01*
X641056501Y-294469116D01*
X641056501Y-294469123D01*
X641056500Y-294469135D01*
X641056500Y-295414870D01*
X641056501Y-295414876D01*
X641062908Y-295474483D01*
X641098447Y-295569765D01*
X641103431Y-295639456D01*
X641096828Y-295660545D01*
X641092069Y-295672034D01*
X641092065Y-295672047D01*
X641056500Y-295850843D01*
X641056500Y-295850846D01*
X641056500Y-296033154D01*
X641056500Y-296033156D01*
X641056499Y-296033156D01*
X637382500Y-296033156D01*
X637382500Y-273175713D01*
X652131500Y-273175713D01*
X652131500Y-273388286D01*
X652164753Y-273598239D01*
X652230444Y-273800414D01*
X652326951Y-273989820D01*
X652451890Y-274161786D01*
X652602213Y-274312109D01*
X652774182Y-274437050D01*
X652782946Y-274441516D01*
X652833742Y-274489491D01*
X652850536Y-274557312D01*
X652827998Y-274623447D01*
X652782946Y-274662484D01*
X652774182Y-274666949D01*
X652602213Y-274791890D01*
X652451890Y-274942213D01*
X652326951Y-275114179D01*
X652230444Y-275303585D01*
X652164753Y-275505760D01*
X652131500Y-275715713D01*
X652131500Y-275928286D01*
X652164753Y-276138239D01*
X652230444Y-276340414D01*
X652326951Y-276529820D01*
X652451890Y-276701786D01*
X652602213Y-276852109D01*
X652774182Y-276977050D01*
X652782946Y-276981516D01*
X652833742Y-277029491D01*
X652850536Y-277097312D01*
X652827998Y-277163447D01*
X652782946Y-277202484D01*
X652774182Y-277206949D01*
X652602213Y-277331890D01*
X652451890Y-277482213D01*
X652326951Y-277654179D01*
X652230444Y-277843585D01*
X652164753Y-278045760D01*
X652131500Y-278255713D01*
X652131500Y-278468286D01*
X652164753Y-278678239D01*
X652230444Y-278880414D01*
X652326951Y-279069820D01*
X652451890Y-279241786D01*
X652602213Y-279392109D01*
X652774182Y-279517050D01*
X652782946Y-279521516D01*
X652833742Y-279569491D01*
X652850536Y-279637312D01*
X652827998Y-279703447D01*
X652782946Y-279742484D01*
X652774182Y-279746949D01*
X652602213Y-279871890D01*
X652451890Y-280022213D01*
X652326951Y-280194179D01*
X652230444Y-280383585D01*
X652164753Y-280585760D01*
X652131500Y-280795713D01*
X652131500Y-281008286D01*
X652164753Y-281218239D01*
X652230444Y-281420414D01*
X652326951Y-281609820D01*
X652451890Y-281781786D01*
X652602213Y-281932109D01*
X652774179Y-282057048D01*
X652774181Y-282057049D01*
X652774184Y-282057051D01*
X652963588Y-282153557D01*
X653165757Y-282219246D01*
X653375713Y-282252500D01*
X653375714Y-282252500D01*
X653588286Y-282252500D01*
X653588287Y-282252500D01*
X653798243Y-282219246D01*
X654000412Y-282153557D01*
X654189816Y-282057051D01*
X654211789Y-282041086D01*
X654361786Y-281932109D01*
X654361788Y-281932106D01*
X654361792Y-281932104D01*
X654512104Y-281781792D01*
X654512106Y-281781788D01*
X654512109Y-281781786D01*
X654637048Y-281609820D01*
X654637047Y-281609820D01*
X654637051Y-281609816D01*
X654733557Y-281420412D01*
X654799246Y-281218243D01*
X654832500Y-281008287D01*
X654832500Y-280795713D01*
X654799246Y-280585757D01*
X654733557Y-280383588D01*
X654637051Y-280194184D01*
X654637049Y-280194181D01*
X654637048Y-280194179D01*
X654512109Y-280022213D01*
X654361786Y-279871890D01*
X654189820Y-279746951D01*
X654189115Y-279746591D01*
X654181054Y-279742485D01*
X654130259Y-279694512D01*
X654113463Y-279626692D01*
X654135999Y-279560556D01*
X654181054Y-279521515D01*
X654189816Y-279517051D01*
X654211789Y-279501086D01*
X654361786Y-279392109D01*
X654361788Y-279392106D01*
X654361792Y-279392104D01*
X654512104Y-279241792D01*
X654512106Y-279241788D01*
X654512109Y-279241786D01*
X654637048Y-279069820D01*
X654637047Y-279069820D01*
X654637051Y-279069816D01*
X654733557Y-278880412D01*
X654799246Y-278678243D01*
X654832500Y-278468287D01*
X654832500Y-278255713D01*
X654799246Y-278045757D01*
X654733557Y-277843588D01*
X654637051Y-277654184D01*
X654637049Y-277654181D01*
X654637048Y-277654179D01*
X654512109Y-277482213D01*
X654361786Y-277331890D01*
X654189820Y-277206951D01*
X654189115Y-277206591D01*
X654181054Y-277202485D01*
X654130259Y-277154512D01*
X654113463Y-277086692D01*
X654135999Y-277020556D01*
X654181054Y-276981515D01*
X654189816Y-276977051D01*
X654211789Y-276961086D01*
X654361786Y-276852109D01*
X654361788Y-276852106D01*
X654361792Y-276852104D01*
X654512104Y-276701792D01*
X654512106Y-276701788D01*
X654512109Y-276701786D01*
X654637048Y-276529820D01*
X654637047Y-276529820D01*
X654637051Y-276529816D01*
X654733557Y-276340412D01*
X654799246Y-276138243D01*
X654832500Y-275928287D01*
X654832500Y-275715713D01*
X654799246Y-275505757D01*
X654733557Y-275303588D01*
X654637051Y-275114184D01*
X654637049Y-275114181D01*
X654637048Y-275114179D01*
X654512109Y-274942213D01*
X654361786Y-274791890D01*
X654189820Y-274666951D01*
X654189115Y-274666591D01*
X654181054Y-274662485D01*
X654130259Y-274614512D01*
X654113463Y-274546692D01*
X654135999Y-274480556D01*
X654181054Y-274441515D01*
X654189816Y-274437051D01*
X654211789Y-274421086D01*
X654361786Y-274312109D01*
X654361788Y-274312106D01*
X654361792Y-274312104D01*
X654512104Y-274161792D01*
X654512106Y-274161788D01*
X654512109Y-274161786D01*
X654637048Y-273989820D01*
X654637047Y-273989820D01*
X654637051Y-273989816D01*
X654733557Y-273800412D01*
X654799246Y-273598243D01*
X654832500Y-273388287D01*
X654832500Y-273175713D01*
X654799246Y-272965757D01*
X654733557Y-272763588D01*
X654637051Y-272574184D01*
X654637049Y-272574181D01*
X654637048Y-272574179D01*
X654512109Y-272402213D01*
X654361786Y-272251890D01*
X654189820Y-272126951D01*
X654000414Y-272030444D01*
X654000413Y-272030443D01*
X654000412Y-272030443D01*
X653798243Y-271964754D01*
X653798241Y-271964753D01*
X653798240Y-271964753D01*
X653636957Y-271939208D01*
X653588287Y-271931500D01*
X653375713Y-271931500D01*
X653327042Y-271939208D01*
X653165760Y-271964753D01*
X652963585Y-272030444D01*
X652774179Y-272126951D01*
X652602213Y-272251890D01*
X652451890Y-272402213D01*
X652326951Y-272574179D01*
X652230444Y-272763585D01*
X652164753Y-272965760D01*
X652131500Y-273175713D01*
X637382500Y-273175713D01*
X637382500Y-260966500D01*
X637402185Y-260899461D01*
X637454989Y-260853706D01*
X637506500Y-260842500D01*
X706957500Y-260842500D01*
X707024539Y-260862185D01*
G37*
%TD.AperFunction*%
%TD*%
M02*
