%TF.GenerationSoftware,KiCad,Pcbnew,10.0.1*%
%TF.CreationDate,2026-05-09T17:32:53+05:30*%
%TF.ProjectId,Handheld Gaming device PCB,48616e64-6865-46c6-9420-47616d696e67,rev?*%
%TF.SameCoordinates,Original*%
%TF.FileFunction,Legend,Bot*%
%TF.FilePolarity,Positive*%
%FSLAX46Y46*%
G04 Gerber Fmt 4.6, Leading zero omitted, Abs format (unit mm)*
G04 Created by KiCad (PCBNEW 10.0.1) date 2026-05-09 17:32:53*
%MOMM*%
%LPD*%
G01*
G04 APERTURE LIST*
%ADD10C,0.150000*%
%ADD11C,0.120000*%
G04 APERTURE END LIST*
D10*
X176331819Y-238042142D02*
X175855628Y-237708809D01*
X176331819Y-237470714D02*
X175331819Y-237470714D01*
X175331819Y-237470714D02*
X175331819Y-237851666D01*
X175331819Y-237851666D02*
X175379438Y-237946904D01*
X175379438Y-237946904D02*
X175427057Y-237994523D01*
X175427057Y-237994523D02*
X175522295Y-238042142D01*
X175522295Y-238042142D02*
X175665152Y-238042142D01*
X175665152Y-238042142D02*
X175760390Y-237994523D01*
X175760390Y-237994523D02*
X175808009Y-237946904D01*
X175808009Y-237946904D02*
X175855628Y-237851666D01*
X175855628Y-237851666D02*
X175855628Y-237470714D01*
X176331819Y-238994523D02*
X176331819Y-238423095D01*
X176331819Y-238708809D02*
X175331819Y-238708809D01*
X175331819Y-238708809D02*
X175474676Y-238613571D01*
X175474676Y-238613571D02*
X175569914Y-238518333D01*
X175569914Y-238518333D02*
X175617533Y-238423095D01*
X176331819Y-239946904D02*
X176331819Y-239375476D01*
X176331819Y-239661190D02*
X175331819Y-239661190D01*
X175331819Y-239661190D02*
X175474676Y-239565952D01*
X175474676Y-239565952D02*
X175569914Y-239470714D01*
X175569914Y-239470714D02*
X175617533Y-239375476D01*
X213189857Y-198989819D02*
X213523190Y-198513628D01*
X213761285Y-198989819D02*
X213761285Y-197989819D01*
X213761285Y-197989819D02*
X213380333Y-197989819D01*
X213380333Y-197989819D02*
X213285095Y-198037438D01*
X213285095Y-198037438D02*
X213237476Y-198085057D01*
X213237476Y-198085057D02*
X213189857Y-198180295D01*
X213189857Y-198180295D02*
X213189857Y-198323152D01*
X213189857Y-198323152D02*
X213237476Y-198418390D01*
X213237476Y-198418390D02*
X213285095Y-198466009D01*
X213285095Y-198466009D02*
X213380333Y-198513628D01*
X213380333Y-198513628D02*
X213761285Y-198513628D01*
X212808904Y-198085057D02*
X212761285Y-198037438D01*
X212761285Y-198037438D02*
X212666047Y-197989819D01*
X212666047Y-197989819D02*
X212427952Y-197989819D01*
X212427952Y-197989819D02*
X212332714Y-198037438D01*
X212332714Y-198037438D02*
X212285095Y-198085057D01*
X212285095Y-198085057D02*
X212237476Y-198180295D01*
X212237476Y-198180295D02*
X212237476Y-198275533D01*
X212237476Y-198275533D02*
X212285095Y-198418390D01*
X212285095Y-198418390D02*
X212856523Y-198989819D01*
X212856523Y-198989819D02*
X212237476Y-198989819D01*
X211380333Y-198323152D02*
X211380333Y-198989819D01*
X211618428Y-197942200D02*
X211856523Y-198656485D01*
X211856523Y-198656485D02*
X211237476Y-198656485D01*
X164091819Y-251692142D02*
X163615628Y-251358809D01*
X164091819Y-251120714D02*
X163091819Y-251120714D01*
X163091819Y-251120714D02*
X163091819Y-251501666D01*
X163091819Y-251501666D02*
X163139438Y-251596904D01*
X163139438Y-251596904D02*
X163187057Y-251644523D01*
X163187057Y-251644523D02*
X163282295Y-251692142D01*
X163282295Y-251692142D02*
X163425152Y-251692142D01*
X163425152Y-251692142D02*
X163520390Y-251644523D01*
X163520390Y-251644523D02*
X163568009Y-251596904D01*
X163568009Y-251596904D02*
X163615628Y-251501666D01*
X163615628Y-251501666D02*
X163615628Y-251120714D01*
X163187057Y-252073095D02*
X163139438Y-252120714D01*
X163139438Y-252120714D02*
X163091819Y-252215952D01*
X163091819Y-252215952D02*
X163091819Y-252454047D01*
X163091819Y-252454047D02*
X163139438Y-252549285D01*
X163139438Y-252549285D02*
X163187057Y-252596904D01*
X163187057Y-252596904D02*
X163282295Y-252644523D01*
X163282295Y-252644523D02*
X163377533Y-252644523D01*
X163377533Y-252644523D02*
X163520390Y-252596904D01*
X163520390Y-252596904D02*
X164091819Y-252025476D01*
X164091819Y-252025476D02*
X164091819Y-252644523D01*
X163187057Y-253025476D02*
X163139438Y-253073095D01*
X163139438Y-253073095D02*
X163091819Y-253168333D01*
X163091819Y-253168333D02*
X163091819Y-253406428D01*
X163091819Y-253406428D02*
X163139438Y-253501666D01*
X163139438Y-253501666D02*
X163187057Y-253549285D01*
X163187057Y-253549285D02*
X163282295Y-253596904D01*
X163282295Y-253596904D02*
X163377533Y-253596904D01*
X163377533Y-253596904D02*
X163520390Y-253549285D01*
X163520390Y-253549285D02*
X164091819Y-252977857D01*
X164091819Y-252977857D02*
X164091819Y-253596904D01*
X208709857Y-196649819D02*
X209043190Y-196173628D01*
X209281285Y-196649819D02*
X209281285Y-195649819D01*
X209281285Y-195649819D02*
X208900333Y-195649819D01*
X208900333Y-195649819D02*
X208805095Y-195697438D01*
X208805095Y-195697438D02*
X208757476Y-195745057D01*
X208757476Y-195745057D02*
X208709857Y-195840295D01*
X208709857Y-195840295D02*
X208709857Y-195983152D01*
X208709857Y-195983152D02*
X208757476Y-196078390D01*
X208757476Y-196078390D02*
X208805095Y-196126009D01*
X208805095Y-196126009D02*
X208900333Y-196173628D01*
X208900333Y-196173628D02*
X209281285Y-196173628D01*
X207757476Y-196649819D02*
X208328904Y-196649819D01*
X208043190Y-196649819D02*
X208043190Y-195649819D01*
X208043190Y-195649819D02*
X208138428Y-195792676D01*
X208138428Y-195792676D02*
X208233666Y-195887914D01*
X208233666Y-195887914D02*
X208328904Y-195935533D01*
X206900333Y-195983152D02*
X206900333Y-196649819D01*
X207138428Y-195602200D02*
X207376523Y-196316485D01*
X207376523Y-196316485D02*
X206757476Y-196316485D01*
X166331819Y-229042142D02*
X165855628Y-228708809D01*
X166331819Y-228470714D02*
X165331819Y-228470714D01*
X165331819Y-228470714D02*
X165331819Y-228851666D01*
X165331819Y-228851666D02*
X165379438Y-228946904D01*
X165379438Y-228946904D02*
X165427057Y-228994523D01*
X165427057Y-228994523D02*
X165522295Y-229042142D01*
X165522295Y-229042142D02*
X165665152Y-229042142D01*
X165665152Y-229042142D02*
X165760390Y-228994523D01*
X165760390Y-228994523D02*
X165808009Y-228946904D01*
X165808009Y-228946904D02*
X165855628Y-228851666D01*
X165855628Y-228851666D02*
X165855628Y-228470714D01*
X166331819Y-229994523D02*
X166331819Y-229423095D01*
X166331819Y-229708809D02*
X165331819Y-229708809D01*
X165331819Y-229708809D02*
X165474676Y-229613571D01*
X165474676Y-229613571D02*
X165569914Y-229518333D01*
X165569914Y-229518333D02*
X165617533Y-229423095D01*
X165427057Y-230375476D02*
X165379438Y-230423095D01*
X165379438Y-230423095D02*
X165331819Y-230518333D01*
X165331819Y-230518333D02*
X165331819Y-230756428D01*
X165331819Y-230756428D02*
X165379438Y-230851666D01*
X165379438Y-230851666D02*
X165427057Y-230899285D01*
X165427057Y-230899285D02*
X165522295Y-230946904D01*
X165522295Y-230946904D02*
X165617533Y-230946904D01*
X165617533Y-230946904D02*
X165760390Y-230899285D01*
X165760390Y-230899285D02*
X166331819Y-230327857D01*
X166331819Y-230327857D02*
X166331819Y-230946904D01*
X201921819Y-229312142D02*
X201445628Y-228978809D01*
X201921819Y-228740714D02*
X200921819Y-228740714D01*
X200921819Y-228740714D02*
X200921819Y-229121666D01*
X200921819Y-229121666D02*
X200969438Y-229216904D01*
X200969438Y-229216904D02*
X201017057Y-229264523D01*
X201017057Y-229264523D02*
X201112295Y-229312142D01*
X201112295Y-229312142D02*
X201255152Y-229312142D01*
X201255152Y-229312142D02*
X201350390Y-229264523D01*
X201350390Y-229264523D02*
X201398009Y-229216904D01*
X201398009Y-229216904D02*
X201445628Y-229121666D01*
X201445628Y-229121666D02*
X201445628Y-228740714D01*
X201921819Y-230264523D02*
X201921819Y-229693095D01*
X201921819Y-229978809D02*
X200921819Y-229978809D01*
X200921819Y-229978809D02*
X201064676Y-229883571D01*
X201064676Y-229883571D02*
X201159914Y-229788333D01*
X201159914Y-229788333D02*
X201207533Y-229693095D01*
X200921819Y-230597857D02*
X200921819Y-231216904D01*
X200921819Y-231216904D02*
X201302771Y-230883571D01*
X201302771Y-230883571D02*
X201302771Y-231026428D01*
X201302771Y-231026428D02*
X201350390Y-231121666D01*
X201350390Y-231121666D02*
X201398009Y-231169285D01*
X201398009Y-231169285D02*
X201493247Y-231216904D01*
X201493247Y-231216904D02*
X201731342Y-231216904D01*
X201731342Y-231216904D02*
X201826580Y-231169285D01*
X201826580Y-231169285D02*
X201874200Y-231121666D01*
X201874200Y-231121666D02*
X201921819Y-231026428D01*
X201921819Y-231026428D02*
X201921819Y-230740714D01*
X201921819Y-230740714D02*
X201874200Y-230645476D01*
X201874200Y-230645476D02*
X201826580Y-230597857D01*
X208709857Y-202739819D02*
X209043190Y-202263628D01*
X209281285Y-202739819D02*
X209281285Y-201739819D01*
X209281285Y-201739819D02*
X208900333Y-201739819D01*
X208900333Y-201739819D02*
X208805095Y-201787438D01*
X208805095Y-201787438D02*
X208757476Y-201835057D01*
X208757476Y-201835057D02*
X208709857Y-201930295D01*
X208709857Y-201930295D02*
X208709857Y-202073152D01*
X208709857Y-202073152D02*
X208757476Y-202168390D01*
X208757476Y-202168390D02*
X208805095Y-202216009D01*
X208805095Y-202216009D02*
X208900333Y-202263628D01*
X208900333Y-202263628D02*
X209281285Y-202263628D01*
X207757476Y-202739819D02*
X208328904Y-202739819D01*
X208043190Y-202739819D02*
X208043190Y-201739819D01*
X208043190Y-201739819D02*
X208138428Y-201882676D01*
X208138428Y-201882676D02*
X208233666Y-201977914D01*
X208233666Y-201977914D02*
X208328904Y-202025533D01*
X206852714Y-201739819D02*
X207328904Y-201739819D01*
X207328904Y-201739819D02*
X207376523Y-202216009D01*
X207376523Y-202216009D02*
X207328904Y-202168390D01*
X207328904Y-202168390D02*
X207233666Y-202120771D01*
X207233666Y-202120771D02*
X206995571Y-202120771D01*
X206995571Y-202120771D02*
X206900333Y-202168390D01*
X206900333Y-202168390D02*
X206852714Y-202216009D01*
X206852714Y-202216009D02*
X206805095Y-202311247D01*
X206805095Y-202311247D02*
X206805095Y-202549342D01*
X206805095Y-202549342D02*
X206852714Y-202644580D01*
X206852714Y-202644580D02*
X206900333Y-202692200D01*
X206900333Y-202692200D02*
X206995571Y-202739819D01*
X206995571Y-202739819D02*
X207233666Y-202739819D01*
X207233666Y-202739819D02*
X207328904Y-202692200D01*
X207328904Y-202692200D02*
X207376523Y-202644580D01*
X213209857Y-200399819D02*
X213543190Y-199923628D01*
X213781285Y-200399819D02*
X213781285Y-199399819D01*
X213781285Y-199399819D02*
X213400333Y-199399819D01*
X213400333Y-199399819D02*
X213305095Y-199447438D01*
X213305095Y-199447438D02*
X213257476Y-199495057D01*
X213257476Y-199495057D02*
X213209857Y-199590295D01*
X213209857Y-199590295D02*
X213209857Y-199733152D01*
X213209857Y-199733152D02*
X213257476Y-199828390D01*
X213257476Y-199828390D02*
X213305095Y-199876009D01*
X213305095Y-199876009D02*
X213400333Y-199923628D01*
X213400333Y-199923628D02*
X213781285Y-199923628D01*
X212828904Y-199495057D02*
X212781285Y-199447438D01*
X212781285Y-199447438D02*
X212686047Y-199399819D01*
X212686047Y-199399819D02*
X212447952Y-199399819D01*
X212447952Y-199399819D02*
X212352714Y-199447438D01*
X212352714Y-199447438D02*
X212305095Y-199495057D01*
X212305095Y-199495057D02*
X212257476Y-199590295D01*
X212257476Y-199590295D02*
X212257476Y-199685533D01*
X212257476Y-199685533D02*
X212305095Y-199828390D01*
X212305095Y-199828390D02*
X212876523Y-200399819D01*
X212876523Y-200399819D02*
X212257476Y-200399819D01*
X211352714Y-199399819D02*
X211828904Y-199399819D01*
X211828904Y-199399819D02*
X211876523Y-199876009D01*
X211876523Y-199876009D02*
X211828904Y-199828390D01*
X211828904Y-199828390D02*
X211733666Y-199780771D01*
X211733666Y-199780771D02*
X211495571Y-199780771D01*
X211495571Y-199780771D02*
X211400333Y-199828390D01*
X211400333Y-199828390D02*
X211352714Y-199876009D01*
X211352714Y-199876009D02*
X211305095Y-199971247D01*
X211305095Y-199971247D02*
X211305095Y-200209342D01*
X211305095Y-200209342D02*
X211352714Y-200304580D01*
X211352714Y-200304580D02*
X211400333Y-200352200D01*
X211400333Y-200352200D02*
X211495571Y-200399819D01*
X211495571Y-200399819D02*
X211733666Y-200399819D01*
X211733666Y-200399819D02*
X211828904Y-200352200D01*
X211828904Y-200352200D02*
X211876523Y-200304580D01*
X192421819Y-220312142D02*
X191945628Y-219978809D01*
X192421819Y-219740714D02*
X191421819Y-219740714D01*
X191421819Y-219740714D02*
X191421819Y-220121666D01*
X191421819Y-220121666D02*
X191469438Y-220216904D01*
X191469438Y-220216904D02*
X191517057Y-220264523D01*
X191517057Y-220264523D02*
X191612295Y-220312142D01*
X191612295Y-220312142D02*
X191755152Y-220312142D01*
X191755152Y-220312142D02*
X191850390Y-220264523D01*
X191850390Y-220264523D02*
X191898009Y-220216904D01*
X191898009Y-220216904D02*
X191945628Y-220121666D01*
X191945628Y-220121666D02*
X191945628Y-219740714D01*
X192421819Y-221264523D02*
X192421819Y-220693095D01*
X192421819Y-220978809D02*
X191421819Y-220978809D01*
X191421819Y-220978809D02*
X191564676Y-220883571D01*
X191564676Y-220883571D02*
X191659914Y-220788333D01*
X191659914Y-220788333D02*
X191707533Y-220693095D01*
X191421819Y-221883571D02*
X191421819Y-221978809D01*
X191421819Y-221978809D02*
X191469438Y-222074047D01*
X191469438Y-222074047D02*
X191517057Y-222121666D01*
X191517057Y-222121666D02*
X191612295Y-222169285D01*
X191612295Y-222169285D02*
X191802771Y-222216904D01*
X191802771Y-222216904D02*
X192040866Y-222216904D01*
X192040866Y-222216904D02*
X192231342Y-222169285D01*
X192231342Y-222169285D02*
X192326580Y-222121666D01*
X192326580Y-222121666D02*
X192374200Y-222074047D01*
X192374200Y-222074047D02*
X192421819Y-221978809D01*
X192421819Y-221978809D02*
X192421819Y-221883571D01*
X192421819Y-221883571D02*
X192374200Y-221788333D01*
X192374200Y-221788333D02*
X192326580Y-221740714D01*
X192326580Y-221740714D02*
X192231342Y-221693095D01*
X192231342Y-221693095D02*
X192040866Y-221645476D01*
X192040866Y-221645476D02*
X191802771Y-221645476D01*
X191802771Y-221645476D02*
X191612295Y-221693095D01*
X191612295Y-221693095D02*
X191517057Y-221740714D01*
X191517057Y-221740714D02*
X191469438Y-221788333D01*
X191469438Y-221788333D02*
X191421819Y-221883571D01*
X204011819Y-252222142D02*
X203535628Y-251888809D01*
X204011819Y-251650714D02*
X203011819Y-251650714D01*
X203011819Y-251650714D02*
X203011819Y-252031666D01*
X203011819Y-252031666D02*
X203059438Y-252126904D01*
X203059438Y-252126904D02*
X203107057Y-252174523D01*
X203107057Y-252174523D02*
X203202295Y-252222142D01*
X203202295Y-252222142D02*
X203345152Y-252222142D01*
X203345152Y-252222142D02*
X203440390Y-252174523D01*
X203440390Y-252174523D02*
X203488009Y-252126904D01*
X203488009Y-252126904D02*
X203535628Y-252031666D01*
X203535628Y-252031666D02*
X203535628Y-251650714D01*
X203107057Y-252603095D02*
X203059438Y-252650714D01*
X203059438Y-252650714D02*
X203011819Y-252745952D01*
X203011819Y-252745952D02*
X203011819Y-252984047D01*
X203011819Y-252984047D02*
X203059438Y-253079285D01*
X203059438Y-253079285D02*
X203107057Y-253126904D01*
X203107057Y-253126904D02*
X203202295Y-253174523D01*
X203202295Y-253174523D02*
X203297533Y-253174523D01*
X203297533Y-253174523D02*
X203440390Y-253126904D01*
X203440390Y-253126904D02*
X204011819Y-252555476D01*
X204011819Y-252555476D02*
X204011819Y-253174523D01*
X203011819Y-253507857D02*
X203011819Y-254126904D01*
X203011819Y-254126904D02*
X203392771Y-253793571D01*
X203392771Y-253793571D02*
X203392771Y-253936428D01*
X203392771Y-253936428D02*
X203440390Y-254031666D01*
X203440390Y-254031666D02*
X203488009Y-254079285D01*
X203488009Y-254079285D02*
X203583247Y-254126904D01*
X203583247Y-254126904D02*
X203821342Y-254126904D01*
X203821342Y-254126904D02*
X203916580Y-254079285D01*
X203916580Y-254079285D02*
X203964200Y-254031666D01*
X203964200Y-254031666D02*
X204011819Y-253936428D01*
X204011819Y-253936428D02*
X204011819Y-253650714D01*
X204011819Y-253650714D02*
X203964200Y-253555476D01*
X203964200Y-253555476D02*
X203916580Y-253507857D01*
%TO.C,R11*%
D11*
X176667000Y-238531359D02*
X176667000Y-238838641D01*
X177427000Y-238531359D02*
X177427000Y-238838641D01*
%TO.C,R24*%
X212393359Y-196985000D02*
X212700641Y-196985000D01*
X212393359Y-197745000D02*
X212700641Y-197745000D01*
%TO.C,R22*%
X164427000Y-252181359D02*
X164427000Y-252488641D01*
X165187000Y-252181359D02*
X165187000Y-252488641D01*
%TO.C,R14*%
X208220641Y-196985000D02*
X207913359Y-196985000D01*
X208220641Y-197745000D02*
X207913359Y-197745000D01*
%TO.C,R12*%
X166667000Y-229531359D02*
X166667000Y-229838641D01*
X167427000Y-229531359D02*
X167427000Y-229838641D01*
%TO.C,R13*%
X199917000Y-230108641D02*
X199917000Y-229801359D01*
X200677000Y-230108641D02*
X200677000Y-229801359D01*
%TO.C,R15*%
X207913359Y-200735000D02*
X208220641Y-200735000D01*
X207913359Y-201495000D02*
X208220641Y-201495000D01*
%TO.C,R25*%
X212720641Y-200735000D02*
X212413359Y-200735000D01*
X212720641Y-201495000D02*
X212413359Y-201495000D01*
%TO.C,R10*%
X190417000Y-221108641D02*
X190417000Y-220801359D01*
X191177000Y-221108641D02*
X191177000Y-220801359D01*
%TO.C,R23*%
X201927000Y-253258641D02*
X201927000Y-252951359D01*
X202687000Y-253258641D02*
X202687000Y-252951359D01*
%TD*%
M02*
