%TF.GenerationSoftware,KiCad,Pcbnew,10.0.1*%
%TF.CreationDate,2026-05-09T17:30:17+05:30*%
%TF.ProjectId,Handheld Gaming device PCB,48616e64-6865-46c6-9420-47616d696e67,rev?*%
%TF.SameCoordinates,Original*%
%TF.FileFunction,Paste,Bot*%
%TF.FilePolarity,Positive*%
%FSLAX46Y46*%
G04 Gerber Fmt 4.6, Leading zero omitted, Abs format (unit mm)*
G04 Created by KiCad (PCBNEW 10.0.1) date 2026-05-09 17:30:17*
%MOMM*%
%LPD*%
G01*
G04 APERTURE LIST*
G04 Aperture macros list*
%AMRoundRect*
0 Rectangle with rounded corners*
0 $1 Rounding radius*
0 $2 $3 $4 $5 $6 $7 $8 $9 X,Y pos of 4 corners*
0 Add a 4 corners polygon primitive as box body*
4,1,4,$2,$3,$4,$5,$6,$7,$8,$9,$2,$3,0*
0 Add four circle primitives for the rounded corners*
1,1,$1+$1,$2,$3*
1,1,$1+$1,$4,$5*
1,1,$1+$1,$6,$7*
1,1,$1+$1,$8,$9*
0 Add four rect primitives between the rounded corners*
20,1,$1+$1,$2,$3,$4,$5,0*
20,1,$1+$1,$4,$5,$6,$7,0*
20,1,$1+$1,$6,$7,$8,$9,0*
20,1,$1+$1,$8,$9,$2,$3,0*%
G04 Aperture macros list end*
%ADD10RoundRect,0.225000X0.225000X0.375000X-0.225000X0.375000X-0.225000X-0.375000X0.225000X-0.375000X0*%
%ADD11RoundRect,0.135000X0.135000X0.185000X-0.135000X0.185000X-0.135000X-0.185000X0.135000X-0.185000X0*%
%ADD12R,2.900000X5.400000*%
%ADD13RoundRect,0.250000X0.250000X0.475000X-0.250000X0.475000X-0.250000X-0.475000X0.250000X-0.475000X0*%
%ADD14RoundRect,0.135000X-0.135000X-0.185000X0.135000X-0.185000X0.135000X0.185000X-0.135000X0.185000X0*%
%ADD15RoundRect,0.140000X-0.140000X-0.170000X0.140000X-0.170000X0.140000X0.170000X-0.140000X0.170000X0*%
%ADD16RoundRect,0.125000X0.125000X0.125000X-0.125000X0.125000X-0.125000X-0.125000X0.125000X-0.125000X0*%
%ADD17RoundRect,0.062500X0.350000X0.062500X-0.350000X0.062500X-0.350000X-0.062500X0.350000X-0.062500X0*%
%ADD18RoundRect,0.062500X0.062500X0.350000X-0.062500X0.350000X-0.062500X-0.350000X0.062500X-0.350000X0*%
%ADD19RoundRect,0.250000X0.255000X0.440000X-0.255000X0.440000X-0.255000X-0.440000X0.255000X-0.440000X0*%
%ADD20RoundRect,0.150000X0.825000X0.150000X-0.825000X0.150000X-0.825000X-0.150000X0.825000X-0.150000X0*%
%ADD21RoundRect,0.250000X-0.250000X-0.475000X0.250000X-0.475000X0.250000X0.475000X-0.250000X0.475000X0*%
%ADD22RoundRect,0.075000X0.650000X0.075000X-0.650000X0.075000X-0.650000X-0.075000X0.650000X-0.075000X0*%
%ADD23RoundRect,0.150000X0.512500X0.150000X-0.512500X0.150000X-0.512500X-0.150000X0.512500X-0.150000X0*%
G04 APERTURE END LIST*
D10*
%TO.C,D3*%
X545000000Y-203250000D03*
X541700000Y-203250000D03*
%TD*%
D11*
%TO.C,R2*%
X493664315Y-217585685D03*
X492644315Y-217585685D03*
%TD*%
D12*
%TO.C,L1*%
X537450000Y-203250000D03*
X527750000Y-203250000D03*
%TD*%
D11*
%TO.C,R18*%
X397750000Y-225750000D03*
X396730000Y-225750000D03*
%TD*%
D13*
%TO.C,C2*%
X489664315Y-224835685D03*
X487764315Y-224835685D03*
%TD*%
D14*
%TO.C,R17*%
X497230000Y-203250000D03*
X498250000Y-203250000D03*
%TD*%
D11*
%TO.C,R21*%
X504500000Y-261250000D03*
X503480000Y-261250000D03*
%TD*%
D13*
%TO.C,C1*%
X509450000Y-223000000D03*
X507550000Y-223000000D03*
%TD*%
D11*
%TO.C,R5*%
X527000000Y-216250000D03*
X525980000Y-216250000D03*
%TD*%
D15*
%TO.C,C6*%
X425580000Y-216160000D03*
X426540000Y-216160000D03*
%TD*%
D13*
%TO.C,C5*%
X427040000Y-211910000D03*
X425140000Y-211910000D03*
%TD*%
D11*
%TO.C,R20*%
X504500000Y-263750000D03*
X503480000Y-263750000D03*
%TD*%
D16*
%TO.C,U4*%
X518810000Y-262622500D03*
X518810000Y-262002500D03*
X518190000Y-262622500D03*
X518190000Y-262002500D03*
D17*
X519937500Y-261562500D03*
X519937500Y-262062500D03*
X519937500Y-262562500D03*
X519937500Y-263062500D03*
D18*
X519250000Y-263750000D03*
X518750000Y-263750000D03*
X518250000Y-263750000D03*
X517750000Y-263750000D03*
D17*
X517062500Y-263062500D03*
X517062500Y-262562500D03*
X517062500Y-262062500D03*
X517062500Y-261562500D03*
D18*
X517750000Y-260875000D03*
X518250000Y-260875000D03*
X518750000Y-260875000D03*
X519250000Y-260875000D03*
%TD*%
D19*
%TO.C,U1*%
X496289315Y-223690000D03*
X496289315Y-222040000D03*
X495089315Y-223690000D03*
X495089315Y-222040000D03*
D20*
X498164315Y-220960000D03*
X498164315Y-222230000D03*
X498164315Y-223500000D03*
X498164315Y-224770000D03*
X493214315Y-224770000D03*
X493214315Y-223500000D03*
X493214315Y-222230000D03*
X493214315Y-220960000D03*
%TD*%
D11*
%TO.C,R19*%
X393750000Y-225750000D03*
X392730000Y-225750000D03*
%TD*%
%TO.C,R1*%
X502664315Y-221270000D03*
X501644315Y-221270000D03*
%TD*%
D13*
%TO.C,C3*%
X516200000Y-211250000D03*
X514300000Y-211250000D03*
%TD*%
D21*
%TO.C,C4*%
X549100000Y-203250000D03*
X551000000Y-203250000D03*
%TD*%
D22*
%TO.C,U3*%
X402000000Y-229250000D03*
X402000000Y-229750000D03*
X402000000Y-230250000D03*
X402000000Y-230750000D03*
X402000000Y-231250000D03*
X397700000Y-231250000D03*
X397700000Y-230750000D03*
X397700000Y-230250000D03*
X397700000Y-229750000D03*
X397700000Y-229250000D03*
%TD*%
D23*
%TO.C,U2*%
X522650000Y-210100000D03*
X522650000Y-211050000D03*
X522650000Y-212000000D03*
X520375000Y-212000000D03*
X520375000Y-211050000D03*
X520375000Y-210100000D03*
%TD*%
D11*
%TO.C,R3*%
X498684315Y-217585685D03*
X497664315Y-217585685D03*
%TD*%
%TO.C,R4*%
X528000000Y-212000000D03*
X526980000Y-212000000D03*
%TD*%
%TO.C,R16*%
X492660000Y-203455000D03*
X491640000Y-203455000D03*
%TD*%
M02*
