%TF.GenerationSoftware,KiCad,Pcbnew,10.0.1*%
%TF.CreationDate,2026-05-09T17:30:17+05:30*%
%TF.ProjectId,Handheld Gaming device PCB,48616e64-6865-46c6-9420-47616d696e67,rev?*%
%TF.SameCoordinates,Original*%
%TF.FileFunction,Legend,Bot*%
%TF.FilePolarity,Positive*%
%FSLAX46Y46*%
G04 Gerber Fmt 4.6, Leading zero omitted, Abs format (unit mm)*
G04 Created by KiCad (PCBNEW 10.0.1) date 2026-05-09 17:30:17*
%MOMM*%
%LPD*%
G01*
G04 APERTURE LIST*
%ADD10C,0.150000*%
%ADD11C,0.120000*%
G04 APERTURE END LIST*
D10*
X544088094Y-201704819D02*
X544088094Y-200704819D01*
X544088094Y-200704819D02*
X543849999Y-200704819D01*
X543849999Y-200704819D02*
X543707142Y-200752438D01*
X543707142Y-200752438D02*
X543611904Y-200847676D01*
X543611904Y-200847676D02*
X543564285Y-200942914D01*
X543564285Y-200942914D02*
X543516666Y-201133390D01*
X543516666Y-201133390D02*
X543516666Y-201276247D01*
X543516666Y-201276247D02*
X543564285Y-201466723D01*
X543564285Y-201466723D02*
X543611904Y-201561961D01*
X543611904Y-201561961D02*
X543707142Y-201657200D01*
X543707142Y-201657200D02*
X543849999Y-201704819D01*
X543849999Y-201704819D02*
X544088094Y-201704819D01*
X543183332Y-200704819D02*
X542564285Y-200704819D01*
X542564285Y-200704819D02*
X542897618Y-201085771D01*
X542897618Y-201085771D02*
X542754761Y-201085771D01*
X542754761Y-201085771D02*
X542659523Y-201133390D01*
X542659523Y-201133390D02*
X542611904Y-201181009D01*
X542611904Y-201181009D02*
X542564285Y-201276247D01*
X542564285Y-201276247D02*
X542564285Y-201514342D01*
X542564285Y-201514342D02*
X542611904Y-201609580D01*
X542611904Y-201609580D02*
X542659523Y-201657200D01*
X542659523Y-201657200D02*
X542754761Y-201704819D01*
X542754761Y-201704819D02*
X543040475Y-201704819D01*
X543040475Y-201704819D02*
X543135713Y-201657200D01*
X543135713Y-201657200D02*
X543183332Y-201609580D01*
X493320981Y-216870504D02*
X493654314Y-216394313D01*
X493892409Y-216870504D02*
X493892409Y-215870504D01*
X493892409Y-215870504D02*
X493511457Y-215870504D01*
X493511457Y-215870504D02*
X493416219Y-215918123D01*
X493416219Y-215918123D02*
X493368600Y-215965742D01*
X493368600Y-215965742D02*
X493320981Y-216060980D01*
X493320981Y-216060980D02*
X493320981Y-216203837D01*
X493320981Y-216203837D02*
X493368600Y-216299075D01*
X493368600Y-216299075D02*
X493416219Y-216346694D01*
X493416219Y-216346694D02*
X493511457Y-216394313D01*
X493511457Y-216394313D02*
X493892409Y-216394313D01*
X492940028Y-215965742D02*
X492892409Y-215918123D01*
X492892409Y-215918123D02*
X492797171Y-215870504D01*
X492797171Y-215870504D02*
X492559076Y-215870504D01*
X492559076Y-215870504D02*
X492463838Y-215918123D01*
X492463838Y-215918123D02*
X492416219Y-215965742D01*
X492416219Y-215965742D02*
X492368600Y-216060980D01*
X492368600Y-216060980D02*
X492368600Y-216156218D01*
X492368600Y-216156218D02*
X492416219Y-216299075D01*
X492416219Y-216299075D02*
X492987647Y-216870504D01*
X492987647Y-216870504D02*
X492368600Y-216870504D01*
X532766666Y-196454819D02*
X533242856Y-196454819D01*
X533242856Y-196454819D02*
X533242856Y-195454819D01*
X531909523Y-196454819D02*
X532480951Y-196454819D01*
X532195237Y-196454819D02*
X532195237Y-195454819D01*
X532195237Y-195454819D02*
X532290475Y-195597676D01*
X532290475Y-195597676D02*
X532385713Y-195692914D01*
X532385713Y-195692914D02*
X532480951Y-195740533D01*
X397882857Y-225034819D02*
X398216190Y-224558628D01*
X398454285Y-225034819D02*
X398454285Y-224034819D01*
X398454285Y-224034819D02*
X398073333Y-224034819D01*
X398073333Y-224034819D02*
X397978095Y-224082438D01*
X397978095Y-224082438D02*
X397930476Y-224130057D01*
X397930476Y-224130057D02*
X397882857Y-224225295D01*
X397882857Y-224225295D02*
X397882857Y-224368152D01*
X397882857Y-224368152D02*
X397930476Y-224463390D01*
X397930476Y-224463390D02*
X397978095Y-224511009D01*
X397978095Y-224511009D02*
X398073333Y-224558628D01*
X398073333Y-224558628D02*
X398454285Y-224558628D01*
X396930476Y-225034819D02*
X397501904Y-225034819D01*
X397216190Y-225034819D02*
X397216190Y-224034819D01*
X397216190Y-224034819D02*
X397311428Y-224177676D01*
X397311428Y-224177676D02*
X397406666Y-224272914D01*
X397406666Y-224272914D02*
X397501904Y-224320533D01*
X396359047Y-224463390D02*
X396454285Y-224415771D01*
X396454285Y-224415771D02*
X396501904Y-224368152D01*
X396501904Y-224368152D02*
X396549523Y-224272914D01*
X396549523Y-224272914D02*
X396549523Y-224225295D01*
X396549523Y-224225295D02*
X396501904Y-224130057D01*
X396501904Y-224130057D02*
X396454285Y-224082438D01*
X396454285Y-224082438D02*
X396359047Y-224034819D01*
X396359047Y-224034819D02*
X396168571Y-224034819D01*
X396168571Y-224034819D02*
X396073333Y-224082438D01*
X396073333Y-224082438D02*
X396025714Y-224130057D01*
X396025714Y-224130057D02*
X395978095Y-224225295D01*
X395978095Y-224225295D02*
X395978095Y-224272914D01*
X395978095Y-224272914D02*
X396025714Y-224368152D01*
X396025714Y-224368152D02*
X396073333Y-224415771D01*
X396073333Y-224415771D02*
X396168571Y-224463390D01*
X396168571Y-224463390D02*
X396359047Y-224463390D01*
X396359047Y-224463390D02*
X396454285Y-224511009D01*
X396454285Y-224511009D02*
X396501904Y-224558628D01*
X396501904Y-224558628D02*
X396549523Y-224653866D01*
X396549523Y-224653866D02*
X396549523Y-224844342D01*
X396549523Y-224844342D02*
X396501904Y-224939580D01*
X396501904Y-224939580D02*
X396454285Y-224987200D01*
X396454285Y-224987200D02*
X396359047Y-225034819D01*
X396359047Y-225034819D02*
X396168571Y-225034819D01*
X396168571Y-225034819D02*
X396073333Y-224987200D01*
X396073333Y-224987200D02*
X396025714Y-224939580D01*
X396025714Y-224939580D02*
X395978095Y-224844342D01*
X395978095Y-224844342D02*
X395978095Y-224653866D01*
X395978095Y-224653866D02*
X396025714Y-224558628D01*
X396025714Y-224558628D02*
X396073333Y-224511009D01*
X396073333Y-224511009D02*
X396168571Y-224463390D01*
X488880981Y-223515265D02*
X488928600Y-223562885D01*
X488928600Y-223562885D02*
X489071457Y-223610504D01*
X489071457Y-223610504D02*
X489166695Y-223610504D01*
X489166695Y-223610504D02*
X489309552Y-223562885D01*
X489309552Y-223562885D02*
X489404790Y-223467646D01*
X489404790Y-223467646D02*
X489452409Y-223372408D01*
X489452409Y-223372408D02*
X489500028Y-223181932D01*
X489500028Y-223181932D02*
X489500028Y-223039075D01*
X489500028Y-223039075D02*
X489452409Y-222848599D01*
X489452409Y-222848599D02*
X489404790Y-222753361D01*
X489404790Y-222753361D02*
X489309552Y-222658123D01*
X489309552Y-222658123D02*
X489166695Y-222610504D01*
X489166695Y-222610504D02*
X489071457Y-222610504D01*
X489071457Y-222610504D02*
X488928600Y-222658123D01*
X488928600Y-222658123D02*
X488880981Y-222705742D01*
X488500028Y-222705742D02*
X488452409Y-222658123D01*
X488452409Y-222658123D02*
X488357171Y-222610504D01*
X488357171Y-222610504D02*
X488119076Y-222610504D01*
X488119076Y-222610504D02*
X488023838Y-222658123D01*
X488023838Y-222658123D02*
X487976219Y-222705742D01*
X487976219Y-222705742D02*
X487928600Y-222800980D01*
X487928600Y-222800980D02*
X487928600Y-222896218D01*
X487928600Y-222896218D02*
X487976219Y-223039075D01*
X487976219Y-223039075D02*
X488547647Y-223610504D01*
X488547647Y-223610504D02*
X487928600Y-223610504D01*
X498382857Y-204874819D02*
X498716190Y-204398628D01*
X498954285Y-204874819D02*
X498954285Y-203874819D01*
X498954285Y-203874819D02*
X498573333Y-203874819D01*
X498573333Y-203874819D02*
X498478095Y-203922438D01*
X498478095Y-203922438D02*
X498430476Y-203970057D01*
X498430476Y-203970057D02*
X498382857Y-204065295D01*
X498382857Y-204065295D02*
X498382857Y-204208152D01*
X498382857Y-204208152D02*
X498430476Y-204303390D01*
X498430476Y-204303390D02*
X498478095Y-204351009D01*
X498478095Y-204351009D02*
X498573333Y-204398628D01*
X498573333Y-204398628D02*
X498954285Y-204398628D01*
X497430476Y-204874819D02*
X498001904Y-204874819D01*
X497716190Y-204874819D02*
X497716190Y-203874819D01*
X497716190Y-203874819D02*
X497811428Y-204017676D01*
X497811428Y-204017676D02*
X497906666Y-204112914D01*
X497906666Y-204112914D02*
X498001904Y-204160533D01*
X497097142Y-203874819D02*
X496430476Y-203874819D01*
X496430476Y-203874819D02*
X496859047Y-204874819D01*
X504632857Y-260534819D02*
X504966190Y-260058628D01*
X505204285Y-260534819D02*
X505204285Y-259534819D01*
X505204285Y-259534819D02*
X504823333Y-259534819D01*
X504823333Y-259534819D02*
X504728095Y-259582438D01*
X504728095Y-259582438D02*
X504680476Y-259630057D01*
X504680476Y-259630057D02*
X504632857Y-259725295D01*
X504632857Y-259725295D02*
X504632857Y-259868152D01*
X504632857Y-259868152D02*
X504680476Y-259963390D01*
X504680476Y-259963390D02*
X504728095Y-260011009D01*
X504728095Y-260011009D02*
X504823333Y-260058628D01*
X504823333Y-260058628D02*
X505204285Y-260058628D01*
X504251904Y-259630057D02*
X504204285Y-259582438D01*
X504204285Y-259582438D02*
X504109047Y-259534819D01*
X504109047Y-259534819D02*
X503870952Y-259534819D01*
X503870952Y-259534819D02*
X503775714Y-259582438D01*
X503775714Y-259582438D02*
X503728095Y-259630057D01*
X503728095Y-259630057D02*
X503680476Y-259725295D01*
X503680476Y-259725295D02*
X503680476Y-259820533D01*
X503680476Y-259820533D02*
X503728095Y-259963390D01*
X503728095Y-259963390D02*
X504299523Y-260534819D01*
X504299523Y-260534819D02*
X503680476Y-260534819D01*
X502728095Y-260534819D02*
X503299523Y-260534819D01*
X503013809Y-260534819D02*
X503013809Y-259534819D01*
X503013809Y-259534819D02*
X503109047Y-259677676D01*
X503109047Y-259677676D02*
X503204285Y-259772914D01*
X503204285Y-259772914D02*
X503299523Y-259820533D01*
X508666666Y-221679580D02*
X508714285Y-221727200D01*
X508714285Y-221727200D02*
X508857142Y-221774819D01*
X508857142Y-221774819D02*
X508952380Y-221774819D01*
X508952380Y-221774819D02*
X509095237Y-221727200D01*
X509095237Y-221727200D02*
X509190475Y-221631961D01*
X509190475Y-221631961D02*
X509238094Y-221536723D01*
X509238094Y-221536723D02*
X509285713Y-221346247D01*
X509285713Y-221346247D02*
X509285713Y-221203390D01*
X509285713Y-221203390D02*
X509238094Y-221012914D01*
X509238094Y-221012914D02*
X509190475Y-220917676D01*
X509190475Y-220917676D02*
X509095237Y-220822438D01*
X509095237Y-220822438D02*
X508952380Y-220774819D01*
X508952380Y-220774819D02*
X508857142Y-220774819D01*
X508857142Y-220774819D02*
X508714285Y-220822438D01*
X508714285Y-220822438D02*
X508666666Y-220870057D01*
X507714285Y-221774819D02*
X508285713Y-221774819D01*
X507999999Y-221774819D02*
X507999999Y-220774819D01*
X507999999Y-220774819D02*
X508095237Y-220917676D01*
X508095237Y-220917676D02*
X508190475Y-221012914D01*
X508190475Y-221012914D02*
X508285713Y-221060533D01*
X526656666Y-215534819D02*
X526989999Y-215058628D01*
X527228094Y-215534819D02*
X527228094Y-214534819D01*
X527228094Y-214534819D02*
X526847142Y-214534819D01*
X526847142Y-214534819D02*
X526751904Y-214582438D01*
X526751904Y-214582438D02*
X526704285Y-214630057D01*
X526704285Y-214630057D02*
X526656666Y-214725295D01*
X526656666Y-214725295D02*
X526656666Y-214868152D01*
X526656666Y-214868152D02*
X526704285Y-214963390D01*
X526704285Y-214963390D02*
X526751904Y-215011009D01*
X526751904Y-215011009D02*
X526847142Y-215058628D01*
X526847142Y-215058628D02*
X527228094Y-215058628D01*
X525751904Y-214534819D02*
X526228094Y-214534819D01*
X526228094Y-214534819D02*
X526275713Y-215011009D01*
X526275713Y-215011009D02*
X526228094Y-214963390D01*
X526228094Y-214963390D02*
X526132856Y-214915771D01*
X526132856Y-214915771D02*
X525894761Y-214915771D01*
X525894761Y-214915771D02*
X525799523Y-214963390D01*
X525799523Y-214963390D02*
X525751904Y-215011009D01*
X525751904Y-215011009D02*
X525704285Y-215106247D01*
X525704285Y-215106247D02*
X525704285Y-215344342D01*
X525704285Y-215344342D02*
X525751904Y-215439580D01*
X525751904Y-215439580D02*
X525799523Y-215487200D01*
X525799523Y-215487200D02*
X525894761Y-215534819D01*
X525894761Y-215534819D02*
X526132856Y-215534819D01*
X526132856Y-215534819D02*
X526228094Y-215487200D01*
X526228094Y-215487200D02*
X526275713Y-215439580D01*
X426226666Y-217679580D02*
X426274285Y-217727200D01*
X426274285Y-217727200D02*
X426417142Y-217774819D01*
X426417142Y-217774819D02*
X426512380Y-217774819D01*
X426512380Y-217774819D02*
X426655237Y-217727200D01*
X426655237Y-217727200D02*
X426750475Y-217631961D01*
X426750475Y-217631961D02*
X426798094Y-217536723D01*
X426798094Y-217536723D02*
X426845713Y-217346247D01*
X426845713Y-217346247D02*
X426845713Y-217203390D01*
X426845713Y-217203390D02*
X426798094Y-217012914D01*
X426798094Y-217012914D02*
X426750475Y-216917676D01*
X426750475Y-216917676D02*
X426655237Y-216822438D01*
X426655237Y-216822438D02*
X426512380Y-216774819D01*
X426512380Y-216774819D02*
X426417142Y-216774819D01*
X426417142Y-216774819D02*
X426274285Y-216822438D01*
X426274285Y-216822438D02*
X426226666Y-216870057D01*
X425369523Y-216774819D02*
X425559999Y-216774819D01*
X425559999Y-216774819D02*
X425655237Y-216822438D01*
X425655237Y-216822438D02*
X425702856Y-216870057D01*
X425702856Y-216870057D02*
X425798094Y-217012914D01*
X425798094Y-217012914D02*
X425845713Y-217203390D01*
X425845713Y-217203390D02*
X425845713Y-217584342D01*
X425845713Y-217584342D02*
X425798094Y-217679580D01*
X425798094Y-217679580D02*
X425750475Y-217727200D01*
X425750475Y-217727200D02*
X425655237Y-217774819D01*
X425655237Y-217774819D02*
X425464761Y-217774819D01*
X425464761Y-217774819D02*
X425369523Y-217727200D01*
X425369523Y-217727200D02*
X425321904Y-217679580D01*
X425321904Y-217679580D02*
X425274285Y-217584342D01*
X425274285Y-217584342D02*
X425274285Y-217346247D01*
X425274285Y-217346247D02*
X425321904Y-217251009D01*
X425321904Y-217251009D02*
X425369523Y-217203390D01*
X425369523Y-217203390D02*
X425464761Y-217155771D01*
X425464761Y-217155771D02*
X425655237Y-217155771D01*
X425655237Y-217155771D02*
X425750475Y-217203390D01*
X425750475Y-217203390D02*
X425798094Y-217251009D01*
X425798094Y-217251009D02*
X425845713Y-217346247D01*
X426256666Y-210589580D02*
X426304285Y-210637200D01*
X426304285Y-210637200D02*
X426447142Y-210684819D01*
X426447142Y-210684819D02*
X426542380Y-210684819D01*
X426542380Y-210684819D02*
X426685237Y-210637200D01*
X426685237Y-210637200D02*
X426780475Y-210541961D01*
X426780475Y-210541961D02*
X426828094Y-210446723D01*
X426828094Y-210446723D02*
X426875713Y-210256247D01*
X426875713Y-210256247D02*
X426875713Y-210113390D01*
X426875713Y-210113390D02*
X426828094Y-209922914D01*
X426828094Y-209922914D02*
X426780475Y-209827676D01*
X426780475Y-209827676D02*
X426685237Y-209732438D01*
X426685237Y-209732438D02*
X426542380Y-209684819D01*
X426542380Y-209684819D02*
X426447142Y-209684819D01*
X426447142Y-209684819D02*
X426304285Y-209732438D01*
X426304285Y-209732438D02*
X426256666Y-209780057D01*
X425351904Y-209684819D02*
X425828094Y-209684819D01*
X425828094Y-209684819D02*
X425875713Y-210161009D01*
X425875713Y-210161009D02*
X425828094Y-210113390D01*
X425828094Y-210113390D02*
X425732856Y-210065771D01*
X425732856Y-210065771D02*
X425494761Y-210065771D01*
X425494761Y-210065771D02*
X425399523Y-210113390D01*
X425399523Y-210113390D02*
X425351904Y-210161009D01*
X425351904Y-210161009D02*
X425304285Y-210256247D01*
X425304285Y-210256247D02*
X425304285Y-210494342D01*
X425304285Y-210494342D02*
X425351904Y-210589580D01*
X425351904Y-210589580D02*
X425399523Y-210637200D01*
X425399523Y-210637200D02*
X425494761Y-210684819D01*
X425494761Y-210684819D02*
X425732856Y-210684819D01*
X425732856Y-210684819D02*
X425828094Y-210637200D01*
X425828094Y-210637200D02*
X425875713Y-210589580D01*
X504632857Y-263034819D02*
X504966190Y-262558628D01*
X505204285Y-263034819D02*
X505204285Y-262034819D01*
X505204285Y-262034819D02*
X504823333Y-262034819D01*
X504823333Y-262034819D02*
X504728095Y-262082438D01*
X504728095Y-262082438D02*
X504680476Y-262130057D01*
X504680476Y-262130057D02*
X504632857Y-262225295D01*
X504632857Y-262225295D02*
X504632857Y-262368152D01*
X504632857Y-262368152D02*
X504680476Y-262463390D01*
X504680476Y-262463390D02*
X504728095Y-262511009D01*
X504728095Y-262511009D02*
X504823333Y-262558628D01*
X504823333Y-262558628D02*
X505204285Y-262558628D01*
X504251904Y-262130057D02*
X504204285Y-262082438D01*
X504204285Y-262082438D02*
X504109047Y-262034819D01*
X504109047Y-262034819D02*
X503870952Y-262034819D01*
X503870952Y-262034819D02*
X503775714Y-262082438D01*
X503775714Y-262082438D02*
X503728095Y-262130057D01*
X503728095Y-262130057D02*
X503680476Y-262225295D01*
X503680476Y-262225295D02*
X503680476Y-262320533D01*
X503680476Y-262320533D02*
X503728095Y-262463390D01*
X503728095Y-262463390D02*
X504299523Y-263034819D01*
X504299523Y-263034819D02*
X503680476Y-263034819D01*
X503061428Y-262034819D02*
X502966190Y-262034819D01*
X502966190Y-262034819D02*
X502870952Y-262082438D01*
X502870952Y-262082438D02*
X502823333Y-262130057D01*
X502823333Y-262130057D02*
X502775714Y-262225295D01*
X502775714Y-262225295D02*
X502728095Y-262415771D01*
X502728095Y-262415771D02*
X502728095Y-262653866D01*
X502728095Y-262653866D02*
X502775714Y-262844342D01*
X502775714Y-262844342D02*
X502823333Y-262939580D01*
X502823333Y-262939580D02*
X502870952Y-262987200D01*
X502870952Y-262987200D02*
X502966190Y-263034819D01*
X502966190Y-263034819D02*
X503061428Y-263034819D01*
X503061428Y-263034819D02*
X503156666Y-262987200D01*
X503156666Y-262987200D02*
X503204285Y-262939580D01*
X503204285Y-262939580D02*
X503251904Y-262844342D01*
X503251904Y-262844342D02*
X503299523Y-262653866D01*
X503299523Y-262653866D02*
X503299523Y-262415771D01*
X503299523Y-262415771D02*
X503251904Y-262225295D01*
X503251904Y-262225295D02*
X503204285Y-262130057D01*
X503204285Y-262130057D02*
X503156666Y-262082438D01*
X503156666Y-262082438D02*
X503061428Y-262034819D01*
X519261904Y-258967319D02*
X519261904Y-259776842D01*
X519261904Y-259776842D02*
X519214285Y-259872080D01*
X519214285Y-259872080D02*
X519166666Y-259919700D01*
X519166666Y-259919700D02*
X519071428Y-259967319D01*
X519071428Y-259967319D02*
X518880952Y-259967319D01*
X518880952Y-259967319D02*
X518785714Y-259919700D01*
X518785714Y-259919700D02*
X518738095Y-259872080D01*
X518738095Y-259872080D02*
X518690476Y-259776842D01*
X518690476Y-259776842D02*
X518690476Y-258967319D01*
X517785714Y-259300652D02*
X517785714Y-259967319D01*
X518023809Y-258919700D02*
X518261904Y-259633985D01*
X518261904Y-259633985D02*
X517642857Y-259633985D01*
X496451219Y-218919819D02*
X496451219Y-219729342D01*
X496451219Y-219729342D02*
X496403600Y-219824580D01*
X496403600Y-219824580D02*
X496355981Y-219872200D01*
X496355981Y-219872200D02*
X496260743Y-219919819D01*
X496260743Y-219919819D02*
X496070267Y-219919819D01*
X496070267Y-219919819D02*
X495975029Y-219872200D01*
X495975029Y-219872200D02*
X495927410Y-219824580D01*
X495927410Y-219824580D02*
X495879791Y-219729342D01*
X495879791Y-219729342D02*
X495879791Y-218919819D01*
X494879791Y-219919819D02*
X495451219Y-219919819D01*
X495165505Y-219919819D02*
X495165505Y-218919819D01*
X495165505Y-218919819D02*
X495260743Y-219062676D01*
X495260743Y-219062676D02*
X495355981Y-219157914D01*
X495355981Y-219157914D02*
X495451219Y-219205533D01*
X393882857Y-225034819D02*
X394216190Y-224558628D01*
X394454285Y-225034819D02*
X394454285Y-224034819D01*
X394454285Y-224034819D02*
X394073333Y-224034819D01*
X394073333Y-224034819D02*
X393978095Y-224082438D01*
X393978095Y-224082438D02*
X393930476Y-224130057D01*
X393930476Y-224130057D02*
X393882857Y-224225295D01*
X393882857Y-224225295D02*
X393882857Y-224368152D01*
X393882857Y-224368152D02*
X393930476Y-224463390D01*
X393930476Y-224463390D02*
X393978095Y-224511009D01*
X393978095Y-224511009D02*
X394073333Y-224558628D01*
X394073333Y-224558628D02*
X394454285Y-224558628D01*
X392930476Y-225034819D02*
X393501904Y-225034819D01*
X393216190Y-225034819D02*
X393216190Y-224034819D01*
X393216190Y-224034819D02*
X393311428Y-224177676D01*
X393311428Y-224177676D02*
X393406666Y-224272914D01*
X393406666Y-224272914D02*
X393501904Y-224320533D01*
X392454285Y-225034819D02*
X392263809Y-225034819D01*
X392263809Y-225034819D02*
X392168571Y-224987200D01*
X392168571Y-224987200D02*
X392120952Y-224939580D01*
X392120952Y-224939580D02*
X392025714Y-224796723D01*
X392025714Y-224796723D02*
X391978095Y-224606247D01*
X391978095Y-224606247D02*
X391978095Y-224225295D01*
X391978095Y-224225295D02*
X392025714Y-224130057D01*
X392025714Y-224130057D02*
X392073333Y-224082438D01*
X392073333Y-224082438D02*
X392168571Y-224034819D01*
X392168571Y-224034819D02*
X392359047Y-224034819D01*
X392359047Y-224034819D02*
X392454285Y-224082438D01*
X392454285Y-224082438D02*
X392501904Y-224130057D01*
X392501904Y-224130057D02*
X392549523Y-224225295D01*
X392549523Y-224225295D02*
X392549523Y-224463390D01*
X392549523Y-224463390D02*
X392501904Y-224558628D01*
X392501904Y-224558628D02*
X392454285Y-224606247D01*
X392454285Y-224606247D02*
X392359047Y-224653866D01*
X392359047Y-224653866D02*
X392168571Y-224653866D01*
X392168571Y-224653866D02*
X392073333Y-224606247D01*
X392073333Y-224606247D02*
X392025714Y-224558628D01*
X392025714Y-224558628D02*
X391978095Y-224463390D01*
X502320981Y-220554819D02*
X502654314Y-220078628D01*
X502892409Y-220554819D02*
X502892409Y-219554819D01*
X502892409Y-219554819D02*
X502511457Y-219554819D01*
X502511457Y-219554819D02*
X502416219Y-219602438D01*
X502416219Y-219602438D02*
X502368600Y-219650057D01*
X502368600Y-219650057D02*
X502320981Y-219745295D01*
X502320981Y-219745295D02*
X502320981Y-219888152D01*
X502320981Y-219888152D02*
X502368600Y-219983390D01*
X502368600Y-219983390D02*
X502416219Y-220031009D01*
X502416219Y-220031009D02*
X502511457Y-220078628D01*
X502511457Y-220078628D02*
X502892409Y-220078628D01*
X501368600Y-220554819D02*
X501940028Y-220554819D01*
X501654314Y-220554819D02*
X501654314Y-219554819D01*
X501654314Y-219554819D02*
X501749552Y-219697676D01*
X501749552Y-219697676D02*
X501844790Y-219792914D01*
X501844790Y-219792914D02*
X501940028Y-219840533D01*
X515416666Y-209929580D02*
X515464285Y-209977200D01*
X515464285Y-209977200D02*
X515607142Y-210024819D01*
X515607142Y-210024819D02*
X515702380Y-210024819D01*
X515702380Y-210024819D02*
X515845237Y-209977200D01*
X515845237Y-209977200D02*
X515940475Y-209881961D01*
X515940475Y-209881961D02*
X515988094Y-209786723D01*
X515988094Y-209786723D02*
X516035713Y-209596247D01*
X516035713Y-209596247D02*
X516035713Y-209453390D01*
X516035713Y-209453390D02*
X515988094Y-209262914D01*
X515988094Y-209262914D02*
X515940475Y-209167676D01*
X515940475Y-209167676D02*
X515845237Y-209072438D01*
X515845237Y-209072438D02*
X515702380Y-209024819D01*
X515702380Y-209024819D02*
X515607142Y-209024819D01*
X515607142Y-209024819D02*
X515464285Y-209072438D01*
X515464285Y-209072438D02*
X515416666Y-209120057D01*
X515083332Y-209024819D02*
X514464285Y-209024819D01*
X514464285Y-209024819D02*
X514797618Y-209405771D01*
X514797618Y-209405771D02*
X514654761Y-209405771D01*
X514654761Y-209405771D02*
X514559523Y-209453390D01*
X514559523Y-209453390D02*
X514511904Y-209501009D01*
X514511904Y-209501009D02*
X514464285Y-209596247D01*
X514464285Y-209596247D02*
X514464285Y-209834342D01*
X514464285Y-209834342D02*
X514511904Y-209929580D01*
X514511904Y-209929580D02*
X514559523Y-209977200D01*
X514559523Y-209977200D02*
X514654761Y-210024819D01*
X514654761Y-210024819D02*
X514940475Y-210024819D01*
X514940475Y-210024819D02*
X515035713Y-209977200D01*
X515035713Y-209977200D02*
X515083332Y-209929580D01*
X550216666Y-205289580D02*
X550264285Y-205337200D01*
X550264285Y-205337200D02*
X550407142Y-205384819D01*
X550407142Y-205384819D02*
X550502380Y-205384819D01*
X550502380Y-205384819D02*
X550645237Y-205337200D01*
X550645237Y-205337200D02*
X550740475Y-205241961D01*
X550740475Y-205241961D02*
X550788094Y-205146723D01*
X550788094Y-205146723D02*
X550835713Y-204956247D01*
X550835713Y-204956247D02*
X550835713Y-204813390D01*
X550835713Y-204813390D02*
X550788094Y-204622914D01*
X550788094Y-204622914D02*
X550740475Y-204527676D01*
X550740475Y-204527676D02*
X550645237Y-204432438D01*
X550645237Y-204432438D02*
X550502380Y-204384819D01*
X550502380Y-204384819D02*
X550407142Y-204384819D01*
X550407142Y-204384819D02*
X550264285Y-204432438D01*
X550264285Y-204432438D02*
X550216666Y-204480057D01*
X549359523Y-204718152D02*
X549359523Y-205384819D01*
X549597618Y-204337200D02*
X549835713Y-205051485D01*
X549835713Y-205051485D02*
X549216666Y-205051485D01*
X400611904Y-227254819D02*
X400611904Y-228064342D01*
X400611904Y-228064342D02*
X400564285Y-228159580D01*
X400564285Y-228159580D02*
X400516666Y-228207200D01*
X400516666Y-228207200D02*
X400421428Y-228254819D01*
X400421428Y-228254819D02*
X400230952Y-228254819D01*
X400230952Y-228254819D02*
X400135714Y-228207200D01*
X400135714Y-228207200D02*
X400088095Y-228159580D01*
X400088095Y-228159580D02*
X400040476Y-228064342D01*
X400040476Y-228064342D02*
X400040476Y-227254819D01*
X399659523Y-227254819D02*
X399040476Y-227254819D01*
X399040476Y-227254819D02*
X399373809Y-227635771D01*
X399373809Y-227635771D02*
X399230952Y-227635771D01*
X399230952Y-227635771D02*
X399135714Y-227683390D01*
X399135714Y-227683390D02*
X399088095Y-227731009D01*
X399088095Y-227731009D02*
X399040476Y-227826247D01*
X399040476Y-227826247D02*
X399040476Y-228064342D01*
X399040476Y-228064342D02*
X399088095Y-228159580D01*
X399088095Y-228159580D02*
X399135714Y-228207200D01*
X399135714Y-228207200D02*
X399230952Y-228254819D01*
X399230952Y-228254819D02*
X399516666Y-228254819D01*
X399516666Y-228254819D02*
X399611904Y-228207200D01*
X399611904Y-228207200D02*
X399659523Y-228159580D01*
X522274404Y-208104819D02*
X522274404Y-208914342D01*
X522274404Y-208914342D02*
X522226785Y-209009580D01*
X522226785Y-209009580D02*
X522179166Y-209057200D01*
X522179166Y-209057200D02*
X522083928Y-209104819D01*
X522083928Y-209104819D02*
X521893452Y-209104819D01*
X521893452Y-209104819D02*
X521798214Y-209057200D01*
X521798214Y-209057200D02*
X521750595Y-209009580D01*
X521750595Y-209009580D02*
X521702976Y-208914342D01*
X521702976Y-208914342D02*
X521702976Y-208104819D01*
X521274404Y-208200057D02*
X521226785Y-208152438D01*
X521226785Y-208152438D02*
X521131547Y-208104819D01*
X521131547Y-208104819D02*
X520893452Y-208104819D01*
X520893452Y-208104819D02*
X520798214Y-208152438D01*
X520798214Y-208152438D02*
X520750595Y-208200057D01*
X520750595Y-208200057D02*
X520702976Y-208295295D01*
X520702976Y-208295295D02*
X520702976Y-208390533D01*
X520702976Y-208390533D02*
X520750595Y-208533390D01*
X520750595Y-208533390D02*
X521322023Y-209104819D01*
X521322023Y-209104819D02*
X520702976Y-209104819D01*
X498340981Y-216870504D02*
X498674314Y-216394313D01*
X498912409Y-216870504D02*
X498912409Y-215870504D01*
X498912409Y-215870504D02*
X498531457Y-215870504D01*
X498531457Y-215870504D02*
X498436219Y-215918123D01*
X498436219Y-215918123D02*
X498388600Y-215965742D01*
X498388600Y-215965742D02*
X498340981Y-216060980D01*
X498340981Y-216060980D02*
X498340981Y-216203837D01*
X498340981Y-216203837D02*
X498388600Y-216299075D01*
X498388600Y-216299075D02*
X498436219Y-216346694D01*
X498436219Y-216346694D02*
X498531457Y-216394313D01*
X498531457Y-216394313D02*
X498912409Y-216394313D01*
X498007647Y-215870504D02*
X497388600Y-215870504D01*
X497388600Y-215870504D02*
X497721933Y-216251456D01*
X497721933Y-216251456D02*
X497579076Y-216251456D01*
X497579076Y-216251456D02*
X497483838Y-216299075D01*
X497483838Y-216299075D02*
X497436219Y-216346694D01*
X497436219Y-216346694D02*
X497388600Y-216441932D01*
X497388600Y-216441932D02*
X497388600Y-216680027D01*
X497388600Y-216680027D02*
X497436219Y-216775265D01*
X497436219Y-216775265D02*
X497483838Y-216822885D01*
X497483838Y-216822885D02*
X497579076Y-216870504D01*
X497579076Y-216870504D02*
X497864790Y-216870504D01*
X497864790Y-216870504D02*
X497960028Y-216822885D01*
X497960028Y-216822885D02*
X498007647Y-216775265D01*
X527656666Y-211284819D02*
X527989999Y-210808628D01*
X528228094Y-211284819D02*
X528228094Y-210284819D01*
X528228094Y-210284819D02*
X527847142Y-210284819D01*
X527847142Y-210284819D02*
X527751904Y-210332438D01*
X527751904Y-210332438D02*
X527704285Y-210380057D01*
X527704285Y-210380057D02*
X527656666Y-210475295D01*
X527656666Y-210475295D02*
X527656666Y-210618152D01*
X527656666Y-210618152D02*
X527704285Y-210713390D01*
X527704285Y-210713390D02*
X527751904Y-210761009D01*
X527751904Y-210761009D02*
X527847142Y-210808628D01*
X527847142Y-210808628D02*
X528228094Y-210808628D01*
X526799523Y-210618152D02*
X526799523Y-211284819D01*
X527037618Y-210237200D02*
X527275713Y-210951485D01*
X527275713Y-210951485D02*
X526656666Y-210951485D01*
X492792857Y-202739819D02*
X493126190Y-202263628D01*
X493364285Y-202739819D02*
X493364285Y-201739819D01*
X493364285Y-201739819D02*
X492983333Y-201739819D01*
X492983333Y-201739819D02*
X492888095Y-201787438D01*
X492888095Y-201787438D02*
X492840476Y-201835057D01*
X492840476Y-201835057D02*
X492792857Y-201930295D01*
X492792857Y-201930295D02*
X492792857Y-202073152D01*
X492792857Y-202073152D02*
X492840476Y-202168390D01*
X492840476Y-202168390D02*
X492888095Y-202216009D01*
X492888095Y-202216009D02*
X492983333Y-202263628D01*
X492983333Y-202263628D02*
X493364285Y-202263628D01*
X491840476Y-202739819D02*
X492411904Y-202739819D01*
X492126190Y-202739819D02*
X492126190Y-201739819D01*
X492126190Y-201739819D02*
X492221428Y-201882676D01*
X492221428Y-201882676D02*
X492316666Y-201977914D01*
X492316666Y-201977914D02*
X492411904Y-202025533D01*
X490983333Y-201739819D02*
X491173809Y-201739819D01*
X491173809Y-201739819D02*
X491269047Y-201787438D01*
X491269047Y-201787438D02*
X491316666Y-201835057D01*
X491316666Y-201835057D02*
X491411904Y-201977914D01*
X491411904Y-201977914D02*
X491459523Y-202168390D01*
X491459523Y-202168390D02*
X491459523Y-202549342D01*
X491459523Y-202549342D02*
X491411904Y-202644580D01*
X491411904Y-202644580D02*
X491364285Y-202692200D01*
X491364285Y-202692200D02*
X491269047Y-202739819D01*
X491269047Y-202739819D02*
X491078571Y-202739819D01*
X491078571Y-202739819D02*
X490983333Y-202692200D01*
X490983333Y-202692200D02*
X490935714Y-202644580D01*
X490935714Y-202644580D02*
X490888095Y-202549342D01*
X490888095Y-202549342D02*
X490888095Y-202311247D01*
X490888095Y-202311247D02*
X490935714Y-202216009D01*
X490935714Y-202216009D02*
X490983333Y-202168390D01*
X490983333Y-202168390D02*
X491078571Y-202120771D01*
X491078571Y-202120771D02*
X491269047Y-202120771D01*
X491269047Y-202120771D02*
X491364285Y-202168390D01*
X491364285Y-202168390D02*
X491411904Y-202216009D01*
X491411904Y-202216009D02*
X491459523Y-202311247D01*
%TO.C,D3*%
D11*
X545710000Y-202250000D02*
X541700000Y-202250000D01*
X545710000Y-202250000D02*
X545710000Y-204250000D01*
X545710000Y-204250000D02*
X541700000Y-204250000D01*
%TO.C,R2*%
X493307956Y-217205685D02*
X493000674Y-217205685D01*
X493307956Y-217965685D02*
X493000674Y-217965685D01*
%TO.C,L1*%
X526200000Y-197500000D02*
X526200000Y-200250000D01*
X526200000Y-206250000D02*
X526200000Y-209000000D01*
X526850000Y-209650000D02*
X538350000Y-209650000D01*
X538350000Y-196850000D02*
X526850000Y-196850000D01*
X539000000Y-197500000D02*
X539000000Y-200250000D01*
X539000000Y-206250000D02*
X539000000Y-209000000D01*
X526200000Y-197500000D02*
G75*
G02*
X526850000Y-196850000I650000J0D01*
G01*
X526850000Y-209650000D02*
G75*
G02*
X526200000Y-209000000I0J650000D01*
G01*
X538350000Y-196850000D02*
G75*
G02*
X539000000Y-197500000I-1J-650001D01*
G01*
X539000000Y-209000000D02*
G75*
G02*
X538350000Y-209650000I-650001J1D01*
G01*
%TO.C,R18*%
X397393641Y-225370000D02*
X397086359Y-225370000D01*
X397393641Y-226130000D02*
X397086359Y-226130000D01*
%TO.C,C2*%
X488975567Y-224100685D02*
X488453063Y-224100685D01*
X488975567Y-225570685D02*
X488453063Y-225570685D01*
%TO.C,R17*%
X497586359Y-202870000D02*
X497893641Y-202870000D01*
X497586359Y-203630000D02*
X497893641Y-203630000D01*
%TO.C,R21*%
X504143641Y-260870000D02*
X503836359Y-260870000D01*
X504143641Y-261630000D02*
X503836359Y-261630000D01*
%TO.C,C1*%
X508761252Y-222265000D02*
X508238748Y-222265000D01*
X508761252Y-223735000D02*
X508238748Y-223735000D01*
%TO.C,R5*%
X526643641Y-215870000D02*
X526336359Y-215870000D01*
X526643641Y-216630000D02*
X526336359Y-216630000D01*
%TO.C,C6*%
X425952164Y-215800000D02*
X426167836Y-215800000D01*
X425952164Y-216520000D02*
X426167836Y-216520000D01*
%TO.C,C5*%
X426351252Y-211175000D02*
X425828748Y-211175000D01*
X426351252Y-212645000D02*
X425828748Y-212645000D01*
%TO.C,R20*%
X504143641Y-263370000D02*
X503836359Y-263370000D01*
X504143641Y-264130000D02*
X503836359Y-264130000D01*
%TO.C,U4*%
X516890000Y-260702500D02*
X516890000Y-261177500D01*
X516890000Y-263447500D02*
X516890000Y-263922500D01*
X516890000Y-263922500D02*
X517365000Y-263922500D01*
X517365000Y-260702500D02*
X516890000Y-260702500D01*
X519635000Y-263922500D02*
X520110000Y-263922500D01*
X520110000Y-260702500D02*
X519635000Y-260702500D01*
X520110000Y-261177500D02*
X520110000Y-260702500D01*
X520110000Y-263922500D02*
X520110000Y-263447500D01*
X520950000Y-261802500D02*
X520620000Y-261562500D01*
X520950000Y-261322500D01*
X520950000Y-261802500D01*
G36*
X520950000Y-261802500D02*
G01*
X520620000Y-261562500D01*
X520950000Y-261322500D01*
X520950000Y-261802500D01*
G37*
%TO.C,U1*%
X493629315Y-220305000D02*
X493629315Y-220400000D01*
X493629315Y-225330000D02*
X493629315Y-225425000D01*
X493629315Y-225425000D02*
X497749315Y-225425000D01*
X497749315Y-220305000D02*
X493629315Y-220305000D01*
X497749315Y-220400000D02*
X497749315Y-220305000D01*
X497749315Y-225425000D02*
X497749315Y-225330000D01*
X498289315Y-220395000D02*
X498049315Y-220065000D01*
X498529315Y-220065000D01*
X498289315Y-220395000D01*
G36*
X498289315Y-220395000D02*
G01*
X498049315Y-220065000D01*
X498529315Y-220065000D01*
X498289315Y-220395000D01*
G37*
%TO.C,R19*%
X393393641Y-225370000D02*
X393086359Y-225370000D01*
X393393641Y-226130000D02*
X393086359Y-226130000D01*
%TO.C,R1*%
X502307956Y-220890000D02*
X502000674Y-220890000D01*
X502307956Y-221650000D02*
X502000674Y-221650000D01*
%TO.C,C3*%
X515511252Y-210515000D02*
X514988748Y-210515000D01*
X515511252Y-211985000D02*
X514988748Y-211985000D01*
%TO.C,C4*%
X549788748Y-202515000D02*
X550311252Y-202515000D01*
X549788748Y-203985000D02*
X550311252Y-203985000D01*
%TO.C,U3*%
X398240000Y-228640000D02*
X398240000Y-228840000D01*
X398240000Y-231660000D02*
X398240000Y-231860000D01*
X398240000Y-231860000D02*
X401460000Y-231860000D01*
X401460000Y-228640000D02*
X398240000Y-228640000D01*
X401460000Y-228840000D02*
X401460000Y-228640000D01*
X401460000Y-231860000D02*
X401460000Y-231660000D01*
X402010000Y-228840000D02*
X401770000Y-228510000D01*
X402250000Y-228510000D01*
X402010000Y-228840000D01*
G36*
X402010000Y-228840000D02*
G01*
X401770000Y-228510000D01*
X402250000Y-228510000D01*
X402010000Y-228840000D01*
G37*
%TO.C,U2*%
X520602500Y-209490000D02*
X520602500Y-209540000D01*
X520602500Y-212560000D02*
X520602500Y-212610000D01*
X520602500Y-212610000D02*
X522422500Y-212610000D01*
X522422500Y-209490000D02*
X520602500Y-209490000D01*
X522422500Y-209540000D02*
X522422500Y-209490000D01*
X522422500Y-212610000D02*
X522422500Y-212560000D01*
X522962500Y-209540000D02*
X522722500Y-209210000D01*
X523202500Y-209210000D01*
X522962500Y-209540000D01*
G36*
X522962500Y-209540000D02*
G01*
X522722500Y-209210000D01*
X523202500Y-209210000D01*
X522962500Y-209540000D01*
G37*
%TO.C,R3*%
X498327956Y-217205685D02*
X498020674Y-217205685D01*
X498327956Y-217965685D02*
X498020674Y-217965685D01*
%TO.C,R4*%
X527643641Y-211620000D02*
X527336359Y-211620000D01*
X527643641Y-212380000D02*
X527336359Y-212380000D01*
%TO.C,R16*%
X492303641Y-203075000D02*
X491996359Y-203075000D01*
X492303641Y-203835000D02*
X491996359Y-203835000D01*
%TD*%
M02*
