%TF.GenerationSoftware,KiCad,Pcbnew,10.0.1*%
%TF.CreationDate,2026-05-09T17:30:17+05:30*%
%TF.ProjectId,Handheld Gaming device PCB,48616e64-6865-46c6-9420-47616d696e67,rev?*%
%TF.SameCoordinates,Original*%
%TF.FileFunction,Legend,Top*%
%TF.FilePolarity,Positive*%
%FSLAX46Y46*%
G04 Gerber Fmt 4.6, Leading zero omitted, Abs format (unit mm)*
G04 Created by KiCad (PCBNEW 10.0.1) date 2026-05-09 17:30:17*
%MOMM*%
%LPD*%
G01*
G04 APERTURE LIST*
%ADD10C,0.100000*%
%ADD11C,0.150000*%
%ADD12C,0.120000*%
G04 APERTURE END LIST*
D10*
G36*
X443767952Y-210202951D02*
G01*
X443767952Y-211791964D01*
X443773605Y-211834154D01*
X443788422Y-211861619D01*
X443814914Y-211881512D01*
X443866320Y-211901049D01*
X443866320Y-211961500D01*
X443202743Y-211961500D01*
X443202743Y-211901049D01*
X443254124Y-211881503D01*
X443280504Y-211861619D01*
X443295425Y-211834141D01*
X443301112Y-211791964D01*
X443301112Y-210202951D01*
X442653884Y-210202951D01*
X442612977Y-210208392D01*
X442585877Y-210222735D01*
X442566028Y-210248539D01*
X442546447Y-210299671D01*
X442489569Y-210299671D01*
X442489569Y-209754521D01*
X442546447Y-209754521D01*
X442567037Y-209805687D01*
X442586564Y-209831458D01*
X442613086Y-209845775D01*
X442653884Y-209851241D01*
X444413669Y-209851241D01*
X444455902Y-209845752D01*
X444483186Y-209831458D01*
X444503050Y-209805559D01*
X444522616Y-209754521D01*
X444579494Y-209754521D01*
X444579494Y-210299671D01*
X444522616Y-210299671D01*
X444503036Y-210248539D01*
X444483186Y-210222735D01*
X444455902Y-210208440D01*
X444413669Y-210202951D01*
X443767952Y-210202951D01*
G37*
G36*
X446546596Y-211038262D02*
G01*
X445345699Y-211038262D01*
X445345699Y-211793201D01*
X445351483Y-211834218D01*
X445366994Y-211862169D01*
X445393983Y-211882502D01*
X445444068Y-211900912D01*
X445444068Y-211961500D01*
X444780491Y-211961500D01*
X444780491Y-211901049D01*
X444831888Y-211881535D01*
X444858252Y-211861757D01*
X444873222Y-211834596D01*
X444878860Y-211793888D01*
X444878860Y-210018853D01*
X444873217Y-209978166D01*
X444858252Y-209951121D01*
X444831871Y-209931237D01*
X444780491Y-209911691D01*
X444780491Y-209851241D01*
X445444068Y-209851241D01*
X445444068Y-209911829D01*
X445392759Y-209930173D01*
X445366170Y-209950160D01*
X445351279Y-209977753D01*
X445345699Y-210018441D01*
X445345699Y-210686552D01*
X446546596Y-210686552D01*
X446546596Y-210018441D01*
X446540982Y-209977765D01*
X446525988Y-209950160D01*
X446499510Y-209930181D01*
X446448227Y-209911829D01*
X446448227Y-209851241D01*
X447111667Y-209851241D01*
X447111667Y-209911691D01*
X447060261Y-209931229D01*
X447033768Y-209951121D01*
X447018907Y-209978153D01*
X447013298Y-210018853D01*
X447013298Y-211793888D01*
X447018902Y-211834609D01*
X447033768Y-211861757D01*
X447060244Y-211881543D01*
X447111667Y-211901049D01*
X447111667Y-211961500D01*
X446448227Y-211961500D01*
X446448227Y-211900912D01*
X446498311Y-211882502D01*
X446525301Y-211862169D01*
X446540812Y-211834218D01*
X446546596Y-211793201D01*
X446546596Y-211038262D01*
G37*
G36*
X449348046Y-211205324D02*
G01*
X448834495Y-211205324D01*
X448792409Y-211210940D01*
X448765664Y-211225519D01*
X448746387Y-211251457D01*
X448727058Y-211302044D01*
X448670180Y-211302044D01*
X448670180Y-210809650D01*
X448727058Y-210809650D01*
X448746493Y-210861430D01*
X448765664Y-210886999D01*
X448792328Y-210900959D01*
X448834495Y-210906370D01*
X449834806Y-210906370D01*
X449834806Y-210966821D01*
X449783141Y-210986182D01*
X449756084Y-211005976D01*
X449740749Y-211033242D01*
X449734926Y-211075081D01*
X449734926Y-211502628D01*
X449740581Y-211544533D01*
X449755397Y-211571734D01*
X449782069Y-211591401D01*
X449834806Y-211610752D01*
X449834806Y-211651967D01*
X449584628Y-211781287D01*
X449344675Y-211877994D01*
X449113513Y-211944812D01*
X448889648Y-211983872D01*
X448671554Y-211996670D01*
X448464308Y-211985863D01*
X448280095Y-211954911D01*
X448116051Y-211905517D01*
X447969667Y-211838666D01*
X447838854Y-211754595D01*
X447714160Y-211645400D01*
X447613962Y-211525260D01*
X447536178Y-211393180D01*
X447479801Y-211247475D01*
X447444952Y-211085857D01*
X447432877Y-210905546D01*
X447448253Y-210705521D01*
X447492540Y-210528328D01*
X447564342Y-210370136D01*
X447664129Y-210227973D01*
X447794203Y-210099911D01*
X447933898Y-210001390D01*
X448091846Y-209923113D01*
X448270608Y-209865208D01*
X448473342Y-209828822D01*
X448703703Y-209816070D01*
X448880892Y-209824662D01*
X449043460Y-209849593D01*
X449206947Y-209892459D01*
X449406298Y-209962662D01*
X449503546Y-209996112D01*
X449553713Y-210004153D01*
X449584601Y-209996516D01*
X449628452Y-209967745D01*
X449677911Y-209994398D01*
X449428142Y-210504789D01*
X449377446Y-210478823D01*
X449363845Y-210406008D01*
X449309852Y-210353389D01*
X449203504Y-210292747D01*
X449036041Y-210234687D01*
X448857071Y-210197226D01*
X448694635Y-210185366D01*
X448532538Y-210197589D01*
X448390082Y-210232659D01*
X448264022Y-210289253D01*
X448151821Y-210367540D01*
X448045527Y-210479062D01*
X447970601Y-210604874D01*
X447924826Y-210747873D01*
X447908921Y-210912415D01*
X447924375Y-211071715D01*
X447968913Y-211210569D01*
X448041925Y-211333137D01*
X448145638Y-211442178D01*
X448258521Y-211520828D01*
X448389144Y-211578435D01*
X448540784Y-211614617D01*
X448717579Y-211627375D01*
X448889651Y-211617514D01*
X449059259Y-211587945D01*
X449220024Y-211540023D01*
X449348046Y-211481471D01*
X449348046Y-211205324D01*
G37*
G36*
X450702678Y-210827236D02*
G01*
X450702678Y-211363593D01*
X450645800Y-211363593D01*
X450626280Y-211313103D01*
X450606370Y-211287069D01*
X450579046Y-211272464D01*
X450536852Y-211266873D01*
X450158764Y-211266873D01*
X450117962Y-211272581D01*
X450090071Y-211287893D01*
X450069851Y-211314411D01*
X450051603Y-211363593D01*
X449994587Y-211363593D01*
X449994587Y-210827236D01*
X450051603Y-210827236D01*
X450069898Y-210876967D01*
X450090071Y-210903348D01*
X450117925Y-210918348D01*
X450158764Y-210923956D01*
X450536852Y-210923956D01*
X450579086Y-210918467D01*
X450606370Y-210904172D01*
X450626233Y-210878274D01*
X450645800Y-210827236D01*
X450702678Y-210827236D01*
G37*
G36*
X451925418Y-210202951D02*
G01*
X451925418Y-211791964D01*
X451931072Y-211834154D01*
X451945889Y-211861619D01*
X451972381Y-211881512D01*
X452023787Y-211901049D01*
X452023787Y-211961500D01*
X451360210Y-211961500D01*
X451360210Y-211901049D01*
X451411590Y-211881503D01*
X451437971Y-211861619D01*
X451452891Y-211834141D01*
X451458579Y-211791964D01*
X451458579Y-210202951D01*
X450811350Y-210202951D01*
X450770444Y-210208392D01*
X450743344Y-210222735D01*
X450723495Y-210248539D01*
X450703914Y-210299671D01*
X450647036Y-210299671D01*
X450647036Y-209754521D01*
X450703914Y-209754521D01*
X450724504Y-209805687D01*
X450744031Y-209831458D01*
X450770553Y-209845775D01*
X450811350Y-209851241D01*
X452571135Y-209851241D01*
X452613369Y-209845752D01*
X452640653Y-209831458D01*
X452660517Y-209805559D01*
X452680083Y-209754521D01*
X452736961Y-209754521D01*
X452736961Y-210299671D01*
X452680083Y-210299671D01*
X452660503Y-210248539D01*
X452640653Y-210222735D01*
X452613369Y-210208440D01*
X452571135Y-210202951D01*
X451925418Y-210202951D01*
G37*
G36*
X454302344Y-211205324D02*
G01*
X453350530Y-211205324D01*
X453350530Y-211789629D01*
X453356154Y-211831664D01*
X453371000Y-211859559D01*
X453397544Y-211880251D01*
X453448898Y-211901049D01*
X453448898Y-211961500D01*
X452831346Y-211961500D01*
X452831346Y-211900912D01*
X452881395Y-211882549D01*
X452908420Y-211862032D01*
X452923918Y-211833632D01*
X452929714Y-211791827D01*
X452929714Y-210399002D01*
X452924030Y-210357373D01*
X452909106Y-210330308D01*
X452882787Y-210310365D01*
X452831346Y-210289779D01*
X452831346Y-210229329D01*
X453448898Y-210229329D01*
X453448898Y-210289779D01*
X453397530Y-210309160D01*
X453371000Y-210329209D01*
X453356151Y-210356690D01*
X453350530Y-210398177D01*
X453350530Y-210888785D01*
X454302344Y-210888785D01*
X454302344Y-210398177D01*
X454296861Y-210356754D01*
X454282560Y-210330034D01*
X454256621Y-210310330D01*
X454203975Y-210289779D01*
X454203975Y-210229329D01*
X454821391Y-210229329D01*
X454821391Y-210289779D01*
X454770036Y-210309302D01*
X454743492Y-210329484D01*
X454728647Y-210357114D01*
X454723022Y-210398864D01*
X454723022Y-211790453D01*
X454728638Y-211832105D01*
X454743492Y-211859833D01*
X454770004Y-211880314D01*
X454821391Y-211901049D01*
X454821391Y-211961500D01*
X454203975Y-211961500D01*
X454203975Y-211900912D01*
X454253974Y-211882565D01*
X454281049Y-211861757D01*
X454296548Y-211833092D01*
X454302344Y-211791003D01*
X454302344Y-211205324D01*
G37*
G36*
X455634444Y-211222909D02*
G01*
X455634444Y-211644961D01*
X456722821Y-211644961D01*
X456765282Y-211639493D01*
X456793163Y-211625177D01*
X456813556Y-211599196D01*
X456833280Y-211548241D01*
X456883976Y-211548241D01*
X456883976Y-212058220D01*
X456833143Y-212058220D01*
X456814716Y-212009109D01*
X456793850Y-211982382D01*
X456765188Y-211967204D01*
X456722821Y-211961500D01*
X455115260Y-211961500D01*
X455115260Y-211900912D01*
X455165310Y-211882549D01*
X455192334Y-211862032D01*
X455207833Y-211833632D01*
X455213629Y-211791827D01*
X455213629Y-210399002D01*
X455207945Y-210357373D01*
X455193021Y-210330308D01*
X455166702Y-210310365D01*
X455115260Y-210289779D01*
X455115260Y-210229329D01*
X456675148Y-210229329D01*
X456718778Y-210223716D01*
X456746864Y-210209133D01*
X456767411Y-210183001D01*
X456787118Y-210132609D01*
X456836302Y-210132609D01*
X456836302Y-210642588D01*
X456787118Y-210642588D01*
X456767386Y-210591658D01*
X456747001Y-210565789D01*
X456718925Y-210551417D01*
X456675148Y-210545868D01*
X455634444Y-210545868D01*
X455634444Y-210915163D01*
X456278650Y-210915163D01*
X456320952Y-210909598D01*
X456348855Y-210894967D01*
X456369715Y-210868774D01*
X456390620Y-210818443D01*
X456439805Y-210818443D01*
X456439805Y-211319629D01*
X456390620Y-211319629D01*
X456370975Y-211269879D01*
X456350366Y-211243517D01*
X456322241Y-211228625D01*
X456278650Y-211222909D01*
X455634444Y-211222909D01*
G37*
G36*
X459826797Y-211205324D02*
G01*
X459313245Y-211205324D01*
X459271160Y-211210940D01*
X459244415Y-211225519D01*
X459225138Y-211251457D01*
X459205809Y-211302044D01*
X459148931Y-211302044D01*
X459148931Y-210809650D01*
X459205809Y-210809650D01*
X459225244Y-210861430D01*
X459244415Y-210886999D01*
X459271079Y-210900959D01*
X459313245Y-210906370D01*
X460313557Y-210906370D01*
X460313557Y-210966821D01*
X460261892Y-210986182D01*
X460234835Y-211005976D01*
X460219500Y-211033242D01*
X460213677Y-211075081D01*
X460213677Y-211502628D01*
X460219332Y-211544533D01*
X460234148Y-211571734D01*
X460260820Y-211591401D01*
X460313557Y-211610752D01*
X460313557Y-211651967D01*
X460063379Y-211781287D01*
X459823426Y-211877994D01*
X459592264Y-211944812D01*
X459368399Y-211983872D01*
X459150305Y-211996670D01*
X458943059Y-211985863D01*
X458758846Y-211954911D01*
X458594802Y-211905517D01*
X458448418Y-211838666D01*
X458317605Y-211754595D01*
X458192911Y-211645400D01*
X458092713Y-211525260D01*
X458014929Y-211393180D01*
X457958552Y-211247475D01*
X457923702Y-211085857D01*
X457911627Y-210905546D01*
X457927004Y-210705521D01*
X457971291Y-210528328D01*
X458043093Y-210370136D01*
X458142880Y-210227973D01*
X458272954Y-210099911D01*
X458412648Y-210001390D01*
X458570597Y-209923113D01*
X458749359Y-209865208D01*
X458952093Y-209828822D01*
X459182453Y-209816070D01*
X459359642Y-209824662D01*
X459522211Y-209849593D01*
X459685698Y-209892459D01*
X459885049Y-209962662D01*
X459982297Y-209996112D01*
X460032464Y-210004153D01*
X460063352Y-209996516D01*
X460107203Y-209967745D01*
X460156662Y-209994398D01*
X459906893Y-210504789D01*
X459856197Y-210478823D01*
X459842596Y-210406008D01*
X459788603Y-210353389D01*
X459682255Y-210292747D01*
X459514792Y-210234687D01*
X459335822Y-210197226D01*
X459173386Y-210185366D01*
X459011289Y-210197589D01*
X458868833Y-210232659D01*
X458742772Y-210289253D01*
X458630571Y-210367540D01*
X458524278Y-210479062D01*
X458449352Y-210604874D01*
X458403577Y-210747873D01*
X458387672Y-210912415D01*
X458403126Y-211071715D01*
X458447664Y-211210569D01*
X458520676Y-211333137D01*
X458624389Y-211442178D01*
X458737272Y-211520828D01*
X458867895Y-211578435D01*
X459019535Y-211614617D01*
X459196329Y-211627375D01*
X459368402Y-211617514D01*
X459538010Y-211587945D01*
X459698775Y-211540023D01*
X459826797Y-211481471D01*
X459826797Y-211205324D01*
G37*
G36*
X461963702Y-210235842D02*
G01*
X462092576Y-210251723D01*
X462203446Y-210283602D01*
X462299893Y-210332781D01*
X462380316Y-210401528D01*
X462438224Y-210488115D01*
X462474802Y-210596314D01*
X462487975Y-210732027D01*
X462473878Y-210867681D01*
X462434701Y-210975180D01*
X462372296Y-211060793D01*
X462288006Y-211127582D01*
X462169349Y-211184777D01*
X462006985Y-211230191D01*
X462328744Y-211674774D01*
X462415510Y-211787513D01*
X462469977Y-211843622D01*
X462526475Y-211879934D01*
X462592389Y-211900637D01*
X462592389Y-211961500D01*
X461861217Y-211961500D01*
X461861217Y-211900912D01*
X461924812Y-211870833D01*
X461941176Y-211835791D01*
X461931937Y-211800966D01*
X461892816Y-211736323D01*
X461549762Y-211249287D01*
X461143098Y-211249287D01*
X461143098Y-211790178D01*
X461148718Y-211831951D01*
X461163568Y-211859696D01*
X461190096Y-211880283D01*
X461241466Y-211901049D01*
X461241466Y-211961500D01*
X460623914Y-211961500D01*
X460623914Y-211900912D01*
X460673963Y-211882549D01*
X460700988Y-211862032D01*
X460716486Y-211833632D01*
X460722282Y-211791827D01*
X460722282Y-210932749D01*
X461143098Y-210932749D01*
X461759689Y-210932749D01*
X461890442Y-210923678D01*
X461966868Y-210901974D01*
X462017512Y-210866656D01*
X462048291Y-210814483D01*
X462059604Y-210739308D01*
X462051296Y-210670477D01*
X462029070Y-210622020D01*
X461994208Y-210588458D01*
X461914815Y-210558835D01*
X461759689Y-210545868D01*
X461143098Y-210545868D01*
X461143098Y-210932749D01*
X460722282Y-210932749D01*
X460722282Y-210399002D01*
X460716598Y-210357373D01*
X460701674Y-210330308D01*
X460675355Y-210310365D01*
X460623914Y-210289779D01*
X460623914Y-210229329D01*
X461756529Y-210229329D01*
X461963702Y-210235842D01*
G37*
G36*
X463308310Y-211222909D02*
G01*
X463308310Y-211644961D01*
X464396687Y-211644961D01*
X464439148Y-211639493D01*
X464467029Y-211625177D01*
X464487422Y-211599196D01*
X464507146Y-211548241D01*
X464557842Y-211548241D01*
X464557842Y-212058220D01*
X464507009Y-212058220D01*
X464488582Y-212009109D01*
X464467716Y-211982382D01*
X464439054Y-211967204D01*
X464396687Y-211961500D01*
X462789127Y-211961500D01*
X462789127Y-211900912D01*
X462839176Y-211882549D01*
X462866200Y-211862032D01*
X462881699Y-211833632D01*
X462887495Y-211791827D01*
X462887495Y-210399002D01*
X462881811Y-210357373D01*
X462866887Y-210330308D01*
X462840568Y-210310365D01*
X462789127Y-210289779D01*
X462789127Y-210229329D01*
X464349014Y-210229329D01*
X464392644Y-210223716D01*
X464420730Y-210209133D01*
X464441277Y-210183001D01*
X464460984Y-210132609D01*
X464510168Y-210132609D01*
X464510168Y-210642588D01*
X464460984Y-210642588D01*
X464441252Y-210591658D01*
X464420867Y-210565789D01*
X464392791Y-210551417D01*
X464349014Y-210545868D01*
X463308310Y-210545868D01*
X463308310Y-210915163D01*
X463952516Y-210915163D01*
X463994818Y-210909598D01*
X464022721Y-210894967D01*
X464043581Y-210868774D01*
X464064486Y-210818443D01*
X464113671Y-210818443D01*
X464113671Y-211319629D01*
X464064486Y-211319629D01*
X464044841Y-211269879D01*
X464024232Y-211243517D01*
X463996107Y-211228625D01*
X463952516Y-211222909D01*
X463308310Y-211222909D01*
G37*
G36*
X466077612Y-210289505D02*
G01*
X466027909Y-210317684D01*
X466001578Y-210350619D01*
X465992982Y-210389934D01*
X466001229Y-210440671D01*
X466030901Y-210510972D01*
X466682663Y-211731926D01*
X466735332Y-211820854D01*
X466766056Y-211859421D01*
X466802009Y-211882816D01*
X466861403Y-211900775D01*
X466861403Y-211961500D01*
X466150290Y-211961500D01*
X466150290Y-211900637D01*
X466209596Y-211881109D01*
X466240076Y-211851692D01*
X466250170Y-211811061D01*
X466241993Y-211763084D01*
X466212251Y-211695382D01*
X466118279Y-211521862D01*
X465332015Y-211521862D01*
X465244088Y-211706647D01*
X465218808Y-211770601D01*
X465212214Y-211810649D01*
X465222031Y-211849986D01*
X465252021Y-211879620D01*
X465310583Y-211900775D01*
X465310583Y-211961500D01*
X464668575Y-211961500D01*
X464668575Y-211900637D01*
X464724032Y-211886073D01*
X464757052Y-211866016D01*
X464783866Y-211833392D01*
X464822723Y-211765586D01*
X465067309Y-211275666D01*
X465454701Y-211275666D01*
X465988998Y-211275666D01*
X465715186Y-210755108D01*
X465454701Y-211275666D01*
X465067309Y-211275666D01*
X465451267Y-210506575D01*
X465478350Y-210437349D01*
X465486163Y-210383752D01*
X465477933Y-210349431D01*
X465451673Y-210318453D01*
X465400159Y-210289505D01*
X465400159Y-210229329D01*
X466077612Y-210229329D01*
X466077612Y-210289505D01*
G37*
G36*
X467955137Y-210545868D02*
G01*
X467955137Y-211789491D01*
X467960766Y-211831647D01*
X467975608Y-211859559D01*
X468002133Y-211880172D01*
X468053506Y-211901049D01*
X468053506Y-211961500D01*
X467436091Y-211961500D01*
X467436091Y-211900912D01*
X467486089Y-211882565D01*
X467513165Y-211861757D01*
X467528659Y-211833075D01*
X467534460Y-211790865D01*
X467534460Y-210545868D01*
X467031625Y-210545868D01*
X466988013Y-210551578D01*
X466959772Y-210566476D01*
X466939269Y-210592822D01*
X466919655Y-210642588D01*
X466870470Y-210642588D01*
X466870470Y-210132609D01*
X466921303Y-210132609D01*
X466939544Y-210181816D01*
X466959772Y-210208446D01*
X466988039Y-210223551D01*
X467031625Y-210229329D01*
X468457972Y-210229329D01*
X468501602Y-210223716D01*
X468529688Y-210209133D01*
X468550235Y-210183001D01*
X468569943Y-210132609D01*
X468619127Y-210132609D01*
X468619127Y-210642588D01*
X468569943Y-210642588D01*
X468550298Y-210592838D01*
X468529688Y-210566476D01*
X468501563Y-210551583D01*
X468457972Y-210545868D01*
X467955137Y-210545868D01*
G37*
G36*
X471379499Y-211038262D02*
G01*
X470178602Y-211038262D01*
X470178602Y-211793201D01*
X470184386Y-211834218D01*
X470199897Y-211862169D01*
X470226886Y-211882502D01*
X470276971Y-211900912D01*
X470276971Y-211961500D01*
X469613394Y-211961500D01*
X469613394Y-211901049D01*
X469664791Y-211881535D01*
X469691155Y-211861757D01*
X469706125Y-211834596D01*
X469711763Y-211793888D01*
X469711763Y-210018853D01*
X469706120Y-209978166D01*
X469691155Y-209951121D01*
X469664774Y-209931237D01*
X469613394Y-209911691D01*
X469613394Y-209851241D01*
X470276971Y-209851241D01*
X470276971Y-209911829D01*
X470225662Y-209930173D01*
X470199073Y-209950160D01*
X470184182Y-209977753D01*
X470178602Y-210018441D01*
X470178602Y-210686552D01*
X471379499Y-210686552D01*
X471379499Y-210018441D01*
X471373885Y-209977765D01*
X471358891Y-209950160D01*
X471332413Y-209930181D01*
X471281130Y-209911829D01*
X471281130Y-209851241D01*
X471944570Y-209851241D01*
X471944570Y-209911691D01*
X471893164Y-209931229D01*
X471866671Y-209951121D01*
X471851810Y-209978153D01*
X471846201Y-210018853D01*
X471846201Y-211793888D01*
X471851805Y-211834609D01*
X471866671Y-211861757D01*
X471893147Y-211881543D01*
X471944570Y-211901049D01*
X471944570Y-211961500D01*
X471281130Y-211961500D01*
X471281130Y-211900912D01*
X471331214Y-211882502D01*
X471358204Y-211862169D01*
X471373715Y-211834218D01*
X471379499Y-211793201D01*
X471379499Y-211038262D01*
G37*
G36*
X473542651Y-210289505D02*
G01*
X473492947Y-210317684D01*
X473466616Y-210350619D01*
X473458020Y-210389934D01*
X473466267Y-210440671D01*
X473495939Y-210510972D01*
X474147701Y-211731926D01*
X474200370Y-211820854D01*
X474231095Y-211859421D01*
X474267047Y-211882816D01*
X474326441Y-211900775D01*
X474326441Y-211961500D01*
X473615328Y-211961500D01*
X473615328Y-211900637D01*
X473674634Y-211881109D01*
X473705114Y-211851692D01*
X473715208Y-211811061D01*
X473707031Y-211763084D01*
X473677289Y-211695382D01*
X473583317Y-211521862D01*
X472797053Y-211521862D01*
X472709126Y-211706647D01*
X472683846Y-211770601D01*
X472677252Y-211810649D01*
X472687069Y-211849986D01*
X472717059Y-211879620D01*
X472775621Y-211900775D01*
X472775621Y-211961500D01*
X472133614Y-211961500D01*
X472133614Y-211900637D01*
X472189070Y-211886073D01*
X472222091Y-211866016D01*
X472248904Y-211833392D01*
X472287761Y-211765586D01*
X472532347Y-211275666D01*
X472919740Y-211275666D01*
X473454036Y-211275666D01*
X473180225Y-210755108D01*
X472919740Y-211275666D01*
X472532347Y-211275666D01*
X472916305Y-210506575D01*
X472943388Y-210437349D01*
X472951201Y-210383752D01*
X472942971Y-210349431D01*
X472916711Y-210318453D01*
X472865197Y-210289505D01*
X472865197Y-210229329D01*
X473542651Y-210229329D01*
X473542651Y-210289505D01*
G37*
G36*
X474943719Y-210835204D02*
G01*
X474943719Y-211790453D01*
X474949516Y-211832258D01*
X474965014Y-211860658D01*
X474992006Y-211881479D01*
X475042088Y-211901049D01*
X475042088Y-211961500D01*
X474461492Y-211961500D01*
X474461492Y-211900912D01*
X474511542Y-211882549D01*
X474538566Y-211862032D01*
X474554064Y-211833632D01*
X474559861Y-211791827D01*
X474559861Y-210399002D01*
X474554176Y-210357373D01*
X474539253Y-210330308D01*
X474512933Y-210310365D01*
X474461492Y-210289779D01*
X474461492Y-210229329D01*
X475131252Y-210229329D01*
X475131252Y-210289917D01*
X475077736Y-210314718D01*
X475063658Y-210345696D01*
X475073563Y-210379929D01*
X475111468Y-210427715D01*
X476026188Y-211326773D01*
X476026188Y-210399002D01*
X476020529Y-210357264D01*
X476005580Y-210329621D01*
X475979132Y-210309342D01*
X475927819Y-210289779D01*
X475927819Y-210229329D01*
X476508415Y-210229329D01*
X476508415Y-210289779D01*
X476457061Y-210309302D01*
X476430517Y-210329484D01*
X476415672Y-210357114D01*
X476410046Y-210398864D01*
X476410046Y-211790453D01*
X476415662Y-211832105D01*
X476430517Y-211859833D01*
X476457029Y-211880314D01*
X476508415Y-211901049D01*
X476508415Y-211961500D01*
X475883306Y-211961500D01*
X475883306Y-211900775D01*
X475936860Y-211878563D01*
X475950900Y-211848568D01*
X475933040Y-211807077D01*
X475849234Y-211719012D01*
X474943719Y-210835204D01*
G37*
G36*
X478027749Y-210239623D02*
G01*
X478190801Y-210267255D01*
X478315049Y-210308189D01*
X478435352Y-210373666D01*
X478535777Y-210456034D01*
X478618543Y-210556282D01*
X478684619Y-210676660D01*
X478727295Y-210798609D01*
X478754085Y-210937283D01*
X478763479Y-211095414D01*
X478751487Y-211274653D01*
X478717596Y-211427815D01*
X478663962Y-211559020D01*
X478591361Y-211671627D01*
X478499147Y-211768059D01*
X478370479Y-211855528D01*
X478218466Y-211915887D01*
X478046963Y-211948982D01*
X477816885Y-211961500D01*
X476802560Y-211961500D01*
X476802560Y-211900912D01*
X476852609Y-211882549D01*
X476879634Y-211862032D01*
X476895132Y-211833632D01*
X476900929Y-211791827D01*
X476900929Y-211644961D01*
X477321744Y-211644961D01*
X477756847Y-211644961D01*
X477909703Y-211634536D01*
X478029244Y-211606197D01*
X478122045Y-211563144D01*
X478193324Y-211506750D01*
X478252934Y-211430639D01*
X478296954Y-211338972D01*
X478324957Y-211228592D01*
X478334970Y-211095414D01*
X478324957Y-210962237D01*
X478296954Y-210851856D01*
X478252934Y-210760189D01*
X478193324Y-210684079D01*
X478115816Y-210622337D01*
X478019668Y-210578978D01*
X477908771Y-210555003D01*
X477756847Y-210545868D01*
X477321744Y-210545868D01*
X477321744Y-211644961D01*
X476900929Y-211644961D01*
X476900929Y-210399002D01*
X476895244Y-210357373D01*
X476880321Y-210330308D01*
X476854001Y-210310365D01*
X476802560Y-210289779D01*
X476802560Y-210229329D01*
X477816885Y-210229329D01*
X478027749Y-210239623D01*
G37*
G36*
X480489329Y-211205324D02*
G01*
X479537515Y-211205324D01*
X479537515Y-211789629D01*
X479543139Y-211831664D01*
X479557986Y-211859559D01*
X479584530Y-211880251D01*
X479635884Y-211901049D01*
X479635884Y-211961500D01*
X479018331Y-211961500D01*
X479018331Y-211900912D01*
X479068381Y-211882549D01*
X479095405Y-211862032D01*
X479110903Y-211833632D01*
X479116700Y-211791827D01*
X479116700Y-210399002D01*
X479111015Y-210357373D01*
X479096092Y-210330308D01*
X479069772Y-210310365D01*
X479018331Y-210289779D01*
X479018331Y-210229329D01*
X479635884Y-210229329D01*
X479635884Y-210289779D01*
X479584516Y-210309160D01*
X479557986Y-210329209D01*
X479543137Y-210356690D01*
X479537515Y-210398177D01*
X479537515Y-210888785D01*
X480489329Y-210888785D01*
X480489329Y-210398177D01*
X480483846Y-210356754D01*
X480469546Y-210330034D01*
X480443606Y-210310330D01*
X480390961Y-210289779D01*
X480390961Y-210229329D01*
X481008376Y-210229329D01*
X481008376Y-210289779D01*
X480957021Y-210309302D01*
X480930478Y-210329484D01*
X480915633Y-210357114D01*
X480910007Y-210398864D01*
X480910007Y-211790453D01*
X480915623Y-211832105D01*
X480930478Y-211859833D01*
X480956990Y-211880314D01*
X481008376Y-211901049D01*
X481008376Y-211961500D01*
X480390961Y-211961500D01*
X480390961Y-211900912D01*
X480440959Y-211882565D01*
X480468034Y-211861757D01*
X480483533Y-211833092D01*
X480489329Y-211791003D01*
X480489329Y-211205324D01*
G37*
G36*
X481821430Y-211222909D02*
G01*
X481821430Y-211644961D01*
X482909806Y-211644961D01*
X482952268Y-211639493D01*
X482980148Y-211625177D01*
X483000542Y-211599196D01*
X483020265Y-211548241D01*
X483070961Y-211548241D01*
X483070961Y-212058220D01*
X483020128Y-212058220D01*
X483001701Y-212009109D01*
X482980835Y-211982382D01*
X482952174Y-211967204D01*
X482909806Y-211961500D01*
X481302246Y-211961500D01*
X481302246Y-211900912D01*
X481352295Y-211882549D01*
X481379320Y-211862032D01*
X481394818Y-211833632D01*
X481400615Y-211791827D01*
X481400615Y-210399002D01*
X481394930Y-210357373D01*
X481380007Y-210330308D01*
X481353687Y-210310365D01*
X481302246Y-210289779D01*
X481302246Y-210229329D01*
X482862133Y-210229329D01*
X482905763Y-210223716D01*
X482933849Y-210209133D01*
X482954396Y-210183001D01*
X482974103Y-210132609D01*
X483023288Y-210132609D01*
X483023288Y-210642588D01*
X482974103Y-210642588D01*
X482954372Y-210591658D01*
X482933987Y-210565789D01*
X482905911Y-210551417D01*
X482862133Y-210545868D01*
X481821430Y-210545868D01*
X481821430Y-210915163D01*
X482465636Y-210915163D01*
X482507937Y-210909598D01*
X482535840Y-210894967D01*
X482556701Y-210868774D01*
X482577606Y-210818443D01*
X482626790Y-210818443D01*
X482626790Y-211319629D01*
X482577606Y-211319629D01*
X482557961Y-211269879D01*
X482537351Y-211243517D01*
X482509226Y-211228625D01*
X482465636Y-211222909D01*
X481821430Y-211222909D01*
G37*
G36*
X483841562Y-211644961D02*
G01*
X484800796Y-211644961D01*
X484844359Y-211639425D01*
X484871825Y-211625177D01*
X484891985Y-211599310D01*
X484912766Y-211548241D01*
X484961950Y-211548241D01*
X484961950Y-212058220D01*
X484912766Y-212058220D01*
X484893058Y-212007828D01*
X484872511Y-211981695D01*
X484844426Y-211967113D01*
X484800796Y-211961500D01*
X483322378Y-211961500D01*
X483322378Y-211900912D01*
X483372428Y-211882549D01*
X483399452Y-211862032D01*
X483414951Y-211833632D01*
X483420747Y-211791827D01*
X483420747Y-210399002D01*
X483415063Y-210357373D01*
X483400139Y-210330308D01*
X483373819Y-210310365D01*
X483322378Y-210289779D01*
X483322378Y-210229329D01*
X483939931Y-210229329D01*
X483939931Y-210289779D01*
X483888606Y-210309475D01*
X483862033Y-210329896D01*
X483847191Y-210357808D01*
X483841562Y-210399963D01*
X483841562Y-211644961D01*
G37*
G36*
X486354476Y-210239623D02*
G01*
X486517528Y-210267255D01*
X486641776Y-210308189D01*
X486762079Y-210373666D01*
X486862504Y-210456034D01*
X486945270Y-210556282D01*
X487011346Y-210676660D01*
X487054022Y-210798609D01*
X487080812Y-210937283D01*
X487090206Y-211095414D01*
X487078215Y-211274653D01*
X487044323Y-211427815D01*
X486990689Y-211559020D01*
X486918088Y-211671627D01*
X486825874Y-211768059D01*
X486697207Y-211855528D01*
X486545193Y-211915887D01*
X486373690Y-211948982D01*
X486143612Y-211961500D01*
X485129287Y-211961500D01*
X485129287Y-211900912D01*
X485179337Y-211882549D01*
X485206361Y-211862032D01*
X485221859Y-211833632D01*
X485227656Y-211791827D01*
X485227656Y-211644961D01*
X485648471Y-211644961D01*
X486083574Y-211644961D01*
X486236430Y-211634536D01*
X486355971Y-211606197D01*
X486448772Y-211563144D01*
X486520052Y-211506750D01*
X486579661Y-211430639D01*
X486623681Y-211338972D01*
X486651684Y-211228592D01*
X486661697Y-211095414D01*
X486651684Y-210962237D01*
X486623681Y-210851856D01*
X486579661Y-210760189D01*
X486520052Y-210684079D01*
X486442543Y-210622337D01*
X486346395Y-210578978D01*
X486235498Y-210555003D01*
X486083574Y-210545868D01*
X485648471Y-210545868D01*
X485648471Y-211644961D01*
X485227656Y-211644961D01*
X485227656Y-210399002D01*
X485221971Y-210357373D01*
X485207048Y-210330308D01*
X485180728Y-210310365D01*
X485129287Y-210289779D01*
X485129287Y-210229329D01*
X486143612Y-210229329D01*
X486354476Y-210239623D01*
G37*
G36*
X487902573Y-210827236D02*
G01*
X487902573Y-211363593D01*
X487845695Y-211363593D01*
X487826176Y-211313103D01*
X487806265Y-211287069D01*
X487778941Y-211272464D01*
X487736747Y-211266873D01*
X487358659Y-211266873D01*
X487317857Y-211272581D01*
X487289966Y-211287893D01*
X487269746Y-211314411D01*
X487251498Y-211363593D01*
X487194482Y-211363593D01*
X487194482Y-210827236D01*
X487251498Y-210827236D01*
X487269794Y-210876967D01*
X487289966Y-210903348D01*
X487317820Y-210918348D01*
X487358659Y-210923956D01*
X487736747Y-210923956D01*
X487778981Y-210918467D01*
X487806265Y-210904172D01*
X487826129Y-210878274D01*
X487845695Y-210827236D01*
X487902573Y-210827236D01*
G37*
G36*
X489935895Y-211965896D02*
G01*
X489313259Y-210845508D01*
X489313259Y-211790591D01*
X489318875Y-211832242D01*
X489333729Y-211859971D01*
X489360244Y-211880424D01*
X489411627Y-211901049D01*
X489411627Y-211961500D01*
X488831032Y-211961500D01*
X488831032Y-211900912D01*
X488881081Y-211882549D01*
X488908105Y-211862032D01*
X488923604Y-211833632D01*
X488929400Y-211791827D01*
X488929400Y-210399002D01*
X488923741Y-210357264D01*
X488908792Y-210329621D01*
X488882344Y-210309342D01*
X488831032Y-210289779D01*
X488831032Y-210229329D01*
X489566874Y-210229329D01*
X489566874Y-210289642D01*
X489524936Y-210310471D01*
X489502343Y-210337752D01*
X489494746Y-210373173D01*
X489505940Y-210436075D01*
X489546404Y-210523062D01*
X489971340Y-211287343D01*
X490399437Y-210533641D01*
X490459016Y-210420886D01*
X490472664Y-210365479D01*
X490464876Y-210332105D01*
X490441582Y-210307429D01*
X490397239Y-210290054D01*
X490397239Y-210229329D01*
X491114672Y-210229329D01*
X491114672Y-210289779D01*
X491063317Y-210309302D01*
X491036773Y-210329484D01*
X491021928Y-210357114D01*
X491016303Y-210398864D01*
X491016303Y-211790453D01*
X491021894Y-211832213D01*
X491036773Y-211860520D01*
X491063415Y-211881338D01*
X491114672Y-211901049D01*
X491114672Y-211961500D01*
X490497256Y-211961500D01*
X490497256Y-211900912D01*
X490547306Y-211882549D01*
X490574330Y-211862032D01*
X490589833Y-211833649D01*
X490595625Y-211791964D01*
X490595625Y-210844684D01*
X489935895Y-211965896D01*
G37*
G36*
X492168015Y-211175786D02*
G01*
X491928687Y-211369638D01*
X491928687Y-211790591D01*
X491934303Y-211832242D01*
X491949158Y-211859971D01*
X491975673Y-211880424D01*
X492027056Y-211901049D01*
X492027056Y-211961500D01*
X491409503Y-211961500D01*
X491409503Y-211900912D01*
X491459553Y-211882549D01*
X491486577Y-211862032D01*
X491502075Y-211833632D01*
X491507872Y-211791827D01*
X491507872Y-210399002D01*
X491502188Y-210357373D01*
X491487264Y-210330308D01*
X491460944Y-210310365D01*
X491409503Y-210289779D01*
X491409503Y-210229329D01*
X492027056Y-210229329D01*
X492027056Y-210289779D01*
X491975688Y-210309160D01*
X491949158Y-210329209D01*
X491934304Y-210356673D01*
X491928687Y-210398040D01*
X491928687Y-210942228D01*
X492568634Y-210442691D01*
X492625261Y-210386186D01*
X492639251Y-210347344D01*
X492631850Y-210325412D01*
X492606258Y-210306228D01*
X492550087Y-210290191D01*
X492550087Y-210229329D01*
X493333465Y-210229329D01*
X493333465Y-210290191D01*
X493276056Y-210304386D01*
X493233585Y-210325088D01*
X493039733Y-210483082D01*
X492462434Y-210937282D01*
X493098809Y-211661172D01*
X493214371Y-211787715D01*
X493273840Y-211843347D01*
X493330441Y-211878267D01*
X493398037Y-211900775D01*
X493398037Y-211961500D01*
X492636091Y-211961500D01*
X492636091Y-211900912D01*
X492704489Y-211873184D01*
X492720584Y-211844034D01*
X492710967Y-211816694D01*
X492640213Y-211733850D01*
X492168015Y-211175786D01*
G37*
G36*
X494093213Y-210625003D02*
G01*
X494093213Y-210053474D01*
X494150091Y-210053474D01*
X494182102Y-210133296D01*
X494199567Y-210145615D01*
X494226753Y-210150195D01*
X494268656Y-210144012D01*
X494397525Y-210110352D01*
X494397525Y-210021326D01*
X494391865Y-209979588D01*
X494376917Y-209951946D01*
X494350477Y-209931584D01*
X494299156Y-209911691D01*
X494299156Y-209851241D01*
X494948857Y-209851241D01*
X494948857Y-209911691D01*
X494897355Y-209931037D01*
X494870959Y-209950297D01*
X494856173Y-209976937D01*
X494850488Y-210018853D01*
X494850488Y-211792377D01*
X494856142Y-211834424D01*
X494870959Y-211861757D01*
X494897435Y-211881543D01*
X494948857Y-211901049D01*
X494948857Y-211961500D01*
X494299156Y-211961500D01*
X494299156Y-211901049D01*
X494350550Y-211881646D01*
X494376917Y-211861894D01*
X494391841Y-211834565D01*
X494397525Y-211792651D01*
X494397525Y-210476488D01*
X494258489Y-210510560D01*
X494213715Y-210526342D01*
X494187598Y-210544906D01*
X494169175Y-210572585D01*
X494150091Y-210625003D01*
X494093213Y-210625003D01*
G37*
G36*
X496023632Y-211486691D02*
G01*
X496092433Y-211495158D01*
X496152426Y-211519847D01*
X496205807Y-211561430D01*
X496247189Y-211614937D01*
X496271730Y-211674810D01*
X496280133Y-211743192D01*
X496271672Y-211809480D01*
X496246753Y-211868432D01*
X496204296Y-211922070D01*
X496150053Y-211963784D01*
X496090492Y-211988330D01*
X496023632Y-211996670D01*
X495955851Y-211988197D01*
X495896052Y-211963349D01*
X495842145Y-211921245D01*
X495800242Y-211867211D01*
X495775542Y-211807533D01*
X495767132Y-211740170D01*
X495775467Y-211673810D01*
X495799938Y-211615138D01*
X495841458Y-211562117D01*
X495894768Y-211520865D01*
X495954790Y-211495922D01*
X496023632Y-211486691D01*
G37*
G36*
X497665905Y-209827477D02*
G01*
X497815091Y-209860572D01*
X497951176Y-209914453D01*
X498076113Y-209989288D01*
X498191318Y-210086310D01*
X498299583Y-210212991D01*
X498384643Y-210356915D01*
X498447131Y-210520558D01*
X498486292Y-210707233D01*
X498500026Y-210920933D01*
X498488625Y-211087446D01*
X498453727Y-211258767D01*
X498397676Y-211421954D01*
X498327193Y-211556621D01*
X498222849Y-211693822D01*
X498099877Y-211805893D01*
X497956524Y-211894867D01*
X497817500Y-211950818D01*
X497666986Y-211984965D01*
X497502737Y-211996670D01*
X497338093Y-211985196D01*
X497189091Y-211951918D01*
X497053303Y-211897747D01*
X496928754Y-211822502D01*
X496814017Y-211724920D01*
X496697234Y-211584621D01*
X496610411Y-211428439D01*
X496552412Y-211263166D01*
X496517337Y-211089450D01*
X496505447Y-210905546D01*
X496506207Y-210893181D01*
X496983003Y-210893181D01*
X496998944Y-211086011D01*
X497044022Y-211248909D01*
X497115993Y-211387361D01*
X497196077Y-211482935D01*
X497285677Y-211548368D01*
X497386709Y-211587519D01*
X497502737Y-211600997D01*
X497619557Y-211587464D01*
X497720798Y-211548234D01*
X497810117Y-211482799D01*
X497889480Y-211387361D01*
X497961780Y-211249036D01*
X498006699Y-211088998D01*
X498022470Y-210902386D01*
X498013175Y-210746947D01*
X497986895Y-210613288D01*
X497945412Y-210498208D01*
X497889617Y-210399002D01*
X497810419Y-210305020D01*
X497720869Y-210239869D01*
X497618998Y-210200107D01*
X497501225Y-210185366D01*
X497385997Y-210198810D01*
X497285456Y-210237905D01*
X497196083Y-210303328D01*
X497115993Y-210399002D01*
X497044022Y-210537454D01*
X496998944Y-210700352D01*
X496983003Y-210893181D01*
X496506207Y-210893181D01*
X496516964Y-210718097D01*
X496550267Y-210548722D01*
X496604143Y-210394928D01*
X496678280Y-210254608D01*
X496779689Y-210120593D01*
X496902494Y-210008858D01*
X497048949Y-209917874D01*
X497181962Y-209863816D01*
X497331740Y-209829427D01*
X497501225Y-209816070D01*
X497665905Y-209827477D01*
G37*
G36*
X386187134Y-271617740D02*
G01*
X386127647Y-271639132D01*
X386093711Y-271661551D01*
X386070875Y-271692184D01*
X386055396Y-271737419D01*
X385771311Y-273103653D01*
X385890532Y-273103653D01*
X385937267Y-273097483D01*
X385971437Y-273080602D01*
X385999574Y-273051150D01*
X386031887Y-272996186D01*
X386094474Y-272996186D01*
X385966552Y-273611678D01*
X385904423Y-273611678D01*
X385894739Y-273555203D01*
X385879541Y-273526803D01*
X385854054Y-273510633D01*
X385809321Y-273504211D01*
X385688115Y-273504211D01*
X385645373Y-273710138D01*
X385641998Y-273756383D01*
X385651632Y-273785243D01*
X385675492Y-273806567D01*
X385727652Y-273828138D01*
X385713761Y-273895000D01*
X385007288Y-273895000D01*
X385021332Y-273827527D01*
X385080820Y-273806442D01*
X385114603Y-273784327D01*
X385137434Y-273753742D01*
X385153071Y-273708001D01*
X385195355Y-273504211D01*
X384000245Y-273504211D01*
X383912524Y-273509957D01*
X383870949Y-273522529D01*
X383841617Y-273549946D01*
X383809277Y-273611678D01*
X383748217Y-273611678D01*
X383853241Y-273105942D01*
X383855715Y-273103653D01*
X384414542Y-273103653D01*
X385278551Y-273103653D01*
X385485852Y-272106684D01*
X384414542Y-273103653D01*
X383855715Y-273103653D01*
X385256569Y-271807792D01*
X385333417Y-271725146D01*
X385354419Y-271685976D01*
X385352374Y-271655721D01*
X385331844Y-271633537D01*
X385283588Y-271617740D01*
X385297632Y-271550268D01*
X386201178Y-271550268D01*
X386187134Y-271617740D01*
G37*
G36*
X387932926Y-271524494D02*
G01*
X388088318Y-271562305D01*
X388222755Y-271622685D01*
X388339504Y-271705396D01*
X388440732Y-271811913D01*
X388527176Y-271948684D01*
X388586435Y-272105254D01*
X388617864Y-272285751D01*
X388618575Y-272495324D01*
X388583614Y-272739883D01*
X388533246Y-272923675D01*
X388455387Y-273114949D01*
X388357184Y-273295585D01*
X388249460Y-273445593D01*
X388103950Y-273598344D01*
X387944212Y-273722815D01*
X387768912Y-273820963D01*
X387602610Y-273883829D01*
X387431003Y-273921438D01*
X387252338Y-273934078D01*
X387071883Y-273920693D01*
X386916764Y-273882671D01*
X386782762Y-273821971D01*
X386666572Y-273738814D01*
X386566016Y-273631675D01*
X386499097Y-273530265D01*
X386448183Y-273420712D01*
X386412906Y-273301795D01*
X386388094Y-273120678D01*
X386388906Y-273021644D01*
X386915537Y-273021644D01*
X386934440Y-273147629D01*
X386971612Y-273257831D01*
X387035864Y-273362974D01*
X387116701Y-273434992D01*
X387216649Y-273478881D01*
X387341639Y-273494441D01*
X387468583Y-273480155D01*
X387587602Y-273437479D01*
X387701511Y-273364508D01*
X387812112Y-273256610D01*
X387923894Y-273100773D01*
X388009611Y-272922160D01*
X388069025Y-272717138D01*
X388095176Y-272540663D01*
X388096896Y-272391627D01*
X388077994Y-272265454D01*
X388040937Y-272158128D01*
X387977321Y-272054735D01*
X387896493Y-271983034D01*
X387795793Y-271938490D01*
X387669230Y-271921517D01*
X387544039Y-271935708D01*
X387425850Y-271978231D01*
X387311912Y-272051180D01*
X387200437Y-272159349D01*
X387088959Y-272315379D01*
X387002401Y-272497210D01*
X386941386Y-272709048D01*
X386916816Y-272876663D01*
X386915537Y-273021644D01*
X386388906Y-273021644D01*
X386389675Y-272927777D01*
X386419470Y-272720649D01*
X386474301Y-272515416D01*
X386548992Y-272327748D01*
X386643261Y-272155778D01*
X386757441Y-271997996D01*
X386899029Y-271848772D01*
X387058444Y-271724664D01*
X387237378Y-271624304D01*
X387396903Y-271563526D01*
X387567887Y-271525635D01*
X387752425Y-271511189D01*
X387932926Y-271524494D01*
G37*
G36*
X391167246Y-271617740D02*
G01*
X391107758Y-271639132D01*
X391073823Y-271661551D01*
X391050986Y-271692184D01*
X391035507Y-271737419D01*
X390751422Y-273103653D01*
X390870643Y-273103653D01*
X390917379Y-273097483D01*
X390951549Y-273080602D01*
X390979686Y-273051150D01*
X391011999Y-272996186D01*
X391074586Y-272996186D01*
X390946664Y-273611678D01*
X390884535Y-273611678D01*
X390874851Y-273555203D01*
X390859652Y-273526803D01*
X390834165Y-273510633D01*
X390789433Y-273504211D01*
X390668227Y-273504211D01*
X390625484Y-273710138D01*
X390622110Y-273756383D01*
X390631743Y-273785243D01*
X390655604Y-273806567D01*
X390707764Y-273828138D01*
X390693872Y-273895000D01*
X389987400Y-273895000D01*
X390001444Y-273827527D01*
X390060931Y-273806442D01*
X390094714Y-273784327D01*
X390117546Y-273753742D01*
X390133183Y-273708001D01*
X390175467Y-273504211D01*
X388980356Y-273504211D01*
X388892635Y-273509957D01*
X388851060Y-273522529D01*
X388821729Y-273549946D01*
X388789389Y-273611678D01*
X388728328Y-273611678D01*
X388833353Y-273105942D01*
X388835827Y-273103653D01*
X389394653Y-273103653D01*
X390258662Y-273103653D01*
X390465963Y-272106684D01*
X389394653Y-273103653D01*
X388835827Y-273103653D01*
X390236680Y-271807792D01*
X390313528Y-271725146D01*
X390334530Y-271685976D01*
X390332486Y-271655721D01*
X390311955Y-271633537D01*
X390263700Y-271617740D01*
X390277744Y-271550268D01*
X391181290Y-271550268D01*
X391167246Y-271617740D01*
G37*
G36*
X391641077Y-273367435D02*
G01*
X391715428Y-273377227D01*
X391774718Y-273404932D01*
X391822580Y-273450783D01*
X391854839Y-273509132D01*
X391868191Y-273575556D01*
X391861659Y-273653504D01*
X391837694Y-273725925D01*
X391797232Y-273791486D01*
X391738469Y-273851494D01*
X391668905Y-273898312D01*
X391598438Y-273925208D01*
X391525367Y-273934078D01*
X391452168Y-273924281D01*
X391393114Y-273896400D01*
X391344780Y-273849967D01*
X391312053Y-273791023D01*
X391298481Y-273724801D01*
X391304785Y-273648009D01*
X391328633Y-273575509D01*
X391368544Y-273510259D01*
X391426143Y-273450935D01*
X391494627Y-273404635D01*
X391565714Y-273377283D01*
X391641077Y-273367435D01*
G37*
G36*
X391939664Y-271931287D02*
G01*
X392014015Y-271941079D01*
X392073305Y-271968784D01*
X392121167Y-272014635D01*
X392153426Y-272072984D01*
X392166778Y-272139408D01*
X392160245Y-272217356D01*
X392136281Y-272289777D01*
X392095818Y-272355338D01*
X392037056Y-272415346D01*
X391967491Y-272462164D01*
X391897025Y-272489060D01*
X391823954Y-272497930D01*
X391750755Y-272488133D01*
X391691701Y-272460252D01*
X391643367Y-272413819D01*
X391610640Y-272354875D01*
X391597068Y-272288653D01*
X391603372Y-272211861D01*
X391627220Y-272139361D01*
X391667131Y-272074111D01*
X391724730Y-272014788D01*
X391793214Y-271968487D01*
X391864300Y-271941135D01*
X391939664Y-271931287D01*
G37*
G36*
X395732908Y-271755737D02*
G01*
X395340440Y-272314443D01*
X395292202Y-272282386D01*
X395300903Y-272252008D01*
X395292106Y-272199683D01*
X395231447Y-272132177D01*
X395100434Y-272042357D01*
X394950649Y-271976841D01*
X394778683Y-271935892D01*
X394580234Y-271921517D01*
X394408869Y-271932956D01*
X394260276Y-271965481D01*
X394162290Y-272007918D01*
X394081521Y-272066079D01*
X394020533Y-272137949D01*
X393991151Y-272211098D01*
X393992132Y-272286044D01*
X394027657Y-272341451D01*
X394106098Y-272383747D01*
X394203851Y-272404636D01*
X394438726Y-272434427D01*
X394695334Y-272461752D01*
X394912350Y-272494320D01*
X395060324Y-272531972D01*
X395188226Y-272586614D01*
X395292355Y-272657299D01*
X395373907Y-272753596D01*
X395427604Y-272879407D01*
X395448056Y-273019738D01*
X395433252Y-273173415D01*
X395383602Y-273330217D01*
X395302046Y-273475746D01*
X395185651Y-273612288D01*
X395058544Y-273714547D01*
X394896877Y-273801213D01*
X394693960Y-273870881D01*
X394456460Y-273918117D01*
X394207001Y-273934078D01*
X393982863Y-273919913D01*
X393767752Y-273877858D01*
X393559829Y-273807890D01*
X393357493Y-273709070D01*
X393257354Y-273664801D01*
X393233991Y-273671678D01*
X393181028Y-273703574D01*
X393130958Y-273673654D01*
X393502665Y-273091898D01*
X393553346Y-273119528D01*
X393548003Y-273145327D01*
X393550304Y-273215964D01*
X393589219Y-273282866D01*
X393653403Y-273339794D01*
X393749761Y-273396521D01*
X393887653Y-273452309D01*
X394099242Y-273506298D01*
X394301950Y-273523750D01*
X394447745Y-273514816D01*
X394578053Y-273489107D01*
X394695028Y-273447730D01*
X394783340Y-273398207D01*
X394855465Y-273336141D01*
X394909708Y-273263104D01*
X394936676Y-273191275D01*
X394937387Y-273123251D01*
X394910395Y-273072143D01*
X394851802Y-273032059D01*
X394752390Y-273003851D01*
X394522226Y-272969624D01*
X394270656Y-272942452D01*
X394036321Y-272912953D01*
X393914825Y-272890245D01*
X393814793Y-272858103D01*
X393716378Y-272810409D01*
X393633982Y-272750170D01*
X393570086Y-272673372D01*
X393523273Y-272577462D01*
X393500031Y-272483351D01*
X393495117Y-272377595D01*
X393510603Y-272257351D01*
X393552810Y-272114806D01*
X393616583Y-271986760D01*
X393702530Y-271871124D01*
X393812548Y-271766576D01*
X393975255Y-271658866D01*
X394165508Y-271579314D01*
X394388383Y-271529011D01*
X394650149Y-271511189D01*
X394863864Y-271523210D01*
X395049333Y-271557290D01*
X395236282Y-271618039D01*
X395485917Y-271726734D01*
X395594453Y-271766118D01*
X395629377Y-271757794D01*
X395684364Y-271725207D01*
X395732908Y-271755737D01*
G37*
G36*
X396271616Y-273543290D02*
G01*
X397312854Y-273543290D01*
X397361211Y-273537240D01*
X397395286Y-273521003D01*
X397423421Y-273492042D01*
X397457415Y-273435823D01*
X397511454Y-273435823D01*
X397393759Y-274002466D01*
X397340178Y-274002466D01*
X397330339Y-273945473D01*
X397314533Y-273917134D01*
X397288133Y-273901327D01*
X397241718Y-273895000D01*
X395633837Y-273895000D01*
X395647881Y-273827527D01*
X395705627Y-273807419D01*
X395740388Y-273784174D01*
X395764230Y-273751882D01*
X395780077Y-273705406D01*
X396101867Y-272157822D01*
X396105193Y-272111052D01*
X396095456Y-272082107D01*
X396071794Y-272060270D01*
X396020046Y-272037075D01*
X396033937Y-271970366D01*
X396705452Y-271970366D01*
X396691408Y-272037838D01*
X396631993Y-272059436D01*
X396597833Y-272082565D01*
X396574731Y-272114200D01*
X396558907Y-272161028D01*
X396271616Y-273543290D01*
G37*
G36*
X398376837Y-273074344D02*
G01*
X398279292Y-273543290D01*
X399460969Y-273543290D01*
X399507836Y-273537322D01*
X399542333Y-273521003D01*
X399570909Y-273491890D01*
X399603852Y-273435823D01*
X399659569Y-273435823D01*
X399541875Y-274002466D01*
X399486615Y-274002466D01*
X399477639Y-273946894D01*
X399461427Y-273917897D01*
X399434659Y-273901431D01*
X399389834Y-273895000D01*
X397641513Y-273895000D01*
X397655557Y-273827527D01*
X397713304Y-273807419D01*
X397748064Y-273784174D01*
X397771906Y-273751882D01*
X397787753Y-273705406D01*
X398109543Y-272157822D01*
X398112869Y-272111052D01*
X398103132Y-272082107D01*
X398079470Y-272060270D01*
X398027722Y-272037075D01*
X398041613Y-271970366D01*
X399736048Y-271970366D01*
X399784518Y-271964272D01*
X399819396Y-271947773D01*
X399847986Y-271918393D01*
X399880609Y-271862899D01*
X399934801Y-271862899D01*
X399817106Y-272429542D01*
X399763373Y-272429542D01*
X399753612Y-272371951D01*
X399737880Y-272343905D01*
X399711495Y-272328332D01*
X399664912Y-272322076D01*
X398533152Y-272322076D01*
X398447820Y-272732404D01*
X399146812Y-272732404D01*
X399193677Y-272726366D01*
X399228328Y-272709811D01*
X399257232Y-272680488D01*
X399291221Y-272624937D01*
X399345412Y-272624937D01*
X399229702Y-273181810D01*
X399175969Y-273181810D01*
X399166096Y-273125533D01*
X399150323Y-273096936D01*
X399124018Y-273080786D01*
X399077814Y-273074344D01*
X398376837Y-273074344D01*
G37*
G36*
X400621428Y-273074344D02*
G01*
X400523884Y-273543290D01*
X401705561Y-273543290D01*
X401752428Y-273537322D01*
X401786925Y-273521003D01*
X401815501Y-273491890D01*
X401848443Y-273435823D01*
X401904161Y-273435823D01*
X401786467Y-274002466D01*
X401731207Y-274002466D01*
X401722230Y-273946894D01*
X401706019Y-273917897D01*
X401679251Y-273901431D01*
X401634426Y-273895000D01*
X399886105Y-273895000D01*
X399900149Y-273827527D01*
X399957895Y-273807419D01*
X399992656Y-273784174D01*
X400016497Y-273751882D01*
X400032345Y-273705406D01*
X400354135Y-272157822D01*
X400357461Y-272111052D01*
X400347724Y-272082107D01*
X400324062Y-272060270D01*
X400272314Y-272037075D01*
X400286205Y-271970366D01*
X401980640Y-271970366D01*
X402029109Y-271964272D01*
X402063988Y-271947773D01*
X402092578Y-271918393D01*
X402125201Y-271862899D01*
X402179392Y-271862899D01*
X402061698Y-272429542D01*
X402007964Y-272429542D01*
X401998204Y-272371951D01*
X401982472Y-272343905D01*
X401956087Y-272328332D01*
X401909504Y-272322076D01*
X400777744Y-272322076D01*
X400692411Y-272732404D01*
X401391404Y-272732404D01*
X401438269Y-272726366D01*
X401472920Y-272709811D01*
X401501824Y-272680488D01*
X401535812Y-272624937D01*
X401590004Y-272624937D01*
X401474294Y-273181810D01*
X401420560Y-273181810D01*
X401410688Y-273125533D01*
X401394915Y-273096936D01*
X401368610Y-273080786D01*
X401322405Y-273074344D01*
X400621428Y-273074344D01*
G37*
G36*
X403996622Y-271985620D02*
G01*
X404165797Y-272024937D01*
X404280186Y-272081038D01*
X404336557Y-272129933D01*
X404380071Y-272190767D01*
X404411314Y-272265594D01*
X404430552Y-272389029D01*
X404416504Y-272533193D01*
X404375461Y-272669819D01*
X404315334Y-272783565D01*
X404236391Y-272878026D01*
X404137151Y-272955428D01*
X404025999Y-273012002D01*
X403889828Y-273055395D01*
X403723852Y-273083664D01*
X403522575Y-273093883D01*
X402861898Y-273093883D01*
X402735045Y-273703879D01*
X402731503Y-273751677D01*
X402740998Y-273781885D01*
X402764650Y-273804616D01*
X402816103Y-273828291D01*
X402802212Y-273895000D01*
X402130696Y-273895000D01*
X402144740Y-273827527D01*
X402202487Y-273807419D01*
X402237247Y-273784174D01*
X402261089Y-273751882D01*
X402276937Y-273705406D01*
X402477223Y-272742173D01*
X402935019Y-272742173D01*
X403566997Y-272742173D01*
X403728669Y-272732069D01*
X403816125Y-272708743D01*
X403878536Y-272668199D01*
X403923097Y-272610347D01*
X403951069Y-272531056D01*
X403955660Y-272449666D01*
X403934938Y-272394019D01*
X403890924Y-272355354D01*
X403817106Y-272332608D01*
X403656298Y-272322076D01*
X403022336Y-272322076D01*
X402935019Y-272742173D01*
X402477223Y-272742173D01*
X402598727Y-272157822D01*
X402602053Y-272111052D01*
X402592315Y-272082107D01*
X402568654Y-272060270D01*
X402516905Y-272037075D01*
X402530797Y-271970366D01*
X403754148Y-271970366D01*
X403996622Y-271985620D01*
G37*
G36*
X406071097Y-272643102D02*
G01*
X405850057Y-273706017D01*
X405846830Y-273752981D01*
X405856926Y-273783411D01*
X405881127Y-273806193D01*
X405931573Y-273828138D01*
X405917682Y-273895000D01*
X405286314Y-273895000D01*
X405300358Y-273827527D01*
X405358105Y-273807419D01*
X405392865Y-273784174D01*
X405416707Y-273751882D01*
X405432554Y-273705406D01*
X405754344Y-272157822D01*
X405757670Y-272111052D01*
X405747933Y-272082107D01*
X405724271Y-272060270D01*
X405672523Y-272037075D01*
X405686414Y-271970366D01*
X406414716Y-271970366D01*
X406400672Y-272037838D01*
X406337037Y-272065447D01*
X406314118Y-272100730D01*
X406317271Y-272139284D01*
X406347091Y-272191253D01*
X407133401Y-273190054D01*
X407348029Y-272157822D01*
X407351412Y-272110912D01*
X407341770Y-272081191D01*
X407318056Y-272059134D01*
X407266208Y-272037227D01*
X407280099Y-271970366D01*
X407911467Y-271970366D01*
X407897423Y-272037838D01*
X407837845Y-272059250D01*
X407803695Y-272082107D01*
X407780738Y-272113417D01*
X407765074Y-272159807D01*
X407443589Y-273706017D01*
X407440162Y-273752805D01*
X407449695Y-273782495D01*
X407473474Y-273804922D01*
X407525258Y-273828291D01*
X407511366Y-273895000D01*
X406831608Y-273895000D01*
X406845652Y-273827375D01*
X406908624Y-273802681D01*
X406931290Y-273768451D01*
X406921520Y-273722808D01*
X406850995Y-273625111D01*
X406071097Y-272643102D01*
G37*
G36*
X409576062Y-271947724D02*
G01*
X409763024Y-271993814D01*
X409919516Y-272066396D01*
X410050576Y-272164692D01*
X410151972Y-272282797D01*
X410222135Y-272416235D01*
X410262605Y-272568403D01*
X410271907Y-272744106D01*
X410245665Y-272949169D01*
X410193593Y-273130582D01*
X410117155Y-273294512D01*
X410016004Y-273443297D01*
X409888573Y-273578561D01*
X409732144Y-273701132D01*
X409555498Y-273802291D01*
X409366379Y-273874738D01*
X409162504Y-273918944D01*
X408941103Y-273934078D01*
X408717231Y-273917595D01*
X408530935Y-273871441D01*
X408375606Y-273798864D01*
X408246079Y-273700674D01*
X408143305Y-273582189D01*
X408072334Y-273449808D01*
X408031276Y-273300399D01*
X408021211Y-273129486D01*
X408029124Y-273066589D01*
X408495473Y-273066589D01*
X408504066Y-273181799D01*
X408534770Y-273283153D01*
X408587256Y-273373694D01*
X408664541Y-273454587D01*
X408759108Y-273512960D01*
X408874549Y-273549695D01*
X409016208Y-273562829D01*
X409156413Y-273550829D01*
X409286350Y-273515502D01*
X409408242Y-273456735D01*
X409523775Y-273372930D01*
X409643950Y-273246173D01*
X409729100Y-273102999D01*
X409781604Y-272940163D01*
X409799133Y-272798779D01*
X409790889Y-272679607D01*
X409760258Y-272577978D01*
X409708178Y-272490145D01*
X409629808Y-272411194D01*
X409534640Y-272353657D01*
X409419276Y-272316832D01*
X409278769Y-272302536D01*
X409138477Y-272314449D01*
X409008555Y-272349499D01*
X408886792Y-272407760D01*
X408771507Y-272490756D01*
X408651438Y-272618769D01*
X408565418Y-272765253D01*
X408511541Y-272933751D01*
X408495473Y-273066589D01*
X408029124Y-273066589D01*
X408046106Y-272931614D01*
X408100397Y-272741247D01*
X408178774Y-272571620D01*
X408281224Y-272420022D01*
X408408991Y-272284524D01*
X408564511Y-272164081D01*
X408741129Y-272064920D01*
X408929804Y-271993147D01*
X409132646Y-271948355D01*
X409352194Y-271931287D01*
X409576062Y-271947724D01*
G37*
G36*
X411748064Y-272322076D02*
G01*
X411460621Y-273704948D01*
X411457079Y-273752300D01*
X411466574Y-273782190D01*
X411490229Y-273804765D01*
X411541831Y-273828291D01*
X411527940Y-273895000D01*
X410856577Y-273895000D01*
X410870621Y-273827527D01*
X410928335Y-273807348D01*
X410963128Y-273783869D01*
X410987115Y-273751252D01*
X411003123Y-273704337D01*
X411290414Y-272322076D01*
X410745142Y-272322076D01*
X410696967Y-272328305D01*
X410661946Y-272345279D01*
X410633165Y-272374790D01*
X410600580Y-272429542D01*
X410546542Y-272429542D01*
X410664236Y-271862899D01*
X410719496Y-271862899D01*
X410728246Y-271918686D01*
X410743768Y-271947468D01*
X410770107Y-271963848D01*
X410816277Y-271970366D01*
X412366456Y-271970366D01*
X412414792Y-271964277D01*
X412449651Y-271947773D01*
X412478270Y-271918399D01*
X412511017Y-271862899D01*
X412565056Y-271862899D01*
X412447362Y-272429542D01*
X412393781Y-272429542D01*
X412383747Y-272373282D01*
X412367830Y-272344668D01*
X412341525Y-272328518D01*
X412295321Y-272322076D01*
X411748064Y-272322076D01*
G37*
G36*
X413974185Y-273074344D02*
G01*
X413842904Y-273705253D01*
X413839361Y-273752470D01*
X413848858Y-273782342D01*
X413872636Y-273804897D01*
X413924268Y-273828291D01*
X413910376Y-273895000D01*
X413238861Y-273895000D01*
X413252905Y-273827527D01*
X413310652Y-273807419D01*
X413345412Y-273784174D01*
X413369254Y-273751882D01*
X413385102Y-273705406D01*
X413706892Y-272157822D01*
X413710217Y-272111052D01*
X413700480Y-272082107D01*
X413676819Y-272060270D01*
X413625070Y-272037075D01*
X413638961Y-271970366D01*
X415320116Y-271970366D01*
X415368585Y-271964272D01*
X415403463Y-271947773D01*
X415432053Y-271918393D01*
X415464677Y-271862899D01*
X415518715Y-271862899D01*
X415401021Y-272429542D01*
X415347440Y-272429542D01*
X415337528Y-272373282D01*
X415321642Y-272344668D01*
X415295318Y-272328523D01*
X415248980Y-272322076D01*
X414130500Y-272322076D01*
X414045168Y-272732404D01*
X414744160Y-272732404D01*
X414792247Y-272726293D01*
X414826440Y-272709811D01*
X414854738Y-272680572D01*
X414888569Y-272624937D01*
X414942760Y-272624937D01*
X414827050Y-273181810D01*
X414773317Y-273181810D01*
X414763444Y-273125533D01*
X414747671Y-273096936D01*
X414721366Y-273080786D01*
X414675162Y-273074344D01*
X413974185Y-273074344D01*
G37*
G36*
X417045009Y-271947724D02*
G01*
X417231970Y-271993814D01*
X417388462Y-272066396D01*
X417519522Y-272164692D01*
X417620918Y-272282797D01*
X417691081Y-272416235D01*
X417731551Y-272568403D01*
X417740853Y-272744106D01*
X417714611Y-272949169D01*
X417662539Y-273130582D01*
X417586101Y-273294512D01*
X417484951Y-273443297D01*
X417357520Y-273578561D01*
X417201091Y-273701132D01*
X417024444Y-273802291D01*
X416835325Y-273874738D01*
X416631450Y-273918944D01*
X416410049Y-273934078D01*
X416186177Y-273917595D01*
X415999882Y-273871441D01*
X415844552Y-273798864D01*
X415715026Y-273700674D01*
X415612251Y-273582189D01*
X415541280Y-273449808D01*
X415500222Y-273300399D01*
X415490157Y-273129486D01*
X415498070Y-273066589D01*
X415964420Y-273066589D01*
X415973012Y-273181799D01*
X416003716Y-273283153D01*
X416056202Y-273373694D01*
X416133487Y-273454587D01*
X416228054Y-273512960D01*
X416343495Y-273549695D01*
X416485154Y-273562829D01*
X416625359Y-273550829D01*
X416755296Y-273515502D01*
X416877188Y-273456735D01*
X416992721Y-273372930D01*
X417112897Y-273246173D01*
X417198047Y-273102999D01*
X417250550Y-272940163D01*
X417268079Y-272798779D01*
X417259835Y-272679607D01*
X417229204Y-272577978D01*
X417177124Y-272490145D01*
X417098754Y-272411194D01*
X417003586Y-272353657D01*
X416888222Y-272316832D01*
X416747715Y-272302536D01*
X416607423Y-272314449D01*
X416477502Y-272349499D01*
X416355739Y-272407760D01*
X416240453Y-272490756D01*
X416120384Y-272618769D01*
X416034364Y-272765253D01*
X415980487Y-272933751D01*
X415964420Y-273066589D01*
X415498070Y-273066589D01*
X415515052Y-272931614D01*
X415569344Y-272741247D01*
X415647720Y-272571620D01*
X415750170Y-272420022D01*
X415877937Y-272284524D01*
X416033457Y-272164081D01*
X416210075Y-272064920D01*
X416398750Y-271993147D01*
X416601592Y-271948355D01*
X416821140Y-271931287D01*
X417045009Y-271947724D01*
G37*
G36*
X420171389Y-272160570D02*
G01*
X419961951Y-273167766D01*
X419915743Y-273342308D01*
X419859336Y-273481592D01*
X419794385Y-273591318D01*
X419721677Y-273676250D01*
X419612190Y-273761761D01*
X419476143Y-273832058D01*
X419308535Y-273886069D01*
X419103248Y-273921317D01*
X418853241Y-273934078D01*
X418587515Y-273917847D01*
X418384600Y-273874336D01*
X418231643Y-273809515D01*
X418137523Y-273738489D01*
X418075107Y-273652913D01*
X418040523Y-273549701D01*
X418030095Y-273447079D01*
X418035265Y-273320677D01*
X418059757Y-273165629D01*
X418269195Y-272158433D01*
X418272639Y-272111368D01*
X418262937Y-272082260D01*
X418239236Y-272060311D01*
X418187374Y-272037075D01*
X418201265Y-271970366D01*
X418874460Y-271970366D01*
X418860416Y-272037838D01*
X418799520Y-272059352D01*
X418765161Y-272082260D01*
X418742171Y-272113860D01*
X418726387Y-272160570D01*
X418536183Y-273075107D01*
X418512985Y-273225040D01*
X418512980Y-273317213D01*
X418534678Y-273393988D01*
X418578773Y-273453989D01*
X418661181Y-273510386D01*
X418780137Y-273548353D01*
X418948343Y-273562829D01*
X419116892Y-273549359D01*
X419253547Y-273511985D01*
X419364472Y-273453531D01*
X419433092Y-273392324D01*
X419485372Y-273315839D01*
X419523986Y-273221488D01*
X419562461Y-273072970D01*
X419752665Y-272158433D01*
X419756322Y-272111303D01*
X419747170Y-272082260D01*
X419723873Y-272060458D01*
X419670844Y-272037227D01*
X419684735Y-271970366D01*
X420317782Y-271970366D01*
X420303738Y-272037838D01*
X420244310Y-272059279D01*
X420210163Y-272082260D01*
X420187172Y-272113860D01*
X420171389Y-272160570D01*
G37*
G36*
X421038299Y-272643102D02*
G01*
X420817259Y-273706017D01*
X420814031Y-273752981D01*
X420824128Y-273783411D01*
X420848328Y-273806193D01*
X420898775Y-273828138D01*
X420884883Y-273895000D01*
X420253516Y-273895000D01*
X420267560Y-273827527D01*
X420325306Y-273807419D01*
X420360067Y-273784174D01*
X420383908Y-273751882D01*
X420399756Y-273705406D01*
X420721546Y-272157822D01*
X420724872Y-272111052D01*
X420715135Y-272082107D01*
X420691473Y-272060270D01*
X420639725Y-272037075D01*
X420653616Y-271970366D01*
X421381918Y-271970366D01*
X421367874Y-272037838D01*
X421304239Y-272065447D01*
X421281320Y-272100730D01*
X421284473Y-272139284D01*
X421314293Y-272191253D01*
X422100602Y-273190054D01*
X422315231Y-272157822D01*
X422318613Y-272110912D01*
X422308972Y-272081191D01*
X422285258Y-272059134D01*
X422233409Y-272037227D01*
X422247301Y-271970366D01*
X422878668Y-271970366D01*
X422864624Y-272037838D01*
X422805046Y-272059250D01*
X422770896Y-272082107D01*
X422747939Y-272113417D01*
X422732275Y-272159807D01*
X422410791Y-273706017D01*
X422407364Y-273752805D01*
X422416897Y-273782495D01*
X422440676Y-273804922D01*
X422492459Y-273828291D01*
X422478568Y-273895000D01*
X421798810Y-273895000D01*
X421812854Y-273827375D01*
X421875826Y-273802681D01*
X421898491Y-273768451D01*
X421888722Y-273722808D01*
X421818196Y-273625111D01*
X421038299Y-272643102D01*
G37*
G36*
X424585809Y-271982098D02*
G01*
X424756103Y-272013040D01*
X424879781Y-272057988D01*
X424995476Y-272130715D01*
X425085381Y-272221736D01*
X425152446Y-272332961D01*
X425197144Y-272468316D01*
X425215207Y-272601659D01*
X425212591Y-272755522D01*
X425186000Y-272933751D01*
X425132865Y-273129163D01*
X425061602Y-273298625D01*
X424973142Y-273445380D01*
X424867530Y-273572017D01*
X424743920Y-273680371D01*
X424582997Y-273777876D01*
X424405186Y-273844319D01*
X424209522Y-273881289D01*
X423958222Y-273895000D01*
X422854702Y-273895000D01*
X422868746Y-273827527D01*
X422926493Y-273807419D01*
X422961253Y-273784174D01*
X422985095Y-273751882D01*
X423000942Y-273705406D01*
X423034651Y-273543290D01*
X423492481Y-273543290D01*
X423964175Y-273543290D01*
X424128936Y-273532245D01*
X424265235Y-273501478D01*
X424377936Y-273453519D01*
X424470979Y-273389417D01*
X424554477Y-273303515D01*
X424623957Y-273200366D01*
X424679553Y-273077488D01*
X424720412Y-272931614D01*
X424740463Y-272779848D01*
X424734717Y-272657012D01*
X424707739Y-272557093D01*
X424661641Y-272475185D01*
X424592178Y-272407074D01*
X424497693Y-272358865D01*
X424384027Y-272332387D01*
X424220020Y-272322076D01*
X423746341Y-272322076D01*
X423492481Y-273543290D01*
X423034651Y-273543290D01*
X423322732Y-272157822D01*
X423326058Y-272111052D01*
X423316321Y-272082107D01*
X423292659Y-272060270D01*
X423240911Y-272037075D01*
X423254802Y-271970366D01*
X424356338Y-271970366D01*
X424585809Y-271982098D01*
G37*
D11*
X453576666Y-197784819D02*
X453576666Y-198499104D01*
X453576666Y-198499104D02*
X453529047Y-198641961D01*
X453529047Y-198641961D02*
X453433809Y-198737200D01*
X453433809Y-198737200D02*
X453290952Y-198784819D01*
X453290952Y-198784819D02*
X453195714Y-198784819D01*
X454529047Y-197784819D02*
X454052857Y-197784819D01*
X454052857Y-197784819D02*
X454005238Y-198261009D01*
X454005238Y-198261009D02*
X454052857Y-198213390D01*
X454052857Y-198213390D02*
X454148095Y-198165771D01*
X454148095Y-198165771D02*
X454386190Y-198165771D01*
X454386190Y-198165771D02*
X454481428Y-198213390D01*
X454481428Y-198213390D02*
X454529047Y-198261009D01*
X454529047Y-198261009D02*
X454576666Y-198356247D01*
X454576666Y-198356247D02*
X454576666Y-198594342D01*
X454576666Y-198594342D02*
X454529047Y-198689580D01*
X454529047Y-198689580D02*
X454481428Y-198737200D01*
X454481428Y-198737200D02*
X454386190Y-198784819D01*
X454386190Y-198784819D02*
X454148095Y-198784819D01*
X454148095Y-198784819D02*
X454052857Y-198737200D01*
X454052857Y-198737200D02*
X454005238Y-198689580D01*
X484741905Y-200914819D02*
X484741905Y-199914819D01*
X484741905Y-199914819D02*
X484980000Y-199914819D01*
X484980000Y-199914819D02*
X485122857Y-199962438D01*
X485122857Y-199962438D02*
X485218095Y-200057676D01*
X485218095Y-200057676D02*
X485265714Y-200152914D01*
X485265714Y-200152914D02*
X485313333Y-200343390D01*
X485313333Y-200343390D02*
X485313333Y-200486247D01*
X485313333Y-200486247D02*
X485265714Y-200676723D01*
X485265714Y-200676723D02*
X485218095Y-200771961D01*
X485218095Y-200771961D02*
X485122857Y-200867200D01*
X485122857Y-200867200D02*
X484980000Y-200914819D01*
X484980000Y-200914819D02*
X484741905Y-200914819D01*
X485694286Y-200010057D02*
X485741905Y-199962438D01*
X485741905Y-199962438D02*
X485837143Y-199914819D01*
X485837143Y-199914819D02*
X486075238Y-199914819D01*
X486075238Y-199914819D02*
X486170476Y-199962438D01*
X486170476Y-199962438D02*
X486218095Y-200010057D01*
X486218095Y-200010057D02*
X486265714Y-200105295D01*
X486265714Y-200105295D02*
X486265714Y-200200533D01*
X486265714Y-200200533D02*
X486218095Y-200343390D01*
X486218095Y-200343390D02*
X485646667Y-200914819D01*
X485646667Y-200914819D02*
X486265714Y-200914819D01*
X515452380Y-220011009D02*
X515595237Y-220058628D01*
X515595237Y-220058628D02*
X515642856Y-220106247D01*
X515642856Y-220106247D02*
X515690475Y-220201485D01*
X515690475Y-220201485D02*
X515690475Y-220344342D01*
X515690475Y-220344342D02*
X515642856Y-220439580D01*
X515642856Y-220439580D02*
X515595237Y-220487200D01*
X515595237Y-220487200D02*
X515499999Y-220534819D01*
X515499999Y-220534819D02*
X515119047Y-220534819D01*
X515119047Y-220534819D02*
X515119047Y-219534819D01*
X515119047Y-219534819D02*
X515452380Y-219534819D01*
X515452380Y-219534819D02*
X515547618Y-219582438D01*
X515547618Y-219582438D02*
X515595237Y-219630057D01*
X515595237Y-219630057D02*
X515642856Y-219725295D01*
X515642856Y-219725295D02*
X515642856Y-219820533D01*
X515642856Y-219820533D02*
X515595237Y-219915771D01*
X515595237Y-219915771D02*
X515547618Y-219963390D01*
X515547618Y-219963390D02*
X515452380Y-220011009D01*
X515452380Y-220011009D02*
X515119047Y-220011009D01*
X516547618Y-220534819D02*
X516547618Y-220011009D01*
X516547618Y-220011009D02*
X516499999Y-219915771D01*
X516499999Y-219915771D02*
X516404761Y-219868152D01*
X516404761Y-219868152D02*
X516214285Y-219868152D01*
X516214285Y-219868152D02*
X516119047Y-219915771D01*
X516547618Y-220487200D02*
X516452380Y-220534819D01*
X516452380Y-220534819D02*
X516214285Y-220534819D01*
X516214285Y-220534819D02*
X516119047Y-220487200D01*
X516119047Y-220487200D02*
X516071428Y-220391961D01*
X516071428Y-220391961D02*
X516071428Y-220296723D01*
X516071428Y-220296723D02*
X516119047Y-220201485D01*
X516119047Y-220201485D02*
X516214285Y-220153866D01*
X516214285Y-220153866D02*
X516452380Y-220153866D01*
X516452380Y-220153866D02*
X516547618Y-220106247D01*
X516880952Y-219868152D02*
X517261904Y-219868152D01*
X517023809Y-219534819D02*
X517023809Y-220391961D01*
X517023809Y-220391961D02*
X517071428Y-220487200D01*
X517071428Y-220487200D02*
X517166666Y-220534819D01*
X517166666Y-220534819D02*
X517261904Y-220534819D01*
X517452381Y-219868152D02*
X517833333Y-219868152D01*
X517595238Y-219534819D02*
X517595238Y-220391961D01*
X517595238Y-220391961D02*
X517642857Y-220487200D01*
X517642857Y-220487200D02*
X517738095Y-220534819D01*
X517738095Y-220534819D02*
X517833333Y-220534819D01*
X518547619Y-220487200D02*
X518452381Y-220534819D01*
X518452381Y-220534819D02*
X518261905Y-220534819D01*
X518261905Y-220534819D02*
X518166667Y-220487200D01*
X518166667Y-220487200D02*
X518119048Y-220391961D01*
X518119048Y-220391961D02*
X518119048Y-220011009D01*
X518119048Y-220011009D02*
X518166667Y-219915771D01*
X518166667Y-219915771D02*
X518261905Y-219868152D01*
X518261905Y-219868152D02*
X518452381Y-219868152D01*
X518452381Y-219868152D02*
X518547619Y-219915771D01*
X518547619Y-219915771D02*
X518595238Y-220011009D01*
X518595238Y-220011009D02*
X518595238Y-220106247D01*
X518595238Y-220106247D02*
X518119048Y-220201485D01*
X519023810Y-220534819D02*
X519023810Y-219868152D01*
X519023810Y-220058628D02*
X519071429Y-219963390D01*
X519071429Y-219963390D02*
X519119048Y-219915771D01*
X519119048Y-219915771D02*
X519214286Y-219868152D01*
X519214286Y-219868152D02*
X519309524Y-219868152D01*
X519547620Y-219868152D02*
X519785715Y-220534819D01*
X520023810Y-219868152D02*
X519785715Y-220534819D01*
X519785715Y-220534819D02*
X519690477Y-220772914D01*
X519690477Y-220772914D02*
X519642858Y-220820533D01*
X519642858Y-220820533D02*
X519547620Y-220868152D01*
X520166668Y-220630057D02*
X520928572Y-220630057D01*
X521071430Y-219534819D02*
X521690477Y-219534819D01*
X521690477Y-219534819D02*
X521357144Y-219915771D01*
X521357144Y-219915771D02*
X521500001Y-219915771D01*
X521500001Y-219915771D02*
X521595239Y-219963390D01*
X521595239Y-219963390D02*
X521642858Y-220011009D01*
X521642858Y-220011009D02*
X521690477Y-220106247D01*
X521690477Y-220106247D02*
X521690477Y-220344342D01*
X521690477Y-220344342D02*
X521642858Y-220439580D01*
X521642858Y-220439580D02*
X521595239Y-220487200D01*
X521595239Y-220487200D02*
X521500001Y-220534819D01*
X521500001Y-220534819D02*
X521214287Y-220534819D01*
X521214287Y-220534819D02*
X521119049Y-220487200D01*
X521119049Y-220487200D02*
X521071430Y-220439580D01*
X522119049Y-220439580D02*
X522166668Y-220487200D01*
X522166668Y-220487200D02*
X522119049Y-220534819D01*
X522119049Y-220534819D02*
X522071430Y-220487200D01*
X522071430Y-220487200D02*
X522119049Y-220439580D01*
X522119049Y-220439580D02*
X522119049Y-220534819D01*
X522500001Y-219534819D02*
X523166667Y-219534819D01*
X523166667Y-219534819D02*
X522738096Y-220534819D01*
X523404763Y-219534819D02*
X523738096Y-220534819D01*
X523738096Y-220534819D02*
X524071429Y-219534819D01*
X524928572Y-220534819D02*
X524357144Y-220534819D01*
X524642858Y-220534819D02*
X524642858Y-219534819D01*
X524642858Y-219534819D02*
X524547620Y-219677676D01*
X524547620Y-219677676D02*
X524452382Y-219772914D01*
X524452382Y-219772914D02*
X524357144Y-219820533D01*
X476716666Y-279004819D02*
X476716666Y-279719104D01*
X476716666Y-279719104D02*
X476669047Y-279861961D01*
X476669047Y-279861961D02*
X476573809Y-279957200D01*
X476573809Y-279957200D02*
X476430952Y-280004819D01*
X476430952Y-280004819D02*
X476335714Y-280004819D01*
X477097619Y-279004819D02*
X477764285Y-279004819D01*
X477764285Y-279004819D02*
X477335714Y-280004819D01*
X509666666Y-265584819D02*
X509666666Y-266299104D01*
X509666666Y-266299104D02*
X509619047Y-266441961D01*
X509619047Y-266441961D02*
X509523809Y-266537200D01*
X509523809Y-266537200D02*
X509380952Y-266584819D01*
X509380952Y-266584819D02*
X509285714Y-266584819D01*
X510571428Y-265584819D02*
X510380952Y-265584819D01*
X510380952Y-265584819D02*
X510285714Y-265632438D01*
X510285714Y-265632438D02*
X510238095Y-265680057D01*
X510238095Y-265680057D02*
X510142857Y-265822914D01*
X510142857Y-265822914D02*
X510095238Y-266013390D01*
X510095238Y-266013390D02*
X510095238Y-266394342D01*
X510095238Y-266394342D02*
X510142857Y-266489580D01*
X510142857Y-266489580D02*
X510190476Y-266537200D01*
X510190476Y-266537200D02*
X510285714Y-266584819D01*
X510285714Y-266584819D02*
X510476190Y-266584819D01*
X510476190Y-266584819D02*
X510571428Y-266537200D01*
X510571428Y-266537200D02*
X510619047Y-266489580D01*
X510619047Y-266489580D02*
X510666666Y-266394342D01*
X510666666Y-266394342D02*
X510666666Y-266156247D01*
X510666666Y-266156247D02*
X510619047Y-266061009D01*
X510619047Y-266061009D02*
X510571428Y-266013390D01*
X510571428Y-266013390D02*
X510476190Y-265965771D01*
X510476190Y-265965771D02*
X510285714Y-265965771D01*
X510285714Y-265965771D02*
X510190476Y-266013390D01*
X510190476Y-266013390D02*
X510142857Y-266061009D01*
X510142857Y-266061009D02*
X510095238Y-266156247D01*
X503741905Y-200664819D02*
X503741905Y-199664819D01*
X503741905Y-199664819D02*
X503980000Y-199664819D01*
X503980000Y-199664819D02*
X504122857Y-199712438D01*
X504122857Y-199712438D02*
X504218095Y-199807676D01*
X504218095Y-199807676D02*
X504265714Y-199902914D01*
X504265714Y-199902914D02*
X504313333Y-200093390D01*
X504313333Y-200093390D02*
X504313333Y-200236247D01*
X504313333Y-200236247D02*
X504265714Y-200426723D01*
X504265714Y-200426723D02*
X504218095Y-200521961D01*
X504218095Y-200521961D02*
X504122857Y-200617200D01*
X504122857Y-200617200D02*
X503980000Y-200664819D01*
X503980000Y-200664819D02*
X503741905Y-200664819D01*
X505265714Y-200664819D02*
X504694286Y-200664819D01*
X504980000Y-200664819D02*
X504980000Y-199664819D01*
X504980000Y-199664819D02*
X504884762Y-199807676D01*
X504884762Y-199807676D02*
X504789524Y-199902914D01*
X504789524Y-199902914D02*
X504694286Y-199950533D01*
X384990476Y-225094819D02*
X384990476Y-225809104D01*
X384990476Y-225809104D02*
X384942857Y-225951961D01*
X384942857Y-225951961D02*
X384847619Y-226047200D01*
X384847619Y-226047200D02*
X384704762Y-226094819D01*
X384704762Y-226094819D02*
X384609524Y-226094819D01*
X385990476Y-226094819D02*
X385419048Y-226094819D01*
X385704762Y-226094819D02*
X385704762Y-225094819D01*
X385704762Y-225094819D02*
X385609524Y-225237676D01*
X385609524Y-225237676D02*
X385514286Y-225332914D01*
X385514286Y-225332914D02*
X385419048Y-225380533D01*
X386323810Y-225094819D02*
X386942857Y-225094819D01*
X386942857Y-225094819D02*
X386609524Y-225475771D01*
X386609524Y-225475771D02*
X386752381Y-225475771D01*
X386752381Y-225475771D02*
X386847619Y-225523390D01*
X386847619Y-225523390D02*
X386895238Y-225571009D01*
X386895238Y-225571009D02*
X386942857Y-225666247D01*
X386942857Y-225666247D02*
X386942857Y-225904342D01*
X386942857Y-225904342D02*
X386895238Y-225999580D01*
X386895238Y-225999580D02*
X386847619Y-226047200D01*
X386847619Y-226047200D02*
X386752381Y-226094819D01*
X386752381Y-226094819D02*
X386466667Y-226094819D01*
X386466667Y-226094819D02*
X386371429Y-226047200D01*
X386371429Y-226047200D02*
X386323810Y-225999580D01*
X493083333Y-261759580D02*
X493035714Y-261807200D01*
X493035714Y-261807200D02*
X492892857Y-261854819D01*
X492892857Y-261854819D02*
X492797619Y-261854819D01*
X492797619Y-261854819D02*
X492654762Y-261807200D01*
X492654762Y-261807200D02*
X492559524Y-261711961D01*
X492559524Y-261711961D02*
X492511905Y-261616723D01*
X492511905Y-261616723D02*
X492464286Y-261426247D01*
X492464286Y-261426247D02*
X492464286Y-261283390D01*
X492464286Y-261283390D02*
X492511905Y-261092914D01*
X492511905Y-261092914D02*
X492559524Y-260997676D01*
X492559524Y-260997676D02*
X492654762Y-260902438D01*
X492654762Y-260902438D02*
X492797619Y-260854819D01*
X492797619Y-260854819D02*
X492892857Y-260854819D01*
X492892857Y-260854819D02*
X493035714Y-260902438D01*
X493035714Y-260902438D02*
X493083333Y-260950057D01*
X493654762Y-261283390D02*
X493559524Y-261235771D01*
X493559524Y-261235771D02*
X493511905Y-261188152D01*
X493511905Y-261188152D02*
X493464286Y-261092914D01*
X493464286Y-261092914D02*
X493464286Y-261045295D01*
X493464286Y-261045295D02*
X493511905Y-260950057D01*
X493511905Y-260950057D02*
X493559524Y-260902438D01*
X493559524Y-260902438D02*
X493654762Y-260854819D01*
X493654762Y-260854819D02*
X493845238Y-260854819D01*
X493845238Y-260854819D02*
X493940476Y-260902438D01*
X493940476Y-260902438D02*
X493988095Y-260950057D01*
X493988095Y-260950057D02*
X494035714Y-261045295D01*
X494035714Y-261045295D02*
X494035714Y-261092914D01*
X494035714Y-261092914D02*
X493988095Y-261188152D01*
X493988095Y-261188152D02*
X493940476Y-261235771D01*
X493940476Y-261235771D02*
X493845238Y-261283390D01*
X493845238Y-261283390D02*
X493654762Y-261283390D01*
X493654762Y-261283390D02*
X493559524Y-261331009D01*
X493559524Y-261331009D02*
X493511905Y-261378628D01*
X493511905Y-261378628D02*
X493464286Y-261473866D01*
X493464286Y-261473866D02*
X493464286Y-261664342D01*
X493464286Y-261664342D02*
X493511905Y-261759580D01*
X493511905Y-261759580D02*
X493559524Y-261807200D01*
X493559524Y-261807200D02*
X493654762Y-261854819D01*
X493654762Y-261854819D02*
X493845238Y-261854819D01*
X493845238Y-261854819D02*
X493940476Y-261807200D01*
X493940476Y-261807200D02*
X493988095Y-261759580D01*
X493988095Y-261759580D02*
X494035714Y-261664342D01*
X494035714Y-261664342D02*
X494035714Y-261473866D01*
X494035714Y-261473866D02*
X493988095Y-261378628D01*
X493988095Y-261378628D02*
X493940476Y-261331009D01*
X493940476Y-261331009D02*
X493845238Y-261283390D01*
X417436666Y-210224819D02*
X417436666Y-210939104D01*
X417436666Y-210939104D02*
X417389047Y-211081961D01*
X417389047Y-211081961D02*
X417293809Y-211177200D01*
X417293809Y-211177200D02*
X417150952Y-211224819D01*
X417150952Y-211224819D02*
X417055714Y-211224819D01*
X418436666Y-211224819D02*
X417865238Y-211224819D01*
X418150952Y-211224819D02*
X418150952Y-210224819D01*
X418150952Y-210224819D02*
X418055714Y-210367676D01*
X418055714Y-210367676D02*
X417960476Y-210462914D01*
X417960476Y-210462914D02*
X417865238Y-210510533D01*
X517866667Y-200007200D02*
X518009524Y-200054819D01*
X518009524Y-200054819D02*
X518247619Y-200054819D01*
X518247619Y-200054819D02*
X518342857Y-200007200D01*
X518342857Y-200007200D02*
X518390476Y-199959580D01*
X518390476Y-199959580D02*
X518438095Y-199864342D01*
X518438095Y-199864342D02*
X518438095Y-199769104D01*
X518438095Y-199769104D02*
X518390476Y-199673866D01*
X518390476Y-199673866D02*
X518342857Y-199626247D01*
X518342857Y-199626247D02*
X518247619Y-199578628D01*
X518247619Y-199578628D02*
X518057143Y-199531009D01*
X518057143Y-199531009D02*
X517961905Y-199483390D01*
X517961905Y-199483390D02*
X517914286Y-199435771D01*
X517914286Y-199435771D02*
X517866667Y-199340533D01*
X517866667Y-199340533D02*
X517866667Y-199245295D01*
X517866667Y-199245295D02*
X517914286Y-199150057D01*
X517914286Y-199150057D02*
X517961905Y-199102438D01*
X517961905Y-199102438D02*
X518057143Y-199054819D01*
X518057143Y-199054819D02*
X518295238Y-199054819D01*
X518295238Y-199054819D02*
X518438095Y-199102438D01*
X518771429Y-199054819D02*
X519009524Y-200054819D01*
X519009524Y-200054819D02*
X519200000Y-199340533D01*
X519200000Y-199340533D02*
X519390476Y-200054819D01*
X519390476Y-200054819D02*
X519628572Y-199054819D01*
X520533333Y-200054819D02*
X519961905Y-200054819D01*
X520247619Y-200054819D02*
X520247619Y-199054819D01*
X520247619Y-199054819D02*
X520152381Y-199197676D01*
X520152381Y-199197676D02*
X520057143Y-199292914D01*
X520057143Y-199292914D02*
X519961905Y-199340533D01*
X493333333Y-272259580D02*
X493285714Y-272307200D01*
X493285714Y-272307200D02*
X493142857Y-272354819D01*
X493142857Y-272354819D02*
X493047619Y-272354819D01*
X493047619Y-272354819D02*
X492904762Y-272307200D01*
X492904762Y-272307200D02*
X492809524Y-272211961D01*
X492809524Y-272211961D02*
X492761905Y-272116723D01*
X492761905Y-272116723D02*
X492714286Y-271926247D01*
X492714286Y-271926247D02*
X492714286Y-271783390D01*
X492714286Y-271783390D02*
X492761905Y-271592914D01*
X492761905Y-271592914D02*
X492809524Y-271497676D01*
X492809524Y-271497676D02*
X492904762Y-271402438D01*
X492904762Y-271402438D02*
X493047619Y-271354819D01*
X493047619Y-271354819D02*
X493142857Y-271354819D01*
X493142857Y-271354819D02*
X493285714Y-271402438D01*
X493285714Y-271402438D02*
X493333333Y-271450057D01*
X493666667Y-271354819D02*
X494333333Y-271354819D01*
X494333333Y-271354819D02*
X493904762Y-272354819D01*
X557940476Y-226594819D02*
X557940476Y-227309104D01*
X557940476Y-227309104D02*
X557892857Y-227451961D01*
X557892857Y-227451961D02*
X557797619Y-227547200D01*
X557797619Y-227547200D02*
X557654762Y-227594819D01*
X557654762Y-227594819D02*
X557559524Y-227594819D01*
X558940476Y-227594819D02*
X558369048Y-227594819D01*
X558654762Y-227594819D02*
X558654762Y-226594819D01*
X558654762Y-226594819D02*
X558559524Y-226737676D01*
X558559524Y-226737676D02*
X558464286Y-226832914D01*
X558464286Y-226832914D02*
X558369048Y-226880533D01*
X559321429Y-226690057D02*
X559369048Y-226642438D01*
X559369048Y-226642438D02*
X559464286Y-226594819D01*
X559464286Y-226594819D02*
X559702381Y-226594819D01*
X559702381Y-226594819D02*
X559797619Y-226642438D01*
X559797619Y-226642438D02*
X559845238Y-226690057D01*
X559845238Y-226690057D02*
X559892857Y-226785295D01*
X559892857Y-226785295D02*
X559892857Y-226880533D01*
X559892857Y-226880533D02*
X559845238Y-227023390D01*
X559845238Y-227023390D02*
X559273810Y-227594819D01*
X559273810Y-227594819D02*
X559892857Y-227594819D01*
%TO.C,J5*%
D12*
X452530000Y-199330000D02*
X453910000Y-199330000D01*
X452530000Y-200710000D02*
X452530000Y-199330000D01*
X452530000Y-201980000D02*
X452530000Y-204630000D01*
X452530000Y-201980000D02*
X455290000Y-201980000D01*
X452530000Y-204630000D02*
X455290000Y-204630000D01*
X455290000Y-201980000D02*
X455290000Y-204630000D01*
%TO.C,D2*%
X487040000Y-196420000D02*
X487040000Y-196264000D01*
X487040000Y-198736000D02*
X487040000Y-198580000D01*
X483808563Y-196420000D02*
G75*
G02*
X487040000Y-196264484I1671437J-1080000D01*
G01*
X484439039Y-196420000D02*
G75*
G02*
X486520961Y-196420000I1040961J-1080000D01*
G01*
X486520961Y-198580000D02*
G75*
G02*
X484439039Y-198580000I-1040961J1080000D01*
G01*
X487040000Y-198735516D02*
G75*
G02*
X483808563Y-198580000I-1560000J1235516D01*
G01*
%TO.C,Battery_3.7V1*%
X518620000Y-221080000D02*
X520000000Y-221080000D01*
X518620000Y-222460000D02*
X518620000Y-221080000D01*
X518620000Y-223730000D02*
X518620000Y-226380000D01*
X518620000Y-223730000D02*
X521380000Y-223730000D01*
X518620000Y-226380000D02*
X521380000Y-226380000D01*
X521380000Y-223730000D02*
X521380000Y-226380000D01*
%TO.C,J2*%
X490230000Y-193860000D02*
X490230000Y-191130000D01*
X490230000Y-197460000D02*
X490230000Y-196560000D01*
X499300000Y-200540000D02*
X490350000Y-200540000D01*
X499420000Y-191130000D02*
X490230000Y-191130000D01*
X499420000Y-193860000D02*
X499420000Y-191130000D01*
X499420000Y-197460000D02*
X499420000Y-196560000D01*
%TO.C,J7*%
X473950000Y-261050000D02*
X480150000Y-261050000D01*
X473950000Y-269950000D02*
X473950000Y-261050000D01*
X473950000Y-275750000D02*
X473950000Y-272550000D01*
X474450000Y-275750000D02*
X473950000Y-275750000D01*
X474450000Y-278250000D02*
X474450000Y-275750000D01*
X479650000Y-275750000D02*
X479650000Y-278250000D01*
X479650000Y-278250000D02*
X474450000Y-278250000D01*
X480150000Y-261050000D02*
X480150000Y-262250000D01*
X480150000Y-265450000D02*
X480150000Y-271950000D01*
X480150000Y-271950000D02*
X482150000Y-271950000D01*
X480150000Y-274550000D02*
X480150000Y-275750000D01*
X480150000Y-274550000D02*
X482150000Y-274550000D01*
X480150000Y-275750000D02*
X479650000Y-275750000D01*
%TO.C,J6*%
X508620000Y-262480000D02*
X508620000Y-259830000D01*
X511380000Y-259830000D02*
X508620000Y-259830000D01*
X511380000Y-262480000D02*
X508620000Y-262480000D01*
X511380000Y-262480000D02*
X511380000Y-259830000D01*
X511380000Y-263750000D02*
X511380000Y-265130000D01*
X511380000Y-265130000D02*
X510000000Y-265130000D01*
%TO.C,D1*%
X506040000Y-196170000D02*
X506040000Y-196014000D01*
X506040000Y-198486000D02*
X506040000Y-198330000D01*
X502808563Y-196170000D02*
G75*
G02*
X506040000Y-196014484I1671437J-1080000D01*
G01*
X503439039Y-196170000D02*
G75*
G02*
X505520961Y-196170000I1040961J-1080000D01*
G01*
X505520961Y-198330000D02*
G75*
G02*
X503439039Y-198330000I-1040961J1080000D01*
G01*
X506040000Y-198485516D02*
G75*
G02*
X502808563Y-198330000I-1560000J1235516D01*
G01*
%TO.C,J13*%
X385055000Y-226515000D02*
X385800000Y-226515000D01*
X385055000Y-227250000D02*
X385055000Y-226515000D01*
X385055000Y-227985000D02*
X385055000Y-238860000D01*
X385055000Y-227985000D02*
X385114435Y-227985000D01*
X385055000Y-238860000D02*
X385389970Y-238860000D01*
X386210030Y-238860000D02*
X386545000Y-238860000D01*
X386485565Y-227985000D02*
X386545000Y-227985000D01*
X386545000Y-227985000D02*
X386545000Y-238860000D01*
%TO.C,C8*%
X490010000Y-257402000D02*
X490010000Y-256598000D01*
X490050000Y-257633000D02*
X490050000Y-256367000D01*
X490090000Y-257801000D02*
X490090000Y-256199000D01*
X490130000Y-257939000D02*
X490130000Y-256061000D01*
X490170000Y-258058000D02*
X490170000Y-255942000D01*
X490210000Y-258165000D02*
X490210000Y-255835000D01*
X490250000Y-258261000D02*
X490250000Y-255739000D01*
X490290000Y-258350000D02*
X490290000Y-255650000D01*
X490330000Y-258432000D02*
X490330000Y-255568000D01*
X490370000Y-258509000D02*
X490370000Y-255491000D01*
X490410000Y-258581000D02*
X490410000Y-255419000D01*
X490450000Y-258649000D02*
X490450000Y-255351000D01*
X490490000Y-258714000D02*
X490490000Y-255286000D01*
X490530000Y-258775000D02*
X490530000Y-255225000D01*
X490570000Y-258834000D02*
X490570000Y-255166000D01*
X490610000Y-258890000D02*
X490610000Y-255110000D01*
X490650000Y-258943000D02*
X490650000Y-255057000D01*
X490690000Y-258995000D02*
X490690000Y-255005000D01*
X490730000Y-259044000D02*
X490730000Y-254956000D01*
X490770000Y-259091000D02*
X490770000Y-254909000D01*
X490810000Y-259137000D02*
X490810000Y-254863000D01*
X490850000Y-259181000D02*
X490850000Y-254819000D01*
X490890000Y-259223000D02*
X490890000Y-254777000D01*
X490930000Y-259264000D02*
X490930000Y-254736000D01*
X490970000Y-255960000D02*
X490970000Y-254696000D01*
X490970000Y-259304000D02*
X490970000Y-258040000D01*
X491010000Y-255960000D02*
X491010000Y-254658000D01*
X491010000Y-259342000D02*
X491010000Y-258040000D01*
X491050000Y-255960000D02*
X491050000Y-254621000D01*
X491050000Y-259379000D02*
X491050000Y-258040000D01*
X491090000Y-255960000D02*
X491090000Y-254585000D01*
X491090000Y-259415000D02*
X491090000Y-258040000D01*
X491130000Y-255960000D02*
X491130000Y-254550000D01*
X491130000Y-259450000D02*
X491130000Y-258040000D01*
X491170000Y-255960000D02*
X491170000Y-254517000D01*
X491170000Y-259483000D02*
X491170000Y-258040000D01*
X491210000Y-255960000D02*
X491210000Y-254484000D01*
X491210000Y-259516000D02*
X491210000Y-258040000D01*
X491250000Y-255960000D02*
X491250000Y-254453000D01*
X491250000Y-259547000D02*
X491250000Y-258040000D01*
X491290000Y-255960000D02*
X491290000Y-254423000D01*
X491290000Y-259577000D02*
X491290000Y-258040000D01*
X491330000Y-255960000D02*
X491330000Y-254393000D01*
X491330000Y-259607000D02*
X491330000Y-258040000D01*
X491370000Y-255960000D02*
X491370000Y-254364000D01*
X491370000Y-259636000D02*
X491370000Y-258040000D01*
X491410000Y-255960000D02*
X491410000Y-254337000D01*
X491410000Y-259663000D02*
X491410000Y-258040000D01*
X491450000Y-255960000D02*
X491450000Y-254310000D01*
X491450000Y-259690000D02*
X491450000Y-258040000D01*
X491490000Y-255960000D02*
X491490000Y-254284000D01*
X491490000Y-259716000D02*
X491490000Y-258040000D01*
X491530000Y-255960000D02*
X491530000Y-254259000D01*
X491530000Y-259741000D02*
X491530000Y-258040000D01*
X491570000Y-255960000D02*
X491570000Y-254235000D01*
X491570000Y-259765000D02*
X491570000Y-258040000D01*
X491610000Y-255960000D02*
X491610000Y-254211000D01*
X491610000Y-259789000D02*
X491610000Y-258040000D01*
X491650000Y-255960000D02*
X491650000Y-254188000D01*
X491650000Y-259812000D02*
X491650000Y-258040000D01*
X491690000Y-255960000D02*
X491690000Y-254166000D01*
X491690000Y-259834000D02*
X491690000Y-258040000D01*
X491730000Y-255960000D02*
X491730000Y-254145000D01*
X491730000Y-259855000D02*
X491730000Y-258040000D01*
X491770000Y-255960000D02*
X491770000Y-254124000D01*
X491770000Y-259876000D02*
X491770000Y-258040000D01*
X491810000Y-255960000D02*
X491810000Y-254104000D01*
X491810000Y-259896000D02*
X491810000Y-258040000D01*
X491850000Y-255960000D02*
X491850000Y-254085000D01*
X491850000Y-259915000D02*
X491850000Y-258040000D01*
X491890000Y-255960000D02*
X491890000Y-254066000D01*
X491890000Y-259934000D02*
X491890000Y-258040000D01*
X491930000Y-255960000D02*
X491930000Y-254048000D01*
X491930000Y-259952000D02*
X491930000Y-258040000D01*
X491970000Y-255960000D02*
X491970000Y-254031000D01*
X491970000Y-259969000D02*
X491970000Y-258040000D01*
X492010000Y-255960000D02*
X492010000Y-254014000D01*
X492010000Y-259986000D02*
X492010000Y-258040000D01*
X492050000Y-255960000D02*
X492050000Y-253998000D01*
X492050000Y-260002000D02*
X492050000Y-258040000D01*
X492090000Y-255960000D02*
X492090000Y-253983000D01*
X492090000Y-260017000D02*
X492090000Y-258040000D01*
X492130000Y-255960000D02*
X492130000Y-253968000D01*
X492130000Y-260032000D02*
X492130000Y-258040000D01*
X492170000Y-255960000D02*
X492170000Y-253953000D01*
X492170000Y-260047000D02*
X492170000Y-258040000D01*
X492210000Y-255960000D02*
X492210000Y-253940000D01*
X492210000Y-260060000D02*
X492210000Y-258040000D01*
X492250000Y-255960000D02*
X492250000Y-253927000D01*
X492250000Y-260073000D02*
X492250000Y-258040000D01*
X492290000Y-255960000D02*
X492290000Y-253914000D01*
X492290000Y-260086000D02*
X492290000Y-258040000D01*
X492330000Y-255960000D02*
X492330000Y-253902000D01*
X492330000Y-260098000D02*
X492330000Y-258040000D01*
X492370000Y-255960000D02*
X492370000Y-253891000D01*
X492370000Y-260109000D02*
X492370000Y-258040000D01*
X492410000Y-255960000D02*
X492410000Y-253880000D01*
X492410000Y-260120000D02*
X492410000Y-258040000D01*
X492450000Y-255960000D02*
X492450000Y-253869000D01*
X492450000Y-260131000D02*
X492450000Y-258040000D01*
X492490000Y-255960000D02*
X492490000Y-253860000D01*
X492490000Y-260140000D02*
X492490000Y-258040000D01*
X492530000Y-255960000D02*
X492530000Y-253850000D01*
X492530000Y-260150000D02*
X492530000Y-258040000D01*
X492570000Y-255960000D02*
X492570000Y-253841000D01*
X492570000Y-260159000D02*
X492570000Y-258040000D01*
X492610000Y-255960000D02*
X492610000Y-253833000D01*
X492610000Y-260167000D02*
X492610000Y-258040000D01*
X492650000Y-255960000D02*
X492650000Y-253826000D01*
X492650000Y-260174000D02*
X492650000Y-258040000D01*
X492690000Y-255960000D02*
X492690000Y-253818000D01*
X492690000Y-260182000D02*
X492690000Y-258040000D01*
X492730000Y-255960000D02*
X492730000Y-253812000D01*
X492730000Y-260188000D02*
X492730000Y-258040000D01*
X492770000Y-255960000D02*
X492770000Y-253805000D01*
X492770000Y-260195000D02*
X492770000Y-258040000D01*
X492810000Y-255960000D02*
X492810000Y-253800000D01*
X492810000Y-260200000D02*
X492810000Y-258040000D01*
X492850000Y-255960000D02*
X492850000Y-253795000D01*
X492850000Y-260205000D02*
X492850000Y-258040000D01*
X492890000Y-255960000D02*
X492890000Y-253790000D01*
X492890000Y-260210000D02*
X492890000Y-258040000D01*
X492930000Y-255960000D02*
X492930000Y-253786000D01*
X492930000Y-260214000D02*
X492930000Y-258040000D01*
X492970000Y-255960000D02*
X492970000Y-253782000D01*
X492970000Y-260218000D02*
X492970000Y-258040000D01*
X493010000Y-255960000D02*
X493010000Y-253779000D01*
X493010000Y-260221000D02*
X493010000Y-258040000D01*
X493050000Y-260224000D02*
X493050000Y-253776000D01*
X493090000Y-260226000D02*
X493090000Y-253774000D01*
X493130000Y-260228000D02*
X493130000Y-253772000D01*
X493170000Y-260229000D02*
X493170000Y-253771000D01*
X493210000Y-260230000D02*
X493210000Y-253770000D01*
X493250000Y-260230000D02*
X493250000Y-253770000D01*
X496435241Y-259154000D02*
X496435241Y-258524000D01*
X496750241Y-258839000D02*
X496120241Y-258839000D01*
X496520000Y-257000000D02*
G75*
G02*
X489980000Y-257000000I-3270000J0D01*
G01*
X489980000Y-257000000D02*
G75*
G02*
X496520000Y-257000000I3270000J0D01*
G01*
%TO.C,J1*%
X415120000Y-211770000D02*
X416500000Y-211770000D01*
X415120000Y-213150000D02*
X415120000Y-211770000D01*
X415120000Y-214420000D02*
X415120000Y-262790000D01*
X415120000Y-214420000D02*
X417770000Y-214420000D01*
X415120000Y-262790000D02*
X420420000Y-262790000D01*
X417770000Y-211770000D02*
X420420000Y-211770000D01*
X417770000Y-214420000D02*
X417770000Y-211770000D01*
X420420000Y-211770000D02*
X420420000Y-262790000D01*
%TO.C,SW1*%
X516600000Y-193700000D02*
X514300000Y-193700000D01*
X522900000Y-193700000D02*
X520700000Y-193700000D01*
X522900000Y-198300000D02*
X514300000Y-198300000D01*
%TO.C,C7*%
X490260000Y-267902000D02*
X490260000Y-267098000D01*
X490300000Y-268133000D02*
X490300000Y-266867000D01*
X490340000Y-268301000D02*
X490340000Y-266699000D01*
X490380000Y-268439000D02*
X490380000Y-266561000D01*
X490420000Y-268558000D02*
X490420000Y-266442000D01*
X490460000Y-268665000D02*
X490460000Y-266335000D01*
X490500000Y-268761000D02*
X490500000Y-266239000D01*
X490540000Y-268850000D02*
X490540000Y-266150000D01*
X490580000Y-268932000D02*
X490580000Y-266068000D01*
X490620000Y-269009000D02*
X490620000Y-265991000D01*
X490660000Y-269081000D02*
X490660000Y-265919000D01*
X490700000Y-269149000D02*
X490700000Y-265851000D01*
X490740000Y-269214000D02*
X490740000Y-265786000D01*
X490780000Y-269275000D02*
X490780000Y-265725000D01*
X490820000Y-269334000D02*
X490820000Y-265666000D01*
X490860000Y-269390000D02*
X490860000Y-265610000D01*
X490900000Y-269443000D02*
X490900000Y-265557000D01*
X490940000Y-269495000D02*
X490940000Y-265505000D01*
X490980000Y-269544000D02*
X490980000Y-265456000D01*
X491020000Y-269591000D02*
X491020000Y-265409000D01*
X491060000Y-269637000D02*
X491060000Y-265363000D01*
X491100000Y-269681000D02*
X491100000Y-265319000D01*
X491140000Y-269723000D02*
X491140000Y-265277000D01*
X491180000Y-269764000D02*
X491180000Y-265236000D01*
X491220000Y-266460000D02*
X491220000Y-265196000D01*
X491220000Y-269804000D02*
X491220000Y-268540000D01*
X491260000Y-266460000D02*
X491260000Y-265158000D01*
X491260000Y-269842000D02*
X491260000Y-268540000D01*
X491300000Y-266460000D02*
X491300000Y-265121000D01*
X491300000Y-269879000D02*
X491300000Y-268540000D01*
X491340000Y-266460000D02*
X491340000Y-265085000D01*
X491340000Y-269915000D02*
X491340000Y-268540000D01*
X491380000Y-266460000D02*
X491380000Y-265050000D01*
X491380000Y-269950000D02*
X491380000Y-268540000D01*
X491420000Y-266460000D02*
X491420000Y-265017000D01*
X491420000Y-269983000D02*
X491420000Y-268540000D01*
X491460000Y-266460000D02*
X491460000Y-264984000D01*
X491460000Y-270016000D02*
X491460000Y-268540000D01*
X491500000Y-266460000D02*
X491500000Y-264953000D01*
X491500000Y-270047000D02*
X491500000Y-268540000D01*
X491540000Y-266460000D02*
X491540000Y-264923000D01*
X491540000Y-270077000D02*
X491540000Y-268540000D01*
X491580000Y-266460000D02*
X491580000Y-264893000D01*
X491580000Y-270107000D02*
X491580000Y-268540000D01*
X491620000Y-266460000D02*
X491620000Y-264864000D01*
X491620000Y-270136000D02*
X491620000Y-268540000D01*
X491660000Y-266460000D02*
X491660000Y-264837000D01*
X491660000Y-270163000D02*
X491660000Y-268540000D01*
X491700000Y-266460000D02*
X491700000Y-264810000D01*
X491700000Y-270190000D02*
X491700000Y-268540000D01*
X491740000Y-266460000D02*
X491740000Y-264784000D01*
X491740000Y-270216000D02*
X491740000Y-268540000D01*
X491780000Y-266460000D02*
X491780000Y-264759000D01*
X491780000Y-270241000D02*
X491780000Y-268540000D01*
X491820000Y-266460000D02*
X491820000Y-264735000D01*
X491820000Y-270265000D02*
X491820000Y-268540000D01*
X491860000Y-266460000D02*
X491860000Y-264711000D01*
X491860000Y-270289000D02*
X491860000Y-268540000D01*
X491900000Y-266460000D02*
X491900000Y-264688000D01*
X491900000Y-270312000D02*
X491900000Y-268540000D01*
X491940000Y-266460000D02*
X491940000Y-264666000D01*
X491940000Y-270334000D02*
X491940000Y-268540000D01*
X491980000Y-266460000D02*
X491980000Y-264645000D01*
X491980000Y-270355000D02*
X491980000Y-268540000D01*
X492020000Y-266460000D02*
X492020000Y-264624000D01*
X492020000Y-270376000D02*
X492020000Y-268540000D01*
X492060000Y-266460000D02*
X492060000Y-264604000D01*
X492060000Y-270396000D02*
X492060000Y-268540000D01*
X492100000Y-266460000D02*
X492100000Y-264585000D01*
X492100000Y-270415000D02*
X492100000Y-268540000D01*
X492140000Y-266460000D02*
X492140000Y-264566000D01*
X492140000Y-270434000D02*
X492140000Y-268540000D01*
X492180000Y-266460000D02*
X492180000Y-264548000D01*
X492180000Y-270452000D02*
X492180000Y-268540000D01*
X492220000Y-266460000D02*
X492220000Y-264531000D01*
X492220000Y-270469000D02*
X492220000Y-268540000D01*
X492260000Y-266460000D02*
X492260000Y-264514000D01*
X492260000Y-270486000D02*
X492260000Y-268540000D01*
X492300000Y-266460000D02*
X492300000Y-264498000D01*
X492300000Y-270502000D02*
X492300000Y-268540000D01*
X492340000Y-266460000D02*
X492340000Y-264483000D01*
X492340000Y-270517000D02*
X492340000Y-268540000D01*
X492380000Y-266460000D02*
X492380000Y-264468000D01*
X492380000Y-270532000D02*
X492380000Y-268540000D01*
X492420000Y-266460000D02*
X492420000Y-264453000D01*
X492420000Y-270547000D02*
X492420000Y-268540000D01*
X492460000Y-266460000D02*
X492460000Y-264440000D01*
X492460000Y-270560000D02*
X492460000Y-268540000D01*
X492500000Y-266460000D02*
X492500000Y-264427000D01*
X492500000Y-270573000D02*
X492500000Y-268540000D01*
X492540000Y-266460000D02*
X492540000Y-264414000D01*
X492540000Y-270586000D02*
X492540000Y-268540000D01*
X492580000Y-266460000D02*
X492580000Y-264402000D01*
X492580000Y-270598000D02*
X492580000Y-268540000D01*
X492620000Y-266460000D02*
X492620000Y-264391000D01*
X492620000Y-270609000D02*
X492620000Y-268540000D01*
X492660000Y-266460000D02*
X492660000Y-264380000D01*
X492660000Y-270620000D02*
X492660000Y-268540000D01*
X492700000Y-266460000D02*
X492700000Y-264369000D01*
X492700000Y-270631000D02*
X492700000Y-268540000D01*
X492740000Y-266460000D02*
X492740000Y-264360000D01*
X492740000Y-270640000D02*
X492740000Y-268540000D01*
X492780000Y-266460000D02*
X492780000Y-264350000D01*
X492780000Y-270650000D02*
X492780000Y-268540000D01*
X492820000Y-266460000D02*
X492820000Y-264341000D01*
X492820000Y-270659000D02*
X492820000Y-268540000D01*
X492860000Y-266460000D02*
X492860000Y-264333000D01*
X492860000Y-270667000D02*
X492860000Y-268540000D01*
X492900000Y-266460000D02*
X492900000Y-264326000D01*
X492900000Y-270674000D02*
X492900000Y-268540000D01*
X492940000Y-266460000D02*
X492940000Y-264318000D01*
X492940000Y-270682000D02*
X492940000Y-268540000D01*
X492980000Y-266460000D02*
X492980000Y-264312000D01*
X492980000Y-270688000D02*
X492980000Y-268540000D01*
X493020000Y-266460000D02*
X493020000Y-264305000D01*
X493020000Y-270695000D02*
X493020000Y-268540000D01*
X493060000Y-266460000D02*
X493060000Y-264300000D01*
X493060000Y-270700000D02*
X493060000Y-268540000D01*
X493100000Y-266460000D02*
X493100000Y-264295000D01*
X493100000Y-270705000D02*
X493100000Y-268540000D01*
X493140000Y-266460000D02*
X493140000Y-264290000D01*
X493140000Y-270710000D02*
X493140000Y-268540000D01*
X493180000Y-266460000D02*
X493180000Y-264286000D01*
X493180000Y-270714000D02*
X493180000Y-268540000D01*
X493220000Y-266460000D02*
X493220000Y-264282000D01*
X493220000Y-270718000D02*
X493220000Y-268540000D01*
X493260000Y-266460000D02*
X493260000Y-264279000D01*
X493260000Y-270721000D02*
X493260000Y-268540000D01*
X493300000Y-270724000D02*
X493300000Y-264276000D01*
X493340000Y-270726000D02*
X493340000Y-264274000D01*
X493380000Y-270728000D02*
X493380000Y-264272000D01*
X493420000Y-270729000D02*
X493420000Y-264271000D01*
X493460000Y-270730000D02*
X493460000Y-264270000D01*
X493500000Y-270730000D02*
X493500000Y-264270000D01*
X496685241Y-269654000D02*
X496685241Y-269024000D01*
X497000241Y-269339000D02*
X496370241Y-269339000D01*
X496770000Y-267500000D02*
G75*
G02*
X490230000Y-267500000I-3270000J0D01*
G01*
X490230000Y-267500000D02*
G75*
G02*
X496770000Y-267500000I3270000J0D01*
G01*
%TO.C,J12*%
X558005000Y-228015000D02*
X558750000Y-228015000D01*
X558005000Y-228750000D02*
X558005000Y-228015000D01*
X558005000Y-229485000D02*
X558005000Y-240360000D01*
X558005000Y-229485000D02*
X558064435Y-229485000D01*
X558005000Y-240360000D02*
X558339970Y-240360000D01*
X559160030Y-240360000D02*
X559495000Y-240360000D01*
X559435565Y-229485000D02*
X559495000Y-229485000D01*
X559495000Y-229485000D02*
X559495000Y-240360000D01*
%TD*%
M02*
